<?xml version="1.0" encoding="UTF-8" standalone="no"?>
<!DOCTYPE svg PUBLIC "-//W3C//DTD SVG 1.1//EN" "http://www.w3.org/Graphics/SVG/1.1/DTD/svg11.dtd">
<svg width="100%" height="100%" viewBox="0 0 2000 2000" version="1.1" xmlns="http://www.w3.org/2000/svg" xmlns:xlink="http://www.w3.org/1999/xlink" xml:space="preserve" xmlns:serif="http://www.serif.com/" style="fill-rule:evenodd;clip-rule:evenodd;stroke-linejoin:round;stroke-miterlimit:2;">
    <rect x="110" y="679.5" width="1636.8" height="1116.3" style="fill:white;fill-rule:nonzero;"/>
    <path d="M1746.4,1797.5L110,1797.5C109.5,1797.5 109,1797.3 108.7,1797C108.4,1796.7 108.2,1796.2 108.2,1795.7L108.2,679.5C108.2,679 108.4,678.5 108.7,678.2C109,677.9 109.5,677.7 110,677.7L1746.4,677.7C1746.9,677.7 1747.4,677.9 1747.7,678.2C1748.1,678.5 1748.2,679 1748.2,679.5L1748.2,1795.7C1748.2,1796.2 1748,1796.7 1747.7,1797C1747.3,1797.3 1746.9,1797.5 1746.4,1797.5ZM111.8,1793.8L1744.5,1793.8L1744.5,681.3L111.8,681.3L111.8,1793.8Z" style="fill:rgb(2,19,59);fill-rule:nonzero;"/>
    <path d="M1967,609.6L1967,1353L1746.4,1353L1746.4,679.5L110,679.5C109.9,655.8 114.5,632.4 123.5,610.5C132.5,588.6 145.8,568.7 162.5,552C179.2,535.3 199.1,522 221,513C242.9,504 266.3,499.4 290,499.5L1857,499.5C1871.5,499.5 1885.8,502.3 1899.2,507.8C1912.6,513.3 1924.7,521.4 1935,531.7C1945.2,541.9 1953.3,554.1 1958.9,567.5C1964.2,580.8 1967,595.2 1967,609.6Z" style="fill:white;fill-rule:nonzero;"/>
    <path d="M1967,1354.9L1746.4,1354.9C1745.9,1354.8 1745.5,1354.6 1745.2,1354.3C1744.9,1354 1744.6,1353.5 1744.6,1353.1L1744.6,681.3L110,681.3C109.5,681.3 109,681.1 108.7,680.8C108.4,680.5 108.2,680 108.2,679.5C108.2,631.3 127.3,585 161.4,550.8C195.5,516.6 241.7,497.4 290,497.3L1857,497.3C1871.7,497.3 1886.3,500.2 1899.8,505.8C1913.4,511.4 1925.7,519.7 1936,530.2C1957,551.3 1968.8,579.9 1968.9,609.6L1968.9,1353C1968.9,1353.5 1968.7,1354 1968.4,1354.3C1967.9,1354.7 1967.5,1354.9 1967,1354.9ZM1748.1,1351.2L1965.1,1351.2L1965.1,609.6C1965.1,580.9 1953.7,553.3 1933.4,532.9C1913.1,512.5 1885.6,501.1 1856.8,501L289.8,501C242.9,501.1 197.8,519.7 164.5,552.7C131.2,585.8 112.2,630.6 111.7,677.6L1746.3,677.6C1746.8,677.6 1747.3,677.8 1747.6,678.1C1748,678.4 1748.1,678.9 1748.1,679.4L1748.1,1351.2Z" style="fill:rgb(2,19,59);fill-rule:nonzero;"/>
    <path d="M1642.6,451.9C1694.6,451.9 1736.8,409.7 1736.8,357.7C1736.8,305.7 1694.6,263.5 1642.6,263.5C1590.6,263.5 1548.4,305.7 1548.4,357.7C1548.4,409.7 1590.5,451.9 1642.6,451.9Z" style="fill:white;fill-rule:nonzero;"/>
    <path d="M1642.6,454.1C1628.3,454 1614.1,450.7 1601.2,444.5C1584.2,436.2 1569.9,423.2 1560.3,406.9C1550.6,390.6 1546,371.8 1546.9,352.9C1547.8,334 1554.3,315.8 1565.6,300.5C1576.8,285.3 1592.3,273.6 1610.1,267.1C1634.1,258.5 1660.5,259.8 1683.6,270.7C1706.6,281.6 1724.5,301.1 1733.1,325.1C1737.4,337 1739.4,349.6 1738.7,362.2C1738.1,374.8 1734.9,387.2 1729.4,398.6C1724.1,410 1716.5,420.3 1707.2,428.8C1697.9,437.3 1687,443.9 1675.1,448.1C1664.6,451.9 1653.7,453.9 1642.6,454.1ZM1642.6,265.3C1632,265.2 1621.5,266.9 1611.6,270.5C1588.5,278.8 1569.6,295.9 1559.1,318C1548.6,340.2 1547.3,365.6 1555.4,388.7C1564.7,410.4 1581.9,427.7 1603.5,437.2C1625.1,446.6 1649.5,447.5 1671.7,439.6C1693.9,431.7 1712.3,415.6 1723.1,394.6C1733.9,373.6 1736.3,349.3 1729.8,326.7C1723.4,308.7 1711.6,293.2 1695.9,282.2C1680.3,271.1 1661.7,265.2 1642.6,265.3Z" style="fill:rgb(2,19,59);fill-rule:nonzero;"/>
    <path d="M1642.6,427.8C1681.4,427.8 1712.8,396.4 1712.8,357.6C1712.8,318.8 1681.4,287.4 1642.6,287.4C1603.8,287.4 1572.4,318.8 1572.4,357.6C1572.4,396.4 1603.8,427.8 1642.6,427.8Z" style="fill:rgb(2,19,59);fill-rule:nonzero;"/>
    <path d="M1642.6,402.7C1667.5,402.7 1687.7,382.5 1687.7,357.6C1687.7,332.7 1667.5,312.5 1642.6,312.5C1617.7,312.5 1597.5,332.7 1597.5,357.6C1597.5,382.5 1617.7,402.7 1642.6,402.7Z" style="fill:white;fill-rule:nonzero;"/>
    <path d="M1642.6,404.6C1635.7,404.7 1628.8,403 1622.6,399.8C1617,397.3 1612.1,393.6 1607.9,389.1C1603.8,384.6 1600.6,379.3 1598.6,373.5C1596.4,367.7 1595.4,361.6 1595.7,355.4C1595.9,349.2 1597.4,343.2 1600,337.6C1602.6,332 1606.3,327 1610.9,322.9C1615.5,318.8 1620.8,315.6 1626.7,313.6C1632.5,311.4 1638.6,310.5 1644.8,310.8C1651,311.1 1657,312.7 1662.5,315.5C1668.1,318 1673.1,321.7 1677.2,326.2C1681.3,330.7 1684.5,336 1686.5,341.8C1688.7,347.6 1689.7,353.7 1689.3,359.9C1689,366.1 1687.4,372.1 1684.6,377.6C1682.1,383.2 1678.4,388.2 1673.9,392.3C1669.4,396.4 1664.1,399.6 1658.3,401.6C1653.4,403.5 1648,404.5 1642.6,404.6ZM1642.6,314.4C1637.7,314.5 1632.8,315.4 1628.2,317C1618.2,321.4 1610.2,329.4 1605.8,339.4C1601.4,349.4 1601.1,360.7 1604.7,371.1C1608.4,381.4 1615.8,389.9 1625.5,395C1635.2,400 1646.5,401.2 1657,398.3C1667.7,394.4 1676.5,386.4 1681.4,376.1C1683.9,371 1685.3,365.5 1685.6,359.8C1685.9,354.2 1685.1,348.5 1683.2,343.2C1681.3,337.9 1678.4,333 1674.6,328.8C1670.8,324.6 1666.2,321.2 1661.1,318.8C1655.3,315.9 1649,314.4 1642.6,314.4Z" style="fill:rgb(2,19,59);fill-rule:nonzero;"/>
    <path d="M1642.6,374.6C1652,374.6 1659.6,367 1659.6,357.6C1659.6,348.2 1652,340.6 1642.6,340.6C1633.2,340.6 1625.6,348.2 1625.6,357.6C1625.6,367 1633.2,374.6 1642.6,374.6Z" style="fill:rgb(2,19,59);fill-rule:nonzero;"/>
    <path d="M1744.5,253.8L1755.2,223.5C1755.6,222.1 1756.4,220.9 1757.4,219.9C1758.4,218.9 1759.7,218.2 1761.1,217.9C1762.5,217.6 1763.9,217.6 1765.3,218C1766.7,218.4 1767.9,219.2 1768.9,220.2L1788.5,239.8C1789.4,240.8 1790.1,242 1790.5,243.3C1790.9,244.6 1790.9,246 1790.6,247.4C1790.3,248.7 1789.7,250 1788.8,251.1C1787.9,252.2 1786.8,253 1785.5,253.5L1755.6,264.6C1754.1,265.2 1752.4,265.3 1750.9,265C1749.3,264.7 1747.8,263.9 1746.7,262.8C1745.5,261.7 1744.7,260.2 1744.3,258.7C1743.9,257 1744,255.4 1744.5,253.8Z" style="fill:rgb(202,202,202);fill-rule:nonzero;"/>
    <path d="M1649.9,353.9L1648.8,353.2C1648.5,352.9 1648.3,352.4 1648.3,351.9C1648.3,351.4 1648.5,351 1648.8,350.6L1785.9,222.4C1786.2,222.1 1786.7,221.9 1787.2,221.9C1787.7,221.9 1788.2,222.1 1788.5,222.4C1788.8,222.9 1788.9,223.4 1788.9,224C1788.8,224.5 1788.6,225 1788.1,225.4L1651.4,353.2L1649.9,353.9Z" style="fill:rgb(2,19,59);fill-rule:nonzero;"/>
    <path d="M1652.2,337.3L1638.5,360.9L1665.5,351.7L1652.2,337.3Z" style="fill:rgb(202,202,202);fill-rule:nonzero;"/>
    <path d="M1746.4,681.3C1745.9,681.3 1745.4,681.1 1745.1,680.8C1744.8,680.5 1744.6,680 1744.6,679.5C1746.3,656.3 1750,633.3 1755.7,610.8C1764.6,577.2 1781.9,532.5 1815.6,511.4C1841.1,495.5 1872.1,494.8 1908,509.9C1908.7,510.3 1909.5,511.4 1908.7,512.1C1908.7,512.3 1908.6,512.6 1908.4,512.8C1908.3,513 1908.1,513.2 1907.9,513.3C1907.7,513.4 1907.4,513.5 1907.2,513.5C1907,513.5 1906.7,513.4 1906.5,513.3C1871.8,498.9 1841.8,499.3 1817.5,514.4C1755.4,553.9 1748.8,678.4 1748.4,679.6C1748.4,680.1 1748.2,680.6 1747.9,680.9C1747.3,681.1 1746.9,681.3 1746.4,681.3Z" style="fill:rgb(2,19,59);fill-rule:nonzero;"/>
    <path d="M425.9,1182.7L243.7,1182.7C227.7,1182.7 212.4,1176.4 201.1,1165.1C189.8,1153.8 183.5,1138.5 183.5,1122.5L183.5,958.4C183.5,942.4 189.8,927.1 201.1,915.8C212.4,904.5 227.7,898.2 243.7,898.2L425.9,898.2C433.8,898.2 441.6,899.8 448.9,902.8C456.2,905.8 462.8,910.3 468.4,915.9C474,921.5 478.4,928.1 481.5,935.4C484.5,942.7 486.1,950.5 486.1,958.4L486.1,1122.5C486.1,1130.4 484.5,1138.2 481.5,1145.5C478.5,1152.8 474,1159.4 468.4,1165C462.8,1170.6 456.2,1175 448.9,1178.1C441.6,1181.1 433.8,1182.7 425.9,1182.7ZM243.7,901.9C236.3,901.9 228.9,903.4 222.1,906.2C215.2,909 209,913.2 203.8,918.5C198.6,923.7 194.4,930 191.5,936.8C188.7,943.7 187.2,951 187.2,958.4L187.2,1122.5C187.3,1137.5 193.3,1151.8 203.9,1162.4C214.5,1173 228.8,1179 243.8,1179.1L426,1179.1C441,1179 455.3,1173 465.9,1162.4C476.5,1151.8 482.5,1137.5 482.6,1122.5L482.6,958.4C482.6,951 481.1,943.6 478.3,936.8C475.5,929.9 471.3,923.7 466,918.5C460.8,913.3 454.5,909.1 447.7,906.2C440.8,903.4 433.5,901.9 426.1,901.9L243.7,901.9Z" style="fill:rgb(2,19,59);fill-rule:nonzero;"/>
    <path d="M230.4,1286.9C251.6,1286.9 268.8,1269.7 268.8,1248.5C268.8,1227.3 251.6,1210.1 230.4,1210.1C209.2,1210.1 192,1227.3 192,1248.5C192,1269.7 209.2,1286.9 230.4,1286.9Z" style="fill:rgb(51,80,163);fill-rule:nonzero;"/>
    <path d="M207.9,1276.9C199.9,1276.9 192.1,1274.5 185.5,1270.1C178.9,1265.7 173.7,1259.4 170.7,1252C167.7,1244.6 166.9,1236.5 168.4,1228.7C170,1220.9 173.8,1213.7 179.4,1208.1C185,1202.5 192.2,1198.6 200,1197.1C207.8,1195.5 215.9,1196.3 223.3,1199.4C230.7,1202.4 236.9,1207.6 241.4,1214.2C245.8,1220.8 248.2,1228.6 248.2,1236.6C248.2,1241.9 247.2,1247.1 245.1,1252C243.1,1256.9 240.1,1261.3 236.4,1265.1C232.7,1268.8 228.2,1271.8 223.3,1273.8C218.4,1275.9 213.2,1276.9 207.9,1276.9ZM207.9,1200.1C200.7,1200.1 193.6,1202.2 187.6,1206.3C181.6,1210.3 176.9,1216 174.1,1222.7C171.3,1229.4 170.6,1236.7 172,1243.8C173.4,1250.9 176.9,1257.4 182,1262.5C187.1,1267.6 193.6,1271.1 200.7,1272.5C207.8,1273.9 215.2,1273.2 221.8,1270.4C228.5,1267.6 234.2,1262.9 238.2,1256.9C242.2,1250.9 244.4,1243.8 244.4,1236.6C244.4,1226.9 240.5,1217.6 233.7,1210.7C226.9,1203.8 217.6,1200.1 207.9,1200.1Z" style="fill:rgb(2,19,59);fill-rule:nonzero;"/>
    <path d="M449.5,1227.8L282.5,1227.8C282,1227.8 281.5,1227.6 281.2,1227.3C280.9,1227 280.7,1226.5 280.7,1226C280.7,1225.5 280.9,1225 281.2,1224.7C281.5,1224.4 282,1224.1 282.5,1224.1L449.5,1224.1C450,1224.1 450.5,1224.3 450.8,1224.7C451.1,1225 451.3,1225.5 451.3,1226C451.3,1226.5 451.1,1227 450.8,1227.3C450.5,1227.6 450,1227.8 449.5,1227.8Z" style="fill:rgb(2,19,59);fill-rule:nonzero;"/>
    <path d="M351.2,1254L282.5,1254C282,1254 281.5,1253.8 281.2,1253.5C280.9,1253.2 280.7,1252.7 280.7,1252.2C280.7,1251.7 280.9,1251.2 281.2,1250.9C281.5,1250.6 282,1250.4 282.5,1250.4L351.2,1250.4C351.7,1250.5 352.1,1250.7 352.4,1251C352.7,1251.3 353,1251.8 353,1252.2C353,1252.4 353,1252.7 352.9,1252.9C352.8,1253.1 352.7,1253.3 352.5,1253.5C352.3,1253.7 352.1,1253.8 351.9,1253.9C351.7,1254 351.5,1254 351.2,1254Z" style="fill:rgb(2,19,59);fill-rule:nonzero;"/>
    <path d="M437,1276.9L280,1276.9C279.5,1276.9 279,1276.7 278.7,1276.4C278.4,1276.1 278.2,1275.6 278.2,1275.1C278.2,1274.6 278.4,1274.1 278.7,1273.8C279,1273.5 279.5,1273.3 280,1273.3L437,1273.3C437.5,1273.3 438,1273.5 438.3,1273.8C438.6,1274.1 438.8,1274.6 438.8,1275.1C438.8,1275.6 438.6,1276.1 438.3,1276.4C437.9,1276.7 437.4,1276.9 437,1276.9Z" style="fill:rgb(2,19,59);fill-rule:nonzero;"/>
    <path d="M1917.8,1409.9C1939.8,1409.9 1957.7,1392 1957.7,1370C1957.7,1348 1939.8,1330.1 1917.8,1330.1C1895.8,1330.1 1877.9,1348 1877.9,1370C1877.9,1392 1895.8,1409.9 1917.8,1409.9Z" style="fill:rgb(247,174,56);fill-rule:nonzero;"/>
    <path d="M1896,1451.7C1887.7,1451.7 1879.7,1449.3 1872.8,1444.7C1865.9,1440.1 1860.6,1433.6 1857.4,1426C1854.2,1418.4 1853.4,1410 1855,1401.9C1856.6,1393.8 1860.6,1386.4 1866.4,1380.5C1872.2,1374.7 1879.7,1370.7 1887.8,1369.1C1895.9,1367.5 1904.3,1368.3 1911.9,1371.5C1919.5,1374.7 1926,1380 1930.6,1386.9C1935.2,1393.8 1937.6,1401.8 1937.6,1410.1C1937.6,1415.6 1936.5,1421 1934.4,1426.1C1932.3,1431.2 1929.2,1435.8 1925.4,1439.6C1921.5,1443.5 1916.9,1446.6 1911.9,1448.7C1906.9,1450.6 1901.5,1451.7 1896,1451.7ZM1896,1371.9C1888.5,1371.9 1881.1,1374.1 1874.8,1378.3C1868.6,1382.5 1863.7,1388.4 1860.8,1395.4C1857.9,1402.4 1857.2,1410 1858.6,1417.4C1860.1,1424.8 1863.7,1431.6 1869,1436.9C1874.3,1442.2 1881.1,1445.9 1888.5,1447.3C1895.9,1448.8 1903.5,1448 1910.5,1445.1C1917.5,1442.2 1923.4,1437.3 1927.6,1431.1C1931.8,1424.8 1934,1417.5 1934,1410C1934,1405 1933,1400.1 1931.1,1395.4C1929.2,1390.8 1926.4,1386.6 1922.9,1383.1C1919.4,1379.6 1915.2,1376.8 1910.6,1374.9C1906,1372.8 1901,1371.9 1896,1371.9Z" style="fill:rgb(2,19,59);fill-rule:nonzero;"/>
    <path d="M291.4,1072.6C331.8,1072.6 364.6,1039.8 364.6,999.4C364.6,959 331.8,926.2 291.4,926.2C251,926.2 218.2,959 218.2,999.4C218.2,1039.8 251,1072.6 291.4,1072.6Z" style="fill:rgb(51,80,163);fill-rule:nonzero;"/>
    <path d="M291.4,999.4L291.4,1082.9C269.3,1082.8 248.1,1074 232.5,1058.3C216.9,1042.7 208,1021.5 207.9,999.4L291.4,999.4Z" style="fill:rgb(202,202,202);fill-rule:nonzero;"/>
    <path d="M464.3,978.7L378.6,978.7C378.1,978.7 377.6,978.5 377.3,978.2C377,977.9 376.8,977.4 376.8,976.9C376.8,976.4 377,975.9 377.3,975.6C377.6,975.3 378.1,975.1 378.6,975.1L464.3,975.1C464.8,975.1 465.3,975.3 465.6,975.6C465.9,975.9 466.1,976.4 466.1,976.9C466.1,977.4 465.9,977.9 465.6,978.2C465.3,978.5 464.8,978.7 464.3,978.7Z" style="fill:rgb(2,19,59);fill-rule:nonzero;"/>
    <path d="M453.6,997.2L389.3,997.2C388.8,997.2 388.3,997 388,996.7C387.7,996.4 387.5,995.9 387.5,995.4C387.5,994.9 387.7,994.4 388,994.1C388.3,993.8 388.8,993.6 389.3,993.6L453.6,993.6C454.1,993.6 454.6,993.8 454.9,994.1C455.2,994.4 455.4,994.9 455.4,995.4C455.4,995.9 455.2,996.4 454.9,996.7C454.5,997 454.1,997.2 453.6,997.2Z" style="fill:rgb(2,19,59);fill-rule:nonzero;"/>
    <path d="M449.5,1102.5L211.6,1102.5C211.1,1102.5 210.6,1102.3 210.3,1101.9C210,1101.6 209.8,1101.1 209.8,1100.6C209.8,1100.1 210,1099.6 210.3,1099.3C210.6,1099 211.1,1098.8 211.6,1098.8L449.5,1098.8C450,1098.8 450.5,1099 450.8,1099.3C451.1,1099.6 451.3,1100.1 451.3,1100.6C451.3,1101.1 451.1,1101.6 450.8,1101.9C450.5,1102.3 450,1102.5 449.5,1102.5Z" style="fill:rgb(2,19,59);fill-rule:nonzero;"/>
    <path d="M449.5,1121.7L312.1,1121.7C311.6,1121.7 311.1,1121.5 310.8,1121.2C310.5,1120.9 310.3,1120.4 310.3,1119.9C310.3,1119.4 310.5,1118.9 310.8,1118.6C311.1,1118.3 311.6,1118.1 312.1,1118.1L449.5,1118.1C450,1118.1 450.5,1118.3 450.8,1118.6C451.1,1119 451.3,1119.4 451.3,1119.9C451.3,1120.4 451.1,1120.9 450.8,1121.2C450.5,1121.5 450,1121.7 449.5,1121.7Z" style="fill:rgb(2,19,59);fill-rule:nonzero;"/>
    <path d="M429.6,1146.1L359,1146.1C358.5,1146.1 358,1145.9 357.7,1145.6C357.4,1145.3 357.2,1144.8 357.2,1144.3C357.2,1143.8 357.4,1143.3 357.7,1143C358,1142.7 358.5,1142.5 359,1142.5L429.6,1142.5C430.1,1142.5 430.6,1142.7 430.9,1143C431.2,1143.4 431.4,1143.8 431.4,1144.3C431.4,1144.8 431.2,1145.3 430.9,1145.6C430.5,1145.9 430.1,1146.1 429.6,1146.1Z" style="fill:rgb(2,19,59);fill-rule:nonzero;"/>
    <path d="M1193.6,1409.9C1175.8,1409.8 1158.3,1415.1 1143.4,1424.9C1128.5,1434.8 1116.9,1448.8 1110,1465.3C1103.1,1481.8 1101.3,1499.9 1104.7,1517.4C1108.1,1534.9 1116.7,1551 1129.3,1563.6C1141.9,1576.3 1158,1584.9 1175.5,1588.4C1193,1591.9 1211.1,1590.1 1227.6,1583.3C1244.1,1576.5 1258.2,1564.9 1268.1,1550.1C1278,1535.3 1283.3,1517.8 1283.3,1500C1283.3,1476.2 1273.8,1453.3 1257,1436.4C1240.3,1419.6 1217.5,1410 1193.6,1409.9ZM1193.6,1555.9C1182.5,1556 1171.7,1552.8 1162.5,1546.7C1153.3,1540.6 1146.1,1531.9 1141.8,1521.7C1137.5,1511.5 1136.4,1500.3 1138.5,1489.4C1140.6,1478.5 1145.9,1468.6 1153.7,1460.7C1161.5,1452.9 1171.4,1447.5 1182.3,1445.3C1193.1,1443.1 1204.4,1444.2 1214.6,1448.4C1224.8,1452.6 1233.5,1459.8 1239.7,1468.9C1245.8,1478.1 1249.1,1488.9 1249.1,1499.9C1249,1514.6 1243.1,1528.7 1232.8,1539.1C1222.4,1549.7 1208.3,1555.7 1193.6,1555.9Z" style="fill:white;fill-rule:nonzero;"/>
    <path d="M1193.7,1591.7C1175.5,1591.8 1157.6,1586.4 1142.4,1576.4C1127.2,1566.3 1115.4,1552 1108.4,1535.1C1101.4,1518.3 1099.5,1499.8 1103.1,1481.9C1106.6,1464 1115.4,1447.6 1128.3,1434.7C1141.2,1421.8 1157.6,1413 1175.5,1409.5C1193.4,1406 1211.9,1407.8 1228.7,1414.8C1245.5,1421.8 1259.9,1433.7 1270,1448.8C1280.1,1464 1285.4,1481.8 1285.3,1500C1285.2,1524.3 1275.5,1547.5 1258.3,1564.7C1241.2,1581.9 1217.9,1591.6 1193.7,1591.7ZM1193.7,1411.8C1176.2,1411.7 1159.1,1416.8 1144.5,1426.5C1129.9,1436.2 1118.6,1449.9 1111.8,1466.1C1105,1482.3 1103.3,1500 1106.6,1517.1C1110,1534.3 1118.4,1550 1130.7,1562.4C1143,1574.8 1158.8,1583.2 1175.9,1586.7C1193,1590.1 1210.8,1588.4 1227,1581.7C1243.2,1575 1257,1563.7 1266.7,1549.2C1276.4,1534.7 1281.6,1517.6 1281.6,1500.1C1281.6,1476.7 1272.4,1454.3 1255.9,1437.8C1239.4,1421.2 1217,1411.9 1193.7,1411.8ZM1193.7,1557.7C1182.3,1557.8 1171.1,1554.5 1161.6,1548.2C1152.1,1541.9 1144.6,1532.9 1140.2,1522.4C1135.8,1511.9 1134.6,1500.3 1136.8,1489.1C1139,1477.9 1144.4,1467.6 1152.5,1459.5C1160.5,1451.4 1170.8,1445.9 1182,1443.6C1193.2,1441.4 1204.8,1442.5 1215.4,1446.8C1226,1451.1 1235,1458.5 1241.3,1468C1247.6,1477.5 1251,1488.6 1251,1500.1C1251,1515.3 1245,1529.9 1234.2,1540.7C1223.4,1551.5 1208.9,1557.6 1193.7,1557.7ZM1193.7,1446.1C1183,1446 1172.5,1449.1 1163.6,1455C1154.7,1460.9 1147.7,1469.3 1143.6,1479.1C1139.5,1488.9 1138.3,1499.8 1140.4,1510.3C1142.4,1520.8 1147.6,1530.4 1155.1,1538C1162.6,1545.6 1172.2,1550.8 1182.7,1552.9C1193.2,1555 1204,1554 1213.9,1549.9C1223.8,1545.8 1232.2,1538.9 1238.2,1530C1244.2,1521.1 1247.3,1510.7 1247.3,1500C1247.3,1485.8 1241.7,1472.1 1231.6,1462C1221.5,1452 1207.9,1446.2 1193.7,1446.1Z" style="fill:rgb(2,19,59);fill-rule:nonzero;"/>
    <path d="M1109.4,1474.6L1138.6,1482C1134.9,1493.8 1134.9,1506.4 1138.6,1518.2L1109.4,1526.3C1109.4,1526.3 1100.5,1504.9 1109.4,1474.6Z" style="fill:rgb(202,202,202);fill-rule:nonzero;"/>
    <path d="M1109.4,1526.3L1138.6,1518.2C1142.3,1528.7 1148.8,1538 1157.5,1544.9C1166.2,1551.8 1176.7,1556.1 1187.7,1557.4L1193.3,1588.1C1193.3,1588 1130.1,1589.9 1109.4,1526.3Z" style="fill:rgb(51,80,163);fill-rule:nonzero;"/>
    <path d="M1114.9,1509.3L1114.2,1509.3L1058.4,1481.6L975.3,1481.6C974.8,1481.6 974.3,1481.4 974,1481.1C973.7,1480.7 973.5,1480.3 973.5,1479.8C973.5,1479.3 973.7,1478.8 974,1478.5C974.3,1478.2 974.8,1478 975.3,1478L1059.5,1478L1116,1505.7C1116.4,1505.9 1116.6,1506.3 1116.8,1506.7C1116.9,1507.1 1116.9,1507.5 1116.8,1507.9C1116.7,1508.3 1116.5,1508.7 1116.1,1509C1115.8,1509.2 1115.4,1509.3 1114.9,1509.3Z" style="fill:rgb(2,19,59);fill-rule:nonzero;"/>
    <path d="M957.9,1490.8C955.7,1490.9 953.5,1490.3 951.6,1489.1C949.7,1487.9 948.3,1486.2 947.4,1484.2C946.5,1482.2 946.2,1479.9 946.6,1477.8C947,1475.6 948,1473.6 949.5,1472C951,1470.4 953,1469.3 955.2,1468.9C957.4,1468.4 959.6,1468.6 961.7,1469.5C963.7,1470.3 965.5,1471.7 966.7,1473.6C967.9,1475.4 968.6,1477.6 968.6,1479.8C968.6,1481.2 968.4,1482.7 967.9,1484C967.4,1485.3 966.6,1486.6 965.6,1487.6C964.6,1488.6 963.4,1489.5 962.1,1490C960.8,1490.6 959.4,1490.8 957.9,1490.8ZM957.9,1472.7C956,1472.7 954.3,1473.4 952.9,1474.8C951.6,1476.1 950.8,1477.9 950.8,1479.8C950.8,1481.7 951.5,1483.5 952.9,1484.8C954.2,1486.1 956,1486.9 957.9,1486.9C959.8,1486.9 961.5,1486.2 962.9,1484.8C964.2,1483.5 965,1481.7 965,1479.8C965,1477.9 964.3,1476.2 962.9,1474.8C961.6,1473.5 959.8,1472.7 957.9,1472.7Z" style="fill:rgb(2,19,59);fill-rule:nonzero;"/>
    <path d="M1178.5,1634.6L1096.8,1634.6C1096.4,1634.6 1096,1634.5 1095.7,1634.3C1095.4,1634.1 1095.1,1633.8 1094.9,1633.4C1094.8,1633 1094.8,1632.6 1094.8,1632.3C1094.9,1631.9 1095,1631.5 1095.2,1631.2L1162.1,1565.8C1162.5,1565.1 1163.9,1565.1 1164.7,1565.8C1165,1566.1 1165.2,1566.6 1165.2,1567.1C1165.2,1567.6 1165,1568 1164.7,1568.4L1101.2,1630.8L1178.4,1630.8C1178.9,1630.8 1179.4,1631 1179.7,1631.3C1180,1631.6 1180.2,1632.1 1180.2,1632.6C1180.2,1633.1 1180,1633.6 1179.7,1633.9C1179.5,1634.4 1179,1634.6 1178.5,1634.6Z" style="fill:rgb(2,19,59);fill-rule:nonzero;"/>
    <path d="M1197.3,1643.8C1195.1,1643.7 1192.9,1643.1 1191,1642C1189.7,1641.2 1188.6,1640.2 1187.7,1639C1186.8,1637.8 1186.2,1636.4 1185.8,1635C1185.3,1632 1185.9,1629 1187.6,1626.5C1188.4,1625.2 1189.4,1624.1 1190.6,1623.2C1191.8,1622.3 1193.2,1621.7 1194.6,1621.3C1197.6,1620.8 1200.6,1621.4 1203.1,1623.1C1204.4,1623.9 1205.5,1624.9 1206.4,1626.1C1207.3,1627.3 1207.9,1628.7 1208.3,1630.1C1208.8,1633.1 1208.1,1636.1 1206.5,1638.6C1205.7,1639.9 1204.7,1641 1203.5,1641.9C1202.3,1642.8 1200.9,1643.4 1199.5,1643.8L1197.3,1643.8ZM1197.3,1625L1195.5,1625C1193.5,1625.4 1191.7,1626.7 1190.6,1628.4C1189.5,1630.1 1189.1,1632.2 1189.5,1634.2C1190,1636.2 1191.2,1637.8 1193,1638.9C1194.7,1640 1196.8,1640.3 1198.7,1639.9C1200.7,1639.5 1202.4,1638.3 1203.5,1636.6C1204.6,1634.9 1205,1632.9 1204.7,1630.9C1204.4,1629.2 1203.4,1627.7 1202.1,1626.6C1200.8,1625.5 1199.1,1624.9 1197.3,1625Z" style="fill:rgb(2,19,59);fill-rule:nonzero;"/>
    <path d="M335.3,1630.9L180.2,1630.9C163.1,1630.9 149.2,1644.8 149.2,1661.9C149.2,1679.1 163.1,1692.9 180.2,1692.9L335.4,1692.9C352.5,1692.9 366.4,1679 366.4,1661.9C366.4,1644.8 352.5,1630.9 335.3,1630.9Z" style="fill:rgb(51,80,163);fill-rule:nonzero;"/>
    <path d="M364.2,1708.5L209,1708.5C200.3,1708.5 191.9,1705 185.7,1698.9C179.5,1692.7 176.1,1684.4 176.1,1675.7C176.1,1667 179.6,1658.6 185.7,1652.5C191.9,1646.3 200.2,1642.9 209,1642.9L364.2,1642.9C372.9,1642.9 381.3,1646.4 387.5,1652.5C393.7,1658.7 397.1,1667 397.1,1675.7C397.1,1684.4 393.6,1692.8 387.5,1698.9C381.2,1705 372.9,1708.5 364.2,1708.5ZM209,1646.4C201.3,1646.4 193.8,1649.5 188.4,1654.9C182.9,1660.4 179.9,1667.8 179.9,1675.5C179.9,1683.2 183,1690.7 188.4,1696.1C193.8,1701.5 201.3,1704.7 209,1704.7L364.2,1704.7C371.9,1704.7 379.4,1701.6 384.8,1696.1C390.2,1690.6 393.3,1683.2 393.3,1675.5C393.3,1667.8 390.2,1660.3 384.8,1654.9C379.3,1649.4 371.9,1646.4 364.2,1646.4L209,1646.4Z" style="fill:rgb(2,19,59);fill-rule:nonzero;"/>
    <path d="M407.4,1758C404.8,1758 402.3,1757.3 400,1756.2C397.7,1755 395.7,1753.4 394.1,1751.4C391.5,1747.9 390.3,1743.4 390.9,1739.1C391.5,1734.7 393.9,1730.8 397.4,1728.2L518.2,1635.8C521,1633.4 524.5,1632.1 528.2,1632.1L650.9,1632.1L996,1295.8C999.2,1292.8 1003.4,1291.1 1007.8,1291L1215.1,1291L1640.7,743.4C1642,741.5 1643.6,739.9 1645.5,738.7C1647.4,737.5 1649.6,736.7 1651.8,736.3C1654,735.9 1656.4,736 1658.6,736.6C1660.8,737.2 1662.9,738.2 1664.7,739.6C1666.5,741 1668,742.7 1669.1,744.7C1670.2,746.7 1670.9,748.9 1671.1,751.2C1671.3,753.5 1671.1,755.7 1670.3,757.9C1669.6,760.1 1668.5,762.1 1666.9,763.8L1236.1,1317.6C1234.6,1319.6 1232.6,1321.2 1230.4,1322.3C1228.2,1323.4 1225.7,1323.9 1223.2,1323.9L1014.5,1323.9L669.4,1660.1C666.2,1663.1 662,1664.8 657.6,1664.9L533.8,1664.9L417.4,1754C414.7,1756.5 411.1,1758 407.4,1758Z" style="fill:rgb(247,174,56);fill-rule:nonzero;"/>
    <path d="M1568.7,740.1L1729,610.7L1703.5,815L1568.7,740.1Z" style="fill:rgb(247,174,56);fill-rule:nonzero;"/>
    <g transform="matrix(2.44765,0.0117445,-0.0117445,2.44765,-549.489,579.16)">
        <path d="M954.174,357.492L959.942,377.583C960.314,378.879 961.175,379.98 962.343,380.655C963.51,381.329 964.894,381.523 966.202,381.198L986.486,376.147L971.971,391.188C971.034,392.159 970.511,393.454 970.511,394.803C970.511,396.151 971.034,397.447 971.971,398.417L986.486,413.458L966.202,408.408C964.894,408.082 963.51,408.277 962.343,408.951C961.175,409.625 960.314,410.726 959.942,412.022L954.174,432.114L948.406,412.022C948.034,410.726 947.173,409.625 946.006,408.951C944.838,408.277 943.454,408.082 942.146,408.408L921.862,413.458L936.378,398.417C937.314,397.447 937.837,396.151 937.837,394.803C937.837,393.454 937.314,392.159 936.378,391.188L921.862,376.147L942.146,381.198C943.454,381.523 944.838,381.329 946.006,380.655C947.173,379.98 948.034,378.879 948.406,377.583L954.174,357.492Z" style="fill:rgb(51,80,163);"/>
    </g>
    <path d="M1746.4,1471.6C1762.5,1471.6 1775.6,1458.5 1775.6,1442.4C1775.6,1426.3 1762.5,1413.2 1746.4,1413.2C1730.3,1413.2 1717.2,1426.3 1717.2,1442.4C1717.2,1458.6 1730.3,1471.6 1746.4,1471.6Z" style="fill:white;fill-rule:nonzero;"/>
    <path d="M1746.4,1473.5C1740.3,1473.5 1734.3,1471.7 1729.2,1468.3C1724.1,1464.9 1720.1,1460.1 1717.8,1454.4C1715.5,1448.7 1714.8,1442.5 1716,1436.5C1717.2,1430.5 1720.2,1424.9 1724.5,1420.6C1728.8,1416.3 1734.4,1413.3 1740.4,1412.1C1746.4,1410.9 1752.7,1411.5 1758.3,1413.9C1764,1416.2 1768.8,1420.2 1772.2,1425.3C1775.6,1430.4 1777.4,1436.4 1777.4,1442.5C1777.4,1450.7 1774.1,1458.6 1768.3,1464.4C1762.5,1470.2 1754.6,1473.5 1746.4,1473.5ZM1746.4,1415.1C1741,1415.1 1735.7,1416.7 1731.2,1419.7C1726.7,1422.7 1723.2,1427 1721.1,1432C1719,1437 1718.5,1442.5 1719.5,1447.8C1720.6,1453.1 1723.2,1458 1727,1461.8C1730.8,1465.6 1735.7,1468.2 1741,1469.3C1746.3,1470.4 1751.8,1469.8 1756.8,1467.7C1761.8,1465.6 1766.1,1462.1 1769.1,1457.6C1772.1,1453.1 1773.7,1447.8 1773.7,1442.4C1773.7,1435.2 1770.8,1428.2 1765.7,1423.1C1760.6,1418 1753.6,1415.1 1746.4,1415.1Z" style="fill:rgb(2,19,59);fill-rule:nonzero;"/>
    <path d="M1593.6,1377.6L1593.3,1377.8C1577.1,1385.1 1569.9,1404.1 1577.1,1420.3L1660.9,1606.9C1668.2,1623.1 1687.2,1630.3 1703.4,1623L1703.7,1622.9C1719.9,1615.6 1727.1,1596.6 1719.8,1580.4L1636,1393.8C1628.8,1377.6 1609.8,1370.3 1593.6,1377.6Z" style="fill:white;fill-rule:nonzero;"/>
    <path d="M1689.9,1629C1685.7,1629 1681.6,1628.2 1677.7,1626.8C1673.5,1625.3 1669.7,1622.9 1666.5,1619.9C1663.3,1616.9 1660.7,1613.2 1658.9,1609.1L1575,1422.5C1571.4,1414.3 1571.2,1405 1574.3,1396.6C1576.6,1390.2 1580.8,1384.6 1586.3,1380.6C1591.8,1376.6 1598.4,1374.4 1605.2,1374.2C1612,1374 1618.7,1375.9 1624.5,1379.5C1630.3,1383.2 1634.8,1388.5 1637.5,1394.7L1721,1580.9C1722.9,1585 1723.9,1589.4 1724,1593.8C1724.1,1598.3 1723.4,1602.7 1721.8,1606.9C1720.2,1611.1 1717.8,1614.9 1714.8,1618.2C1711.7,1621.5 1708.1,1624.1 1704,1625.9C1699.5,1628.1 1694.7,1629.2 1689.9,1629ZM1606.3,1378.2C1602,1378.3 1597.7,1379.2 1593.7,1380.8C1586.4,1384.2 1580.7,1390.3 1577.8,1397.8C1576.3,1401.5 1575.6,1405.5 1575.6,1409.5C1575.7,1413.5 1576.5,1417.4 1578.1,1421.1L1662,1607.7C1665.4,1615 1671.5,1620.7 1679,1623.5C1686.5,1626.3 1694.9,1626.1 1702.2,1622.8C1709.5,1619.4 1715.2,1613.3 1718,1605.8C1720.8,1598.3 1720.6,1589.9 1717.3,1582.6L1633.8,1396.4C1631.4,1391 1627.6,1386.5 1622.6,1383.2C1618,1379.9 1612.2,1378.2 1606.3,1378.2Z" style="fill:rgb(2,19,59);fill-rule:nonzero;"/>
    <path d="M1622.6,1649.3C1638.3,1649.3 1651.1,1636.6 1651.1,1620.9C1651.1,1605.2 1638.4,1592.4 1622.6,1592.4C1606.8,1592.4 1594.2,1605.1 1594.2,1620.9C1594.2,1636.6 1606.9,1649.3 1622.6,1649.3Z" style="fill:rgb(202,202,202);fill-rule:nonzero;"/>
    <path d="M1872.4,1636C1885.5,1636 1896.1,1625.4 1896.1,1612.4C1896.1,1599.3 1885.5,1588.7 1872.4,1588.7C1859.3,1588.7 1848.7,1599.3 1848.7,1612.4C1848.7,1625.5 1859.3,1636 1872.4,1636Z" style="fill:rgb(247,174,56);fill-rule:nonzero;"/>
    <path d="M1717.2,1717.7L1715.7,1717L1621.5,1622.4C1621.2,1622.1 1621.1,1621.6 1621.1,1621.2C1621.1,1620.8 1621.3,1620.3 1621.6,1620C1621.9,1619.7 1622.3,1619.5 1622.8,1619.5C1623.2,1619.5 1623.7,1619.6 1624,1619.9L1718.2,1714.5C1718.5,1714.8 1718.7,1715.3 1718.7,1715.8C1718.7,1716.3 1718.5,1716.7 1718.2,1717.1L1717.2,1717.7Z" style="fill:rgb(2,19,59);fill-rule:nonzero;"/>
    <path d="M1745.7,1725.8C1745.2,1725.8 1744.7,1725.6 1744.4,1725.3C1744.1,1724.9 1743.9,1724.5 1743.9,1724L1744.6,1442.5C1744.6,1442 1744.8,1441.5 1745.1,1441.2C1745.5,1440.9 1745.9,1440.7 1746.4,1440.7C1746.9,1440.7 1747.4,1440.9 1747.7,1441.2C1748.1,1441.5 1748.2,1442 1748.2,1442.5L1747.5,1724C1747.5,1724.5 1747.3,1725 1746.9,1725.3C1746.6,1725.6 1746.1,1725.8 1745.7,1725.8Z" style="fill:rgb(2,19,59);fill-rule:nonzero;"/>
    <path d="M1780,1702.6L1778.5,1702.6C1778.2,1702.2 1778.1,1701.7 1778.2,1701.2C1778.3,1700.7 1778.5,1700.3 1778.9,1700L1870.9,1611.7C1871.1,1611.5 1871.3,1611.3 1871.5,1611.2C1871.7,1611.1 1872,1611 1872.3,1611C1872.6,1611 1872.8,1611 1873.1,1611.1C1873.3,1611.2 1873.6,1611.3 1873.8,1611.5C1874,1611.7 1874.1,1611.9 1874.2,1612.2C1874.3,1612.5 1874.3,1612.7 1874.3,1613C1874.3,1613.3 1874.2,1613.5 1874.1,1613.8C1874,1614 1873.8,1614.2 1873.6,1614.4L1781.2,1702.7L1780,1702.7L1780,1702.6Z" style="fill:rgb(2,19,59);fill-rule:nonzero;"/>
    <path d="M1770,1770.5L1769.6,1770.5C1768.9,1770.5 1767.8,1769.4 1768.1,1768.6L1778.1,1558C1778.1,1557.8 1778.1,1557.6 1778.2,1557.3C1778.3,1557.1 1778.4,1556.9 1778.6,1556.8C1778.8,1556.7 1779,1556.6 1779.2,1556.5L1779.9,1556.5C1780.4,1556.5 1780.9,1556.7 1781.2,1557C1781.5,1557.3 1781.7,1557.8 1781.7,1558.3L1771.7,1768.5C1771.5,1769.8 1770.8,1770.5 1770,1770.5Z" style="fill:rgb(2,19,59);fill-rule:nonzero;"/>
    <path d="M1766,1766.5C1765.6,1766.5 1765.2,1766.4 1764.9,1766.2C1764.6,1766 1764.3,1765.7 1764.1,1765.4L1608.2,1417.7C1608.1,1417.5 1608,1417.2 1608,1416.9C1608,1416.6 1608,1416.4 1608.2,1416.1C1608.3,1415.9 1608.5,1415.6 1608.7,1415.5C1608.9,1415.3 1609.1,1415.2 1609.4,1415.1C1609.6,1415 1609.8,1414.9 1610.1,1414.9C1610.3,1414.9 1610.6,1414.9 1610.8,1415.1C1611,1415.2 1611.2,1415.4 1611.4,1415.6C1611.5,1415.8 1611.6,1416 1611.7,1416.3L1767.6,1764C1767.7,1764.2 1767.8,1764.5 1767.8,1764.7L1767.8,1765.5C1767.7,1765.7 1767.6,1766 1767.5,1766.2C1767.3,1766.4 1767.1,1766.5 1766.9,1766.7L1766,1766.7L1766,1766.5Z" style="fill:rgb(2,19,59);fill-rule:nonzero;"/>
    <path d="M1890.1,1779.4C1890.1,1826.3 1826.9,1864.4 1749.3,1864.4C1671.7,1864.4 1608.5,1826.3 1608.5,1779.4C1608.5,1746.2 1640.7,1717.3 1687.2,1703.7L1651.4,1664.5L1847.2,1664.5L1814.7,1704.4C1859.4,1718.8 1890.1,1746.9 1890.1,1779.4Z" style="fill:white;fill-rule:nonzero;"/>
    <path d="M1749.3,1866.2C1670.6,1866.2 1606.7,1827.4 1606.7,1779.4C1606.7,1746.9 1636.3,1717.3 1683.9,1702.6L1650.3,1666C1650,1665.7 1649.8,1665.4 1649.7,1665C1649.6,1664.6 1649.7,1664.2 1649.9,1663.8C1650.3,1663.1 1650.6,1662.7 1651.4,1662.7L1847.2,1662.7C1847.9,1662.7 1848.3,1663.1 1848.7,1663.8C1848.9,1664.1 1849,1664.4 1849,1664.7C1849,1665 1848.9,1665.4 1848.7,1665.6L1817.7,1703.7C1863.5,1718.9 1892,1747.7 1892,1779.4C1892,1827.4 1828,1866.2 1749.3,1866.2ZM1655.9,1666.3L1688.8,1702.1C1689.1,1702.6 1689.3,1703.3 1689.2,1703.9C1689.2,1704.2 1689.1,1704.5 1688.9,1704.7C1688.7,1704.9 1688.4,1705 1688.1,1705C1641.2,1719 1610.5,1748.2 1610.5,1779.3C1610.5,1825.1 1672.9,1862.4 1749.4,1862.4C1825.9,1862.4 1888.3,1825.1 1888.3,1779.3C1888.3,1748.6 1859.8,1720.6 1814,1706.1C1813.6,1706.1 1813.3,1705.4 1812.9,1705C1812.8,1704.4 1812.9,1703.7 1813.3,1703.2L1843.2,1666.2L1655.9,1666.2L1655.9,1666.3Z" style="fill:rgb(2,19,59);fill-rule:nonzero;"/>
    <path d="M588.4,726.8L302.4,726.8C301.9,726.8 301.4,726.6 301.1,726.3C300.8,726 300.6,725.5 300.6,725C300.6,724.5 300.8,724 301.1,723.7C301.4,723.4 301.9,723.2 302.4,723.2L588.4,723.2C588.9,723.2 589.4,723.4 589.7,723.7C590,724 590.2,724.5 590.2,725C590.2,725.5 590,726 589.7,726.3C589.4,726.6 588.9,726.8 588.4,726.8Z" style="fill:rgb(2,19,59);fill-rule:nonzero;"/>
    <path d="M588.4,774.8L302.4,774.8C301.9,774.8 301.4,774.6 301.1,774.3C300.8,774 300.6,773.5 300.6,773C300.6,772.5 300.8,772 301.1,771.7C301.4,771.4 301.9,771.2 302.4,771.2L588.4,771.2C588.9,771.2 589.4,771.4 589.7,771.7C590,772 590.2,772.5 590.2,773C590.2,773.5 590,774 589.7,774.3C589.4,774.6 588.9,774.8 588.4,774.8Z" style="fill:rgb(2,19,59);fill-rule:nonzero;"/>
    <path d="M1303.7,240.9L1266,287.4L1312.6,325.1L1350.3,278.6L1303.7,240.9Z" style="fill:rgb(247,174,56);fill-rule:nonzero;"/>
    <path d="M1331.5,320.7L1330.4,320.7L1283.9,282.6C1283.7,282.4 1283.5,282.2 1283.3,281.9C1283.2,281.6 1283.1,281.4 1283.1,281.1L1283.1,280L1320.8,233.4L1322.3,232.7L1323.4,232.7L1370,270.4C1370.4,270.7 1370.7,271.1 1370.7,271.6C1370.8,272.1 1370.6,272.6 1370.4,273L1333.1,319.9C1332.9,320.1 1332.7,320.3 1332.5,320.4C1332,320.6 1331.8,320.7 1331.5,320.7ZM1287.5,280.8L1331.5,316.3L1366.6,272.7L1323,237.2L1287.5,280.8Z" style="fill:rgb(2,19,59);fill-rule:nonzero;"/>
    <path d="M569.2,521L572.9,473.3L608.4,506.9L569.2,521Z" style="fill:rgb(51,80,163);fill-rule:nonzero;"/>
    <path d="M579.6,522.8L578.5,522.8C578.3,522.6 578.1,522.4 578,522.1C577.9,521.8 577.8,521.6 577.8,521.3L581.5,473.3C581.5,472.6 581.9,472.2 582.6,471.8C582.9,471.6 583.3,471.6 583.6,471.7C583.9,471.8 584.2,472 584.5,472.2L620.3,505.8C620.8,506.3 621,507 621,507.6L619.5,509.1L580.3,523.1L579.6,522.8ZM584.7,477L581.7,518.4L615.3,506.2L584.7,477Z" style="fill:rgb(2,19,59);fill-rule:nonzero;"/>
    <path d="M1087.2,165.5L1086.5,165.5C1085.8,165.1 1085,164 1085.4,163.3L1095.7,133.7C1095.9,133.4 1096.3,133.2 1096.6,133C1096.9,132.8 1097.4,132.9 1097.7,133C1098.1,133.1 1098.4,133.4 1098.6,133.7C1098.8,134 1099,134.4 1099,134.8L1089,164.4C1088.9,164.8 1088.6,165.1 1088.3,165.3C1088,165.5 1087.6,165.5 1087.2,165.5Z" style="fill:rgb(2,19,59);fill-rule:nonzero;"/>
    <path d="M653.1,886.7L651.6,886.7L613.5,851.6C613.2,851.3 613,850.8 613,850.3C613,849.8 613.2,849.4 613.5,849C613.6,848.8 613.8,848.6 614,848.5C614.2,848.4 614.4,848.3 614.7,848.3L615.4,848.3C615.6,848.4 615.9,848.5 616.1,848.6L654.2,883.7C654.5,884 654.7,884.5 654.7,885C654.7,885.5 654.5,885.9 654.2,886.3C654.2,886.7 653.5,886.7 653.1,886.7Z" style="fill:rgb(51,80,163);fill-rule:nonzero;"/>
    <path d="M123.3,1074.4L120.7,1074.4L90.4,1041.9C90.1,1041.6 89.9,1041.1 89.9,1040.6C89.9,1040.1 90.1,1039.7 90.4,1039.3C90.6,1039.1 90.8,1038.9 91,1038.8C91.2,1038.7 91.5,1038.7 91.8,1038.7C92.1,1038.7 92.3,1038.9 92.5,1039C92.7,1039.2 92.9,1039.4 93,1039.6L123.3,1071.8C123.6,1072.1 123.8,1072.6 123.8,1073.1C123.8,1073.6 123.6,1074 123.3,1074.4Z" style="fill:rgb(2,19,59);fill-rule:nonzero;"/>
    <path d="M198.6,1581.4L197.9,1581.4C197.5,1581.2 197.1,1580.9 196.9,1580.5C196.7,1580.1 196.7,1579.6 196.8,1579.2L216.4,1527.8C216.5,1527.5 216.6,1527.3 216.8,1527.1C217,1526.9 217.2,1526.7 217.4,1526.6C217.6,1526.5 217.9,1526.4 218.2,1526.4C218.5,1526.4 218.7,1526.5 219,1526.6C219.5,1526.8 219.8,1527.2 220,1527.7C220.2,1528.2 220.2,1528.7 220.1,1529.2L200.5,1580.2C200.3,1580.6 200.1,1580.9 199.8,1581.1C199.4,1581.3 199,1581.4 198.6,1581.4Z" style="fill:rgb(58,129,225);fill-rule:nonzero;"/>
    <path d="M1680.2,1200.1C1679.8,1200.1 1679.4,1200 1679.1,1199.8C1678.8,1199.6 1678.5,1199.3 1678.3,1198.9L1657.2,1157.5C1657.1,1157.3 1657,1157 1657,1156.8C1657,1156.6 1657,1156.3 1657.1,1156.1C1657.2,1155.9 1657.3,1155.6 1657.4,1155.4C1657.6,1155.2 1657.7,1155 1658,1154.9C1658.2,1154.8 1658.5,1154.7 1658.7,1154.7C1658.9,1154.7 1659.2,1154.7 1659.4,1154.8C1659.6,1154.9 1659.9,1155 1660.1,1155.1C1660.3,1155.3 1660.5,1155.4 1660.6,1155.7L1681.7,1197.5C1681.8,1198 1681.8,1198.4 1681.7,1198.9C1681.6,1199.3 1681.3,1199.8 1681,1200.1L1680.2,1200.1Z" style="fill:rgb(58,129,225);fill-rule:nonzero;"/>
    <path d="M1882.4,726.8L1881.3,726.8C1881,726.5 1880.8,726 1880.7,725.6C1880.6,725.1 1880.7,724.7 1880.9,724.2L1905.7,694.3C1906,694 1906.5,693.8 1907,693.8C1907.5,693.8 1907.9,694 1908.3,694.3C1909,694.7 1909,695.8 1908.7,696.9L1883.9,726.5L1882.4,726.8Z" style="fill:rgb(202,202,202);fill-rule:nonzero;"/>
    <path d="M1860.6,967.7C1879.2,967.7 1894.2,952.6 1894.2,934.1C1894.2,915.5 1879.1,900.5 1860.6,900.5C1842,900.5 1827,915.6 1827,934.1C1826.9,952.6 1842,967.7 1860.6,967.7Z" style="fill:rgb(202,202,202);fill-rule:nonzero;"/>
    <path d="M1851.3,988.7C1844.2,988.8 1837.2,986.7 1831.3,982.8C1825.4,978.9 1820.7,973.3 1817.9,966.8C1815.1,960.3 1814.4,953 1815.7,946.1C1817,939.1 1820.4,932.7 1825.4,927.7C1830.4,922.7 1836.8,919.2 1843.7,917.8C1850.7,916.4 1857.9,917.1 1864.5,919.8C1871.1,922.5 1876.7,927.1 1880.6,933C1884.6,938.9 1886.7,945.8 1886.7,952.9C1886.7,957.6 1885.9,962.2 1884.1,966.6C1882.3,971 1879.7,974.9 1876.4,978.2C1873.1,981.5 1869.2,984.2 1864.8,986C1860.7,987.8 1856,988.7 1851.3,988.7ZM1851.3,921.1C1844.9,921 1838.7,922.9 1833.3,926.4C1828,929.9 1823.8,934.9 1821.3,940.8C1818.8,946.7 1818.2,953.2 1819.4,959.5C1820.6,965.8 1823.7,971.5 1828.2,976C1832.7,980.5 1838.5,983.6 1844.8,984.8C1851.1,986 1857.6,985.4 1863.5,982.9C1869.4,980.4 1874.4,976.2 1877.9,970.9C1881.4,965.6 1883.2,959.3 1883.2,952.9C1883.1,944.5 1879.7,936.5 1873.8,930.5C1867.7,924.6 1859.7,921.2 1851.3,921.1Z" style="fill:rgb(2,19,59);fill-rule:nonzero;"/>
    <path d="M939.4,1834.1C957.6,1834.1 972.3,1819.4 972.3,1801.2C972.3,1783 957.6,1768.3 939.4,1768.3C921.2,1768.3 906.5,1783 906.5,1801.2C906.6,1819.4 921.3,1834.1 939.4,1834.1Z" style="fill:rgb(202,202,202);fill-rule:nonzero;"/>
    <path d="M912.1,1851.8C905.2,1851.8 898.5,1849.8 892.8,1846C887.1,1842.2 882.6,1836.8 880,1830.4C877.4,1824.1 876.7,1817.1 878,1810.3C879.3,1803.6 882.6,1797.4 887.5,1792.5C892.4,1787.6 898.5,1784.3 905.3,1783C912,1781.7 919,1782.3 925.4,1785C931.7,1787.6 937.2,1792.1 941,1797.8C944.8,1803.5 946.9,1810.2 946.9,1817.1C946.9,1826.3 943.2,1835.1 936.7,1841.7C930.1,1848.2 921.3,1851.8 912.1,1851.8ZM912.1,1786.1C906,1786.1 900,1787.9 894.9,1791.3C889.8,1794.7 885.8,1799.6 883.5,1805.2C881.2,1810.9 880.5,1817.1 881.7,1823.1C882.9,1829.1 885.9,1834.7 890.2,1839C894.5,1843.3 900.1,1846.3 906.1,1847.5C912.1,1848.7 918.4,1848.1 924,1845.7C929.7,1843.4 934.5,1839.4 937.9,1834.3C941.3,1829.2 943.1,1823.2 943.1,1817.1C943,1808.9 939.7,1801.1 933.9,1795.3C928.1,1789.4 920.3,1786.2 912.1,1786.1Z" style="fill:rgb(2,19,59);fill-rule:nonzero;"/>
    <path d="M853.7,313L816.5,289.5L793,326.8L830.2,350.3L853.7,313Z" style="fill:rgb(202,202,202);fill-rule:nonzero;"/>
    <path d="M850.4,351.7L849.3,351.7L812,328.1C811.7,327.8 811.4,327.4 811.3,326.9C811.2,326.4 811.2,326 811.3,325.5L834.9,288.2C835.2,287.8 835.6,287.5 836.1,287.5C836.6,287.4 837.1,287.6 837.5,287.9L874.8,311.2C875,311.4 875.2,311.6 875.3,311.9C875.4,312.2 875.5,312.4 875.5,312.7C875.5,312.9 875.5,313.1 875.4,313.3C875.3,313.5 875.2,313.7 875.1,313.8L851.9,351L850.4,351.7ZM815.3,325.9L849.7,347.7L871.1,313.3L837.1,291.9L815.3,325.9Z" style="fill:rgb(2,19,59);fill-rule:nonzero;"/>
    <rect x="55.3" y="1511.9" width="67.6" height="67.4" style="fill:rgb(202,202,202);fill-rule:nonzero;"/>
    <path d="M101.5,1610.6L33.8,1610.6C33.3,1610.5 32.9,1610.3 32.6,1610C32.3,1609.7 32.1,1609.2 32,1608.8L32,1541.2C32,1540.7 32.2,1540.2 32.5,1539.9C32.8,1539.6 33.3,1539.4 33.8,1539.4L101.4,1539.4C101.9,1539.4 102.4,1539.6 102.7,1539.9C103,1540.2 103.2,1540.7 103.2,1541.2L103.2,1608.8C103.2,1609.3 103,1609.8 102.7,1610.1C102.4,1610.4 102,1610.6 101.5,1610.6ZM35.7,1606.9L99.6,1606.9L99.6,1543L35.7,1543L35.7,1606.9Z" style="fill:rgb(2,19,59);fill-rule:nonzero;"/>
    <path d="M323.9,320.3C350.6,320.3 372.3,298.6 372.3,271.9C372.3,245.2 350.6,223.5 323.9,223.5C297.2,223.5 275.5,245.2 275.5,271.9C275.5,298.7 297.2,320.3 323.9,320.3Z" style="fill:rgb(247,174,56);fill-rule:nonzero;"/>
    <path d="M337.2,308.5C327.2,308.5 317.4,305.5 309,299.9C300.7,294.3 294.2,286.4 290.4,277.1C286.6,267.8 285.6,257.6 287.6,247.8C289.6,238 294.4,229 301.6,221.9C308.7,214.8 317.8,210 327.6,208.1C337.4,206.2 347.6,207.2 356.9,211.1C366.2,215 374,221.5 379.5,229.9C385,238.3 387.9,248.1 387.8,258.1C387.8,264.7 386.5,271.3 383.9,277.4C381.4,283.5 377.6,289.1 372.9,293.7C368.2,298.4 362.6,302.1 356.5,304.6C350.4,307.3 343.8,308.6 337.2,308.5ZM337.2,211.3C327.9,211.3 318.8,214.1 311.1,219.2C303.4,224.4 297.4,231.7 293.8,240.3C290.2,248.9 289.3,258.3 291.1,267.4C292.9,276.5 297.4,284.9 303.9,291.4C310.5,298 318.8,302.4 327.9,304.2C337,306 346.4,305.1 355,301.5C363.6,297.9 370.9,291.9 376.1,284.2C381.3,276.5 384,267.4 384,258.1C384,245.7 379.1,233.7 370.3,224.9C361.5,216.1 349.6,211.3 337.2,211.3Z" style="fill:rgb(2,19,59);fill-rule:nonzero;"/>
    <path d="M1837.3,1866.6L1198.5,1865.1C1198,1865.1 1197.5,1864.9 1197.2,1864.6C1196.9,1864.3 1196.7,1863.8 1196.7,1863.3C1196.7,1862.8 1196.9,1862.3 1197.2,1862C1197.5,1861.7 1198,1861.5 1198.5,1861.5L1837.3,1863C1837.8,1863 1838.3,1863.2 1838.6,1863.5C1838.9,1863.8 1839.1,1864.3 1839.1,1864.8C1839,1865.3 1838.8,1865.7 1838.5,1866C1838.2,1866.3 1837.7,1866.5 1837.3,1866.6Z" style="fill:rgb(2,19,59);fill-rule:nonzero;"/>
    <path d="M1513,1326.6L1513.3,1229.8L1556.9,1229.9L1556.7,1283.1C1556.7,1294.7 1552,1305.7 1543.8,1313.9C1535.6,1322.1 1524.5,1326.6 1513,1326.6Z" style="fill:white;fill-rule:nonzero;"/>
    <path d="M1512.5,1329.4C1512,1329.4 1511.4,1329.2 1511.1,1328.9C1510.7,1328.6 1510.4,1328.1 1510.3,1327.6L1510.3,1231.2C1510.4,1230.7 1510.7,1230.1 1511,1229.7L1555.7,1229.7L1557.2,1230.4C1557.3,1230.6 1557.4,1230.7 1557.5,1230.9C1557.6,1231.1 1557.6,1231.3 1557.6,1231.5L1557.6,1284.3C1557.5,1296.3 1552.7,1307.7 1544.2,1316.2C1535.7,1324.6 1524.2,1329.4 1512.2,1329.4L1512.5,1329.4ZM1514.3,1232.9L1514.3,1325.6C1524.6,1325.3 1534.4,1321.1 1541.6,1313.8C1545.6,1310 1548.7,1305.4 1550.9,1300.3C1553.1,1295.2 1554.2,1289.8 1554.2,1284.3L1554.2,1232.9L1514.3,1232.9Z" style="fill:rgb(2,19,59);fill-rule:nonzero;"/>
    <path d="M1361.4,1231.1L1405,1231.1L1405,1327.9C1393.4,1327.9 1382.3,1323.3 1374.2,1315.1C1366,1306.9 1361.4,1295.8 1361.4,1284.3L1361.4,1231.1Z" style="fill:white;fill-rule:nonzero;"/>
    <path d="M1405,1329.8C1393,1329.7 1381.5,1324.9 1373,1316.4C1364.5,1307.9 1359.7,1296.4 1359.6,1284.4L1359.6,1231.2C1359.6,1230.7 1359.8,1230.2 1360.1,1229.9C1360.5,1229.5 1360.9,1229.4 1361.4,1229.4L1405,1229.4C1405.5,1229.4 1406,1229.6 1406.3,1229.9C1406.6,1230.2 1406.8,1230.7 1406.8,1231.2L1406.8,1328C1406.7,1328.5 1406.5,1328.9 1406.2,1329.2C1405.9,1329.4 1405.4,1329.7 1405,1329.8ZM1363.2,1232.9L1363.2,1284.3C1363.2,1295 1367.4,1305.3 1374.8,1313.1C1382.2,1320.8 1392.4,1325.3 1403.1,1325.7L1403.1,1233L1363.2,1233L1363.2,1232.9Z" style="fill:rgb(2,19,59);fill-rule:nonzero;"/>
    <path d="M1399.1,1208.6L1521,1208.6L1521,1333.8C1521,1350 1514.6,1365.5 1503.2,1376.9C1491.8,1388.3 1476.3,1394.7 1460.1,1394.7C1443.9,1394.7 1428.4,1388.3 1417,1376.9C1405.6,1365.5 1399.1,1350 1399.1,1333.8L1399.1,1208.6Z" style="fill:rgb(247,174,56);fill-rule:nonzero;"/>
    <rect x="1444.9" y="1363.7" width="26.2" height="119.8" style="fill:rgb(247,174,56);fill-rule:nonzero;"/>
    <rect x="1435.3" y="1468.3" width="44.3" height="20.1" style="fill:rgb(2,19,59);fill-rule:nonzero;"/>
    <path d="M1495.1,1510.4L1419.7,1510.4C1419.2,1510.4 1418.7,1510.2 1418.4,1509.9C1418.1,1509.6 1417.9,1509.1 1417.9,1508.6L1417.9,1488.7C1417.9,1488.2 1418.1,1487.7 1418.4,1487.4C1418.8,1487.1 1419.2,1486.9 1419.7,1486.9L1495.1,1486.9C1495.6,1486.9 1496.1,1487.1 1496.4,1487.4C1496.7,1487.7 1496.9,1488.2 1496.9,1488.7L1496.9,1508.6C1496.9,1509.1 1496.7,1509.6 1496.4,1509.9C1496.1,1510.2 1495.6,1510.4 1495.1,1510.4ZM1421.6,1506.7L1493.3,1506.7L1493.3,1490.4L1421.6,1490.4L1421.6,1506.7Z" style="fill:rgb(2,19,59);fill-rule:nonzero;"/>
    <path d="M1513.2,1696.6L1401.6,1696.6C1401.1,1696.6 1400.6,1696.4 1400.3,1696.1C1400,1695.8 1399.8,1695.3 1399.8,1694.8L1399.8,1508.6C1399.8,1508.1 1400,1507.6 1400.3,1507.3C1400.6,1507 1401.1,1506.8 1401.6,1506.8L1513.2,1506.8C1513.7,1506.8 1514.2,1507 1514.5,1507.3C1514.8,1507.6 1515,1508.1 1515,1508.6L1515,1694.8C1515,1695 1515,1695.3 1514.9,1695.5C1514.8,1695.7 1514.7,1695.9 1514.5,1696.1C1514.3,1696.3 1514.1,1696.4 1513.9,1696.5C1513.7,1696.6 1513.5,1696.6 1513.2,1696.6ZM1403.5,1692.9L1511.4,1692.9L1511.4,1510.4L1403.5,1510.4L1403.5,1692.9Z" style="fill:rgb(2,19,59);fill-rule:nonzero;"/>
    <path d="M1501.4,1273.6L1450.4,1273.6C1449.9,1273.6 1449.4,1273.4 1449.1,1273.1C1448.8,1272.8 1448.6,1272.3 1448.6,1271.8C1448.6,1271.3 1448.8,1270.8 1449.1,1270.5C1449.4,1270.1 1449.9,1270 1450.4,1270L1501.4,1270C1501.9,1270 1502.4,1270.2 1502.7,1270.5C1503,1270.8 1503.2,1271.3 1503.2,1271.8C1503.2,1272.3 1503,1272.8 1502.7,1273.1C1502.4,1273.4 1501.9,1273.6 1501.4,1273.6Z" style="fill:rgb(2,19,59);fill-rule:nonzero;"/>
    <path d="M1501.4,1293.2L1450.4,1293.2C1449.9,1293.2 1449.4,1293 1449.1,1292.7C1448.8,1292.4 1448.6,1291.9 1448.6,1291.4C1448.6,1290.9 1448.8,1290.4 1449.1,1290.1C1449.4,1289.8 1449.9,1289.6 1450.4,1289.6L1501.4,1289.6C1501.9,1289.6 1502.4,1289.8 1502.7,1290.1C1503,1290.4 1503.2,1290.9 1503.2,1291.4C1503.1,1291.9 1502.9,1292.3 1502.6,1292.6C1502.3,1292.9 1501.9,1293.1 1501.4,1293.2Z" style="fill:rgb(2,19,59);fill-rule:nonzero;"/>
    <path d="M1501.4,1313.1L1450.4,1313.1C1449.9,1313.1 1449.4,1312.9 1449.1,1312.6C1448.8,1312.3 1448.6,1311.8 1448.6,1311.3C1448.6,1310.8 1448.8,1310.3 1449.1,1310C1449.4,1309.7 1449.9,1309.5 1450.4,1309.5L1501.4,1309.5C1501.9,1309.6 1502.3,1309.8 1502.6,1310.1C1502.9,1310.4 1503.1,1310.9 1503.2,1311.3C1503.2,1311.8 1503,1312.3 1502.7,1312.6C1502.4,1312.9 1501.9,1313.1 1501.4,1313.1Z" style="fill:rgb(2,19,59);fill-rule:nonzero;"/>
    <path d="M1488.9,1666.3C1488.4,1666.3 1487.9,1666.1 1487.6,1665.8C1487.3,1665.4 1487.1,1665 1487.1,1664.5L1487.1,1531.1C1487.1,1530.6 1487.3,1530.1 1487.6,1529.8C1487.9,1529.4 1488.4,1529.2 1488.9,1529.2C1489.4,1529.2 1489.9,1529.4 1490.2,1529.8C1490.5,1530.1 1490.7,1530.6 1490.7,1531.1L1490.7,1664.5C1490.7,1665 1490.5,1665.5 1490.2,1665.8C1489.8,1666.2 1489.3,1666.3 1488.9,1666.3Z" style="fill:rgb(247,174,56);fill-rule:nonzero;"/>
    <path d="M1196.2,511.3L1160.4,593.3L1093.9,580L1142.3,500.6L1196.2,511.3Z" style="fill:white;fill-rule:nonzero;"/>
    <path d="M1160.4,595.2L1160,595.2L1093.5,581.9C1093.3,581.9 1093.2,581.9 1093.1,581.8C1093,581.7 1092.8,581.7 1092.7,581.6C1092.6,581.5 1092.5,581.4 1092.5,581.2C1092.4,581.1 1092.4,580.9 1092.4,580.8C1092.2,580.6 1092.1,580.3 1092.1,580.1C1092.1,579.9 1092.2,579.6 1092.4,579.4L1140.4,500C1140.6,499.6 1140.9,499.3 1141.3,499.1C1141.7,498.9 1142.1,498.8 1142.6,498.9L1196.5,509.6L1198,510.3L1198,512.1L1161.8,594.1C1161.5,594.8 1161.1,595.2 1160.4,595.2ZM1096.8,579L1159.2,591.2L1193.6,512.5L1143,502.9L1096.8,579Z" style="fill:rgb(2,19,59);fill-rule:nonzero;"/>
    <path d="M770.2,787.3C770.2,787.3 749.1,893 790.2,900C831.2,907 861.9,823.5 861.9,823.5L770.2,787.3Z" style="fill:white;fill-rule:nonzero;"/>
    <path d="M795.3,902.3L789.8,902.3C786.4,901.6 783.2,900.3 780.3,898.3C777.4,896.3 775,893.8 773.2,890.9C753.6,862.4 767.7,790.4 768.4,787.4C768.4,787.1 768.5,786.8 768.6,786.6C768.7,786.3 768.9,786.1 769.1,785.9L770.9,785.9L862.5,822.1C862.9,822.3 863.1,822.7 863.3,823.1C863.4,823.5 863.4,823.9 863.3,824.3C862.2,827.3 834.9,902.3 795.3,902.3ZM771.7,789.9C769.5,802.1 759.5,863.8 776.1,888.6C777.7,891.1 779.9,893.2 782.3,894.8C784.8,896.4 787.5,897.6 790.5,898.2L795.3,898.2C828.9,898.2 855.2,835.4 859.2,824.3L771.7,789.9Z" style="fill:rgb(2,19,59);fill-rule:nonzero;"/>
    <path d="M1284.9,705C1284.9,705 1227.3,645.1 1238.3,622.6C1249.4,600.1 1255.7,588.2 1255.7,588.2L1310,654.7L1284.9,705Z" style="fill:white;fill-rule:nonzero;"/>
    <path d="M1284.9,706.8L1283.4,706.8C1280.8,704.2 1225.4,645.5 1236.8,622.2C1248.3,598.9 1253.8,587.8 1253.8,587.8C1253.8,587.8 1254.5,586.7 1255.3,586.7L1256.8,587.4L1311.5,653.9C1311.8,654.1 1311.9,654.4 1312,654.8C1312.1,655.1 1312,655.5 1311.8,655.8L1286.3,706C1285.9,706.7 1285.6,707.1 1284.8,707.1L1284.8,706.8L1284.9,706.8ZM1256.1,591.5L1240.2,623.3C1231.7,640.3 1267.5,683.9 1284.2,702L1307.8,655.1L1256.1,591.5Z" style="fill:rgb(2,19,59);fill-rule:nonzero;"/>
    <path d="M1290.4,700.5C1290.4,700.5 1235,593 1243.1,576C1251.2,559 1271.2,564.9 1271.2,564.9C1271.2,564.9 1280.4,552.7 1298.5,563.8C1298.5,563.8 1333.6,552.7 1342.8,576C1345.1,575 1347.6,574.4 1350.1,574.4C1352.6,574.4 1355.1,574.8 1357.5,575.7C1359.8,576.6 1362,578 1363.8,579.8C1365.6,581.6 1367,583.7 1368,586C1377.2,603 1397.2,663.6 1391.3,700.5C1385.4,737.5 1290.4,700.5 1290.4,700.5Z" style="fill:white;fill-rule:nonzero;"/>
    <path d="M1362.5,719C1332.6,719 1291.9,703.1 1289.7,702.4C1289.5,702.4 1289.3,702.3 1289.2,702.2C1289.1,702.1 1289,701.9 1289,701.7C1283.1,690.6 1233.2,592.7 1241.7,575C1250.2,557.3 1266.1,561.7 1270.9,562.8C1275.7,563.9 1283.1,552.5 1299,561.7C1304.2,560.2 1334.5,553.2 1344.1,573.5C1349,572 1354.3,572.4 1359,574.5C1363.7,576.6 1367.4,580.3 1369.6,585C1378.8,602 1399.1,663 1393.2,701C1392.8,703.9 1391.7,706.6 1390,709C1388.3,711.4 1386.1,713.3 1383.6,714.7C1377.1,717.9 1369.8,719.4 1362.5,719ZM1291.9,699C1298.9,702 1359.1,724.1 1381.7,711.6C1383.8,710.5 1385.5,708.9 1386.9,707C1388.2,705.1 1389.1,702.9 1389.5,700.5C1395.4,663.2 1375.1,603.3 1366.6,586.7C1364.7,582.5 1361.3,579.2 1357,577.4C1352.7,575.6 1347.9,575.7 1343.7,577.4C1343.5,577.6 1343.2,577.7 1343,577.7C1342.7,577.7 1342.5,577.6 1342.3,577.4C1341.8,577.4 1341.4,577 1341.2,576.3C1333.1,555.2 1299.4,565.2 1299.4,565.6L1297.6,565.6C1281.3,555.6 1273.2,565.6 1272.8,566.3C1272.6,566.6 1272.3,566.7 1272,566.8C1271.7,566.9 1271.3,566.8 1271,566.7C1270.3,566.7 1252.2,561.5 1245.1,577C1238,592.6 1276.4,669.1 1291.9,699Z" style="fill:rgb(2,19,59);fill-rule:nonzero;"/>
    <path d="M794.2,866C794.2,866 736.9,946.2 775,1018.6C775,1018.6 666.4,1204.1 616.1,1238.1C565.9,1272.1 471.3,1491.9 471.3,1491.9L612.1,1511.9C612.1,1511.9 972.3,1180.5 978.6,1068.9L1079.1,1022.7L1014.1,1180.8L1122.4,1225.9C1122.4,1225.9 1316.7,1014.6 1308.6,918.1C1300.5,821.7 1048.9,855.7 1048.9,855.7L794.2,866Z" style="fill:rgb(202,202,202);fill-rule:nonzero;"/>
    <path d="M1048.8,576C1048.8,576 839.7,600 805.3,634.4C770.9,668.8 761,787.4 761,787.4C761,787.4 845.6,833.6 891.8,805.5C938,777.4 1048.8,576 1048.8,576Z" style="fill:white;fill-rule:nonzero;"/>
    <path d="M854.8,816.2C839.1,815.8 823.6,813.4 808.6,808.8C791.9,803.7 775.7,797 760.2,788.8C759.8,788.6 759.5,788.4 759.3,788.1C759.1,787.8 759,787.4 759,787C759.4,782.2 769.7,667.3 804.1,632.9C838.5,598.5 1040.2,574.9 1048.7,574.2C1049,574.1 1049.4,574.1 1049.8,574.2C1050.1,574.3 1050.4,574.6 1050.6,574.9C1050.8,575.2 1050.9,575.5 1050.9,575.8C1050.9,576.1 1050.8,576.5 1050.6,576.7C1046.2,584.8 939,778.8 892.8,806.9C881.3,813.5 868.1,816.7 854.8,816.2ZM763.2,786.2C772.8,791.4 848.9,829.4 891,803.6C933.1,777.7 1031.4,603.7 1045.4,578.2C1017.7,581.5 837.4,604.4 806.7,635.5C776.1,666.5 764.3,773.7 763.2,786.2Z" style="fill:rgb(2,19,59);fill-rule:nonzero;"/>
    <path d="M775,897.8C775,897.8 1016.6,475.1 1131.5,553.8C1246.4,632.5 1274.5,748.9 1274.5,748.9L1274.5,692.7C1274.5,692.7 1316.6,652.4 1399,679.4C1399,679.4 1393.1,958.4 1288.5,926.2C1183.9,894.1 1159.6,827.5 1159.6,827.5L1141.5,849.7C1141.6,849.8 894,982.4 775,897.8Z" style="fill:white;fill-rule:nonzero;"/>
    <path d="M1304.9,930.7C1299.1,930.6 1293.4,929.6 1287.9,927.7C1233.6,911.1 1201.1,884.8 1183.7,866C1173.7,855.7 1165.5,843.8 1159.3,830.9L1143.1,850.9L1142.4,850.9C1139.8,852.4 892.6,983.2 774,898.9C773.3,898.5 773.3,897.4 773.6,896.7C781.4,883.4 960.6,571.9 1082.9,543.8C1101.6,539.4 1118.2,542 1132.8,551.6C1197.7,596.8 1246.7,661.3 1272.8,736L1272.8,692.8C1272.8,692.1 1272.8,691.7 1273.2,691.3C1282.6,683.4 1293.6,677.5 1305.4,673.9C1325,668 1356.8,663.6 1400,677.6C1400.7,678 1401.5,678.7 1401.1,679.4C1400,714 1396.8,748.6 1391.5,782.9C1379.3,855.3 1360.1,901.9 1333.9,921.1C1325.3,927.3 1315.2,930.6 1304.9,930.7ZM1159.7,825.8L1160.1,825.8C1160.8,825.8 1161.2,826.2 1161.6,826.9C1167.6,840.5 1176,852.8 1186.4,863.5C1203.8,882.3 1235.5,907.8 1289.1,924.5C1296.2,926.9 1303.7,927.6 1311.1,926.6C1318.5,925.5 1325.5,922.6 1331.6,918.3C1390,876.2 1397,698.5 1397.4,681.1C1356,667.8 1325.4,671.9 1306.9,677.8C1295.8,680.9 1285.5,686.3 1276.6,693.7L1276.6,749.1C1276.6,749.6 1276.4,750.1 1276.1,750.4C1275.8,750.7 1275.3,750.9 1274.8,750.9C1274.1,750.9 1272.9,750.5 1272.9,749.4C1272.9,748.3 1243.4,632.6 1130.7,555.4C1117.4,546.2 1101.9,543.6 1083.8,547.6C1033.9,559.1 965.2,623.3 884.6,733.8C828.2,811 784.3,886 777.6,897.5C892.5,976.9 1130.1,853.9 1140.4,848.4L1158.1,826.2L1159.7,825.8Z" style="fill:rgb(2,19,59);fill-rule:nonzero;"/>
    <path d="M1291.6,620C1291.2,620 1290.8,619.9 1290.5,619.7C1290.2,619.5 1289.9,619.2 1289.8,618.8L1269.9,565.2C1269.7,565 1269.6,564.7 1269.6,564.4C1269.6,564.1 1269.6,563.8 1269.7,563.5C1269.8,563.2 1269.9,563 1270.2,562.8C1270.4,562.6 1270.6,562.4 1270.9,562.3C1271.2,562.2 1271.5,562.2 1271.8,562.2C1272.1,562.2 1272.4,562.4 1272.6,562.5C1272.8,562.7 1273,562.9 1273.2,563.2C1273.3,563.5 1273.4,563.7 1273.4,564L1293.7,617.2C1293.9,617.7 1293.8,618.2 1293.6,618.7C1293.4,619.2 1293,619.6 1292.6,619.8L1291.6,619.8L1291.6,620Z" style="fill:rgb(2,19,59);fill-rule:nonzero;"/>
    <path d="M1315.6,614.8C1314.9,614.8 1314.1,614.4 1314.1,613.7L1296.7,564.2C1296.3,563.5 1297.1,562.4 1297.8,562C1298.3,561.9 1298.8,561.9 1299.3,562.1C1299.8,562.3 1300.2,562.7 1300.4,563.1L1317.4,612.6C1317.5,612.8 1317.6,613.1 1317.6,613.3C1317.6,613.5 1317.6,613.8 1317.4,614C1317.3,614.2 1317.1,614.4 1316.9,614.5C1316.7,614.6 1316.5,614.7 1316.2,614.8L1315.6,614.8Z" style="fill:rgb(2,19,59);fill-rule:nonzero;"/>
    <path d="M1356.2,614.8C1355.5,614.8 1354.7,614.4 1354.7,613.7L1341,576.4C1340.6,575.7 1341.4,574.6 1342.1,574.2C1342.3,574.1 1342.6,574 1342.9,574C1343.2,574 1343.4,574 1343.7,574.1C1343.9,574.2 1344.2,574.4 1344.3,574.6C1344.4,574.8 1344.6,575 1344.7,575.3L1358,612.6C1358.1,612.8 1358.2,613.1 1358.2,613.3C1358.2,613.5 1358.1,613.8 1358,614C1357.9,614.2 1357.7,614.4 1357.5,614.5C1357.3,614.6 1357.1,614.7 1356.8,614.8L1356.2,614.8Z" style="fill:rgb(2,19,59);fill-rule:nonzero;"/>
    <path d="M1200.3,433.8L1208.4,453C1209.6,456 1210.6,459.1 1211.4,462.2L1213.2,469.6C1213.2,469.6 1221,545 1164.1,514.7C1150.9,507.7 1140.5,496.4 1134.6,482.7C1128.7,469 1127.6,453.7 1131.5,439.3C1141.2,407.9 1184.8,404.6 1200.3,433.8Z" style="fill:white;fill-rule:nonzero;"/>
    <path d="M1187.7,523.5C1179.1,523.2 1170.7,520.6 1163.3,516.1C1149.7,509 1138.9,497.4 1132.8,483.3C1126.7,469.2 1125.6,453.4 1129.7,438.6C1131.9,431.4 1136.3,425 1142.3,420.2C1148.2,415.5 1155.4,412.6 1163,412C1170.8,411.1 1178.7,412.6 1185.6,416.3C1192.5,420 1198.2,425.7 1201.8,432.7L1202.2,432.7L1210,451.9C1211.5,455 1212.6,458.2 1213.3,461.5L1215.1,468.9C1215.5,470.7 1218.8,507.3 1201.1,519.5C1197.1,522.2 1192.5,523.6 1187.7,523.5ZM1167,415.3L1163.3,415.3C1156.5,415.9 1150,418.5 1144.7,422.7C1139.4,427 1135.4,432.7 1133.4,439.3C1129.4,453.3 1130.4,468.2 1136.2,481.6C1142,494.9 1152.2,505.9 1165.2,512.5C1179.6,520.3 1191.1,521.7 1198.8,516.6C1215.1,505.5 1211.4,470 1211.4,469.7L1209.6,462.3C1208.8,459.3 1207.8,456.3 1206.6,453.4L1198.5,434.2C1195.5,428.5 1191,423.7 1185.4,420.4C1179.8,417 1173.5,415.3 1167,415.3Z" style="fill:rgb(2,19,59);fill-rule:nonzero;"/>
    <path d="M1148.2,429C1148.2,429 1211.8,443.4 1210.3,413.5C1208.8,383.6 1189.2,364.4 1140.8,399.5C1138.8,398.2 1136.6,397.3 1134.2,396.9C1131.8,396.5 1129.4,396.7 1127.1,397.4C1124.8,398.1 1122.7,399.2 1120.9,400.8C1119.1,402.4 1117.7,404.3 1116.7,406.5C1116.7,406.5 1046.9,437.9 1116.7,487.4L1130,521.8C1130,521.8 1157.3,512.6 1158.1,490C1158.9,467.4 1148.2,429 1148.2,429Z" style="fill:rgb(2,19,59);fill-rule:nonzero;"/>
    <path d="M1149.7,487.3C1158.5,487.3 1165.6,480.2 1165.6,471.4C1165.6,462.6 1158.5,455.5 1149.7,455.5C1140.9,455.5 1133.8,462.6 1133.8,471.4C1133.8,480.2 1140.9,487.3 1149.7,487.3Z" style="fill:white;fill-rule:nonzero;"/>
    <path d="M1155.2,473.3L1154.5,473.3L1140.8,468.1C1140.1,468.1 1139.3,467 1139.7,465.9C1139.8,465.6 1139.9,465.4 1140.1,465.2C1140.3,465 1140.5,464.8 1140.8,464.7C1141,464.6 1141.3,464.5 1141.6,464.6C1141.9,464.6 1142.1,464.7 1142.4,464.8L1156.1,470C1156.5,470.2 1156.9,470.5 1157.1,470.9C1157.3,471.3 1157.3,471.8 1157.2,472.2C1157,472.6 1156.8,472.9 1156.4,473.1C1156,473.2 1155.6,473.3 1155.2,473.3Z" style="fill:rgb(2,19,59);fill-rule:nonzero;"/>
    <path d="M1150.1,481.1C1149.4,481.1 1148.2,480.4 1148.2,479.6L1146.7,469.6C1146.7,469.1 1146.9,468.7 1147.1,468.3C1147.4,467.9 1147.7,467.6 1148.1,467.4C1148.6,467.4 1149.1,467.6 1149.6,467.9C1150,468.2 1150.3,468.7 1150.4,469.2L1151.9,478.8C1151.9,479.9 1151.2,481 1150.4,481L1150.1,481L1150.1,481.1Z" style="fill:rgb(2,19,59);fill-rule:nonzero;"/>
    <path d="M1187.7,478.8C1182.3,478.8 1177.2,476.7 1173.3,472.8C1169.5,469 1167.4,463.8 1167.4,458.4C1167.1,453.2 1168.8,448.2 1172.1,444.2C1175.4,440.2 1180.1,437.7 1185.3,437.1C1190.4,436.5 1195.6,437.9 1199.7,440.9C1203.8,443.9 1206.7,448.5 1207.6,453.6C1207.9,455.2 1208,456.8 1208,458.4C1208,463.8 1205.8,469 1202,472.8C1198.3,476.7 1193.1,478.8 1187.7,478.8ZM1187.7,441.9C1184.4,441.9 1181.2,442.9 1178.5,444.7C1175.8,446.5 1173.6,449.1 1172.4,452.2C1171.2,455.3 1170.8,458.6 1171.5,461.8C1172.1,465 1173.7,468 1176,470.3C1178.3,472.6 1181.3,474.2 1184.5,474.8C1187.7,475.4 1191.1,475.1 1194.1,473.9C1197.1,472.6 1199.7,470.5 1201.6,467.8C1203.4,465.1 1204.4,461.9 1204.4,458.6C1204.5,457.2 1204.3,455.9 1204,454.5C1203.1,450.9 1201,447.7 1198,445.4C1195.1,443.1 1191.5,441.9 1187.7,441.9Z" style="fill:rgb(2,19,59);fill-rule:nonzero;"/>
    <path d="M1168.9,461.5L1168.2,461.5L1144.2,454.1C1143.9,454 1143.7,453.9 1143.5,453.7C1143.3,453.5 1143.1,453.3 1143,453.1C1142.9,452.9 1142.8,452.6 1142.8,452.3C1142.8,452 1142.9,451.8 1143,451.5C1143.2,451.1 1143.5,450.7 1143.9,450.5C1144.3,450.3 1144.8,450.3 1145.2,450.4L1169.2,457.8C1169.7,458 1170.1,458.4 1170.4,458.9C1170.7,459.4 1170.8,459.9 1170.7,460.4C1170.5,460.8 1170.3,461.1 1169.9,461.3C1169.5,461.5 1169.3,461.5 1168.9,461.5Z" style="fill:rgb(2,19,59);fill-rule:nonzero;"/>
    <path d="M1205.1,454.1C1204.7,454.1 1204.3,454 1203.9,453.7C1203.6,453.4 1203.3,453 1203.2,452.6C1203.2,452.1 1203.3,451.6 1203.6,451.2C1203.9,450.8 1204.3,450.5 1204.7,450.3L1208.8,448.8C1209.2,448.7 1209.7,448.7 1210.1,448.9C1210.5,449.1 1210.8,449.5 1211,449.9C1211.1,450.1 1211.2,450.4 1211.2,450.7C1211.2,451 1211.2,451.2 1211.1,451.5C1211,451.7 1210.8,452 1210.6,452.1C1210.4,452.3 1210.2,452.4 1209.9,452.5L1205.8,454L1205.1,454L1205.1,454.1Z" style="fill:rgb(2,19,59);fill-rule:nonzero;"/>
    <path d="M471.3,1491.9L445.4,1553.6L441,1630.8L633.9,1630.8C633.9,1630.8 651.3,1574.3 588.5,1569.1L612.1,1511.8L471.3,1491.9Z" style="fill:white;fill-rule:nonzero;"/>
    <path d="M633.9,1632.7L441,1632.7L439.5,1632C439.1,1631.6 439.1,1631.3 439.1,1630.5L443.5,1553.7L443.5,1553L469.4,1491.3C469.6,1490.9 469.8,1490.7 470.1,1490.5C470.4,1490.3 470.8,1490.2 471.2,1490.2L612.3,1510.2C612.6,1510.2 612.9,1510.3 613.1,1510.5C613.3,1510.7 613.4,1511 613.4,1511.3C613.7,1511.7 613.8,1512.3 613.8,1512.8L590.9,1567.5C609.7,1569.7 623,1576.4 630.4,1587.8C643,1606.6 635.9,1630.3 635.6,1631.4C635.4,1632.3 635,1632.7 633.9,1632.7ZM442.9,1629L632.8,1629C633.9,1623.8 637.6,1604.6 627.6,1589.8C617.6,1575 606.9,1572.4 588.4,1571C587.7,1570.6 587.3,1570.6 586.9,1569.9C586.6,1569.5 586.5,1568.9 586.5,1568.4L609.4,1513.3L472.3,1493.7L447.2,1553.9L442.9,1629Z" style="fill:rgb(2,19,59);fill-rule:nonzero;"/>
    <path d="M444,1581.4C443.6,1581.3 443.2,1581.1 442.9,1580.9C442.6,1580.6 442.3,1580.3 442.2,1579.9C441.8,1578.8 442.6,1578.1 443.7,1577.7C462.9,1572.5 474.4,1564.4 477.3,1553.3C482.1,1534.5 461.8,1513.4 461.4,1513.4C461.1,1513.1 460.9,1512.6 460.9,1512.1C460.9,1511.6 461.1,1511.2 461.4,1510.8C462.1,1510.1 463.6,1510.1 464,1510.8C464.4,1511.5 486.2,1533.3 480.6,1554C477.3,1566.6 465.1,1575.8 444.4,1581.3L444,1581.3L444,1581.4Z" style="fill:rgb(2,19,59);fill-rule:nonzero;"/>
    <path d="M588.4,1571L555.1,1569.5C554.6,1569.5 554.1,1569.3 553.8,1569C553.5,1568.7 553.3,1568.2 553.3,1567.7C553.3,1567.2 553.5,1566.7 553.8,1566.4C554.1,1566.1 554.6,1565.9 555.1,1565.9L588.4,1567.4C588.9,1567.4 589.4,1567.6 589.7,1567.9C590,1568.2 590.2,1568.7 590.2,1569.2C590.2,1569.7 590,1570.2 589.7,1570.5C589.4,1570.8 588.9,1571 588.4,1571Z" style="fill:rgb(2,19,59);fill-rule:nonzero;"/>
    <path d="M585.5,1533C585.1,1533 584.7,1532.9 584.4,1532.7C584.1,1532.5 583.8,1532.2 583.7,1531.9C583.6,1531.5 583.5,1531.1 583.6,1530.7C583.7,1530.3 583.8,1529.9 584.1,1529.6C588.5,1526.3 624.4,1497.5 636.6,1500C637.4,1500.2 638.1,1500.6 638.8,1501.1C639.5,1501.6 640,1502.2 640.3,1503C640.7,1503.8 640.8,1504.6 640.8,1505.4C640.8,1506.2 640.6,1507.1 640.3,1507.8C635.1,1519.3 590.8,1531.4 586,1532.6L585.5,1533ZM634.3,1503.4C626.9,1503.4 608.4,1515.6 594,1526.7C612.1,1521.2 633.9,1512.7 636.9,1506.4C639.9,1500.1 637.3,1504.9 636.9,1504.6C636.5,1504.2 636.5,1503.9 635.4,1503.9L634.3,1503.4Z" style="fill:rgb(2,19,59);fill-rule:nonzero;"/>
    <path d="M581,1532.6C572.5,1532.6 542.2,1532.2 533.7,1523C532.8,1522.2 532,1521.2 531.6,1520C531.1,1518.8 531,1517.6 531.1,1516.4C531.1,1515.4 531.4,1514.3 531.9,1513.4C532.4,1512.5 533.2,1511.7 534.1,1511.2C544.8,1505.7 580.3,1527.1 584.3,1529.3C584.8,1530 585,1530.7 585,1531.5C584.8,1531.9 584.6,1532.2 584.3,1532.3C584,1532.5 583.6,1532.6 583.2,1532.6L581,1532.6ZM538.9,1513.8L535.9,1514.5C535.5,1514.5 534.8,1515.2 534.8,1516.7C534.7,1517.4 534.8,1518.1 535.1,1518.7C535.4,1519.4 535.8,1519.9 536.3,1520.4C542.2,1526.7 563.3,1528.5 576.2,1528.9C563.7,1521.9 546.7,1513.8 538.9,1513.8Z" style="fill:rgb(2,19,59);fill-rule:nonzero;"/>
    <path d="M598.8,1545.9L558.2,1545.9C557.7,1545.9 557.2,1545.7 556.9,1545.4C556.6,1545.1 556.4,1544.6 556.4,1544.1C556.4,1543.6 556.6,1543.1 556.9,1542.8C557.2,1542.5 557.7,1542.3 558.2,1542.3L598.8,1542.3C599.3,1542.3 599.8,1542.5 600.1,1542.8C600.4,1543.1 600.6,1543.6 600.6,1544.1C600.6,1544.6 600.4,1545.1 600.1,1545.4C599.7,1545.7 599.3,1545.9 598.8,1545.9Z" style="fill:rgb(2,19,59);fill-rule:nonzero;"/>
    <path d="M594,1554.8L560,1554.8C559.5,1554.8 559,1554.6 558.7,1554.3C558.4,1554 558.2,1553.5 558.2,1553C558.2,1552.5 558.4,1552 558.7,1551.7C559,1551.4 559.5,1551.2 560,1551.2L594,1551.2C594.5,1551.2 595,1551.4 595.3,1551.7C595.6,1552 595.8,1552.5 595.8,1553C595.8,1553.5 595.6,1554 595.3,1554.3C594.9,1554.6 594.5,1554.8 594,1554.8Z" style="fill:rgb(2,19,59);fill-rule:nonzero;"/>
    <path d="M636.1,1619.4L441.8,1619.4C441.3,1619.4 440.8,1619.2 440.5,1618.9C440.2,1618.6 440,1618.1 440,1617.6C440,1617.1 440.2,1616.6 440.5,1616.3C440.8,1616 441.3,1615.8 441.8,1615.8L636.1,1615.8C636.6,1615.8 637.1,1616 637.4,1616.3C637.7,1616.6 637.9,1617.1 637.9,1617.6C637.9,1618.1 637.7,1618.6 637.4,1618.9C637.1,1619.2 636.6,1619.4 636.1,1619.4Z" style="fill:rgb(2,19,59);fill-rule:nonzero;"/>
    <path d="M1014.1,1180.8L980.5,1286.8L1195.9,1288.3C1195.9,1288.3 1218.1,1244 1128.7,1210C1055.1,1182.3 1014.1,1180.8 1014.1,1180.8Z" style="fill:white;fill-rule:nonzero;"/>
    <path d="M1195.9,1290.2L980.5,1288.7L979,1288C978.7,1287.4 978.6,1286.8 978.6,1286.2L1012.2,1180.5C1012.3,1180.1 1012.5,1179.7 1012.9,1179.4C1013.2,1179.1 1013.7,1179 1014.1,1179C1014.5,1179 1056.2,1180.5 1129.4,1208.2C1166.3,1222.2 1189.2,1240 1197,1260.3C1201,1269.6 1201.2,1280 1197.7,1289.5L1195.9,1290.2ZM983,1285L1194.7,1286.5C1197.3,1278.4 1196.9,1269.6 1193.6,1261.7C1188.4,1248 1172.5,1228.5 1127.8,1211.8C1062.8,1187 1023.2,1183.4 1015.5,1182.6L983,1285Z" style="fill:rgb(2,19,59);fill-rule:nonzero;"/>
    <path d="M1198.1,1273.6L986.4,1270.6C985.9,1270.6 985.4,1270.4 985.1,1270.1C984.8,1269.8 984.6,1269.3 984.6,1268.8C984.6,1268.3 984.8,1267.8 985.1,1267.5C985.4,1267.2 985.9,1267 986.4,1267L1198.1,1270C1198.6,1270 1199.1,1270.2 1199.4,1270.5C1199.7,1270.8 1200,1271.3 1200,1271.8C1200,1272.3 1199.8,1272.8 1199.4,1273.1C1199,1273.4 1198.6,1273.6 1198.1,1273.6Z" style="fill:rgb(2,19,59);fill-rule:nonzero;"/>
    <path d="M1116.4,1211.9C1116,1211.9 1115.6,1211.8 1115.3,1211.7C1115,1211.5 1114.7,1211.2 1114.6,1210.8C1114.5,1210.6 1114.4,1210.4 1114.4,1210.2C1114.4,1210 1114.4,1209.7 1114.5,1209.5C1114.6,1209.3 1114.7,1209.1 1114.8,1208.9C1115,1208.7 1115.1,1208.6 1115.4,1208.6C1118,1206.7 1180.4,1161.3 1200.7,1169.1C1202.5,1169.7 1204,1170.8 1205.2,1172.2C1206.4,1173.6 1207.1,1175.4 1207.4,1177.2C1207.8,1179.1 1207.8,1181.1 1207.4,1183C1206.9,1184.9 1206.1,1186.7 1204.9,1188.3C1189.6,1208.2 1119.4,1211.5 1116.4,1211.9ZM1195.1,1172C1178.1,1172 1141.5,1194.5 1122.7,1207.8C1140.8,1206.3 1190.3,1201.2 1201.8,1186C1202.7,1184.9 1203.4,1183.6 1203.7,1182.2C1204,1180.8 1204,1179.3 1203.6,1177.9C1203.5,1176.7 1203.1,1175.6 1202.4,1174.7C1201.7,1173.8 1200.7,1173.1 1199.6,1172.7L1195.1,1172Z" style="fill:rgb(2,19,59);fill-rule:nonzero;"/>
    <path d="M1069.5,1220.4C1064.4,1220.8 1059.3,1219.8 1054.7,1217.4C1053.5,1216.6 1052.4,1215.5 1051.7,1214.2C1051,1212.9 1050.6,1211.5 1050.6,1210C1050.4,1208.7 1050.5,1207.3 1051,1206.1C1051.5,1204.9 1052.4,1203.8 1053.5,1203C1065.3,1193.4 1110.8,1206.7 1115.9,1208.2C1116.2,1208.4 1116.5,1208.7 1116.6,1209C1116.8,1209.3 1116.9,1209.7 1116.9,1210C1116.9,1210.4 1116.8,1210.7 1116.6,1211C1116.4,1211.3 1116.2,1211.6 1115.9,1211.8C1114.6,1212.2 1088,1220.4 1069.5,1220.4ZM1068,1203C1062.5,1203 1058,1203.7 1055.8,1206C1055.2,1206.5 1054.7,1207.1 1054.4,1207.8C1054.1,1208.5 1053.9,1209.3 1054,1210.1C1054.1,1210.9 1054.4,1211.7 1054.9,1212.4C1055.4,1213.1 1055.9,1213.7 1056.6,1214.2C1065.5,1220.5 1093.2,1214.6 1108.7,1210.1C1095.4,1206.2 1081.8,1203.8 1068,1203Z" style="fill:rgb(2,19,59);fill-rule:nonzero;"/>
    <path d="M1116.4,1225.2C1115.3,1225.2 1114.6,1224.8 1114.6,1224.1C1114.5,1223.9 1114.4,1223.7 1114.4,1223.4C1114.4,1223.2 1114.5,1222.9 1114.6,1222.7C1114.7,1222.5 1114.9,1222.3 1115.1,1222.1C1115.3,1221.9 1115.5,1221.9 1115.8,1221.8L1141.7,1213.7C1141.9,1213.6 1142.2,1213.5 1142.5,1213.5C1142.8,1213.5 1143.1,1213.6 1143.3,1213.7C1143.5,1213.9 1143.7,1214.1 1143.8,1214.3C1143.9,1214.5 1144,1214.8 1143.9,1215.1C1144,1215.3 1144.1,1215.6 1144.1,1215.8C1144.1,1216 1144.1,1216.3 1143.9,1216.5C1143.8,1216.7 1143.6,1216.9 1143.4,1217.1C1143.2,1217.2 1143,1217.3 1142.7,1217.3L1116.8,1225.1L1116.4,1225.1L1116.4,1225.2Z" style="fill:rgb(2,19,59);fill-rule:nonzero;"/>
    <path d="M1129.4,1231.8C1128.3,1231.8 1127.6,1231.4 1127.6,1230.7C1127.6,1230 1128,1228.5 1128.7,1228.5L1153.1,1221.8C1153.6,1221.6 1154.1,1221.7 1154.6,1221.9C1155.1,1222.1 1155.5,1222.5 1155.7,1222.9C1155.7,1224 1155.3,1225.1 1154.2,1225.1L1129.8,1231.7L1129.4,1231.7L1129.4,1231.8Z" style="fill:rgb(2,19,59);fill-rule:nonzero;"/>
    <path d="M991.9,1252.2C991.5,1252.2 991.1,1252 990.9,1251.8C990.6,1251.5 990.5,1251.1 990.5,1250.8C990.4,1250.6 990.3,1250.3 990.3,1250.1C990.3,1249.9 990.3,1249.6 990.5,1249.4C990.7,1249.2 990.8,1249 991,1248.8C991.2,1248.7 991.4,1248.6 991.7,1248.5C1008,1243.7 1017.2,1237.1 1019.4,1227.8C1021.6,1218.5 1007.9,1199 1007.6,1199C1007.4,1198.8 1007.2,1198.6 1007.1,1198.4C1007,1198.2 1006.9,1197.9 1006.9,1197.6C1006.9,1197.3 1006.9,1197.1 1007,1196.8C1007.1,1196.6 1007.2,1196.3 1007.4,1196.1C1007.6,1195.9 1007.8,1195.8 1008.1,1195.7C1008.4,1195.6 1008.6,1195.6 1008.9,1195.6C1009.2,1195.6 1009.4,1195.7 1009.7,1195.8C1009.9,1195.9 1010.1,1196.1 1010.3,1196.3C1011,1196.7 1026.9,1212.6 1022.9,1228.8C1020.7,1239.1 1010.3,1246.9 993,1252.1L991.9,1252.1L991.9,1252.2Z" style="fill:rgb(2,19,59);fill-rule:nonzero;"/>
    <path d="M1130.5,424.9L1130.1,424.9C1129.7,424.7 1129.3,424.4 1129.1,424C1128.8,423.6 1128.7,423.2 1128.7,422.7C1128.7,422.3 1135.4,380.6 1174.1,375.8C1174.5,375.8 1175,375.9 1175.3,376.2C1175.6,376.5 1175.9,376.8 1176,377.3C1176.1,377.5 1176.2,377.8 1176.2,378.1C1176.2,378.4 1176.1,378.6 1176,378.9C1175.8,379.1 1175.6,379.3 1175.4,379.4C1175.2,379.5 1174.9,379.6 1174.6,379.5C1138.8,383.9 1132.8,421.6 1132.5,423.1C1132.5,423.3 1132.4,423.6 1132.4,423.8C1132.3,424 1132.2,424.2 1132,424.4C1131.8,424.6 1131.6,424.7 1131.4,424.8C1130.9,424.8 1130.7,424.9 1130.5,424.9Z" style="fill:rgb(2,19,59);fill-rule:nonzero;"/>
    <path d="M795.3,1040.4C795.3,1040.4 819.3,1124.6 978.6,1068.9C978.6,1068.9 981.6,1086.3 952,1135.8C952,1135.8 839.7,1142.8 795.3,1040.4Z" style="fill:rgb(2,19,59);fill-rule:nonzero;"/>
    <path d="M1110.5,717.1L1147.1,842.7L1161.5,827.6L1110.5,717.1Z" style="fill:rgb(2,19,59);fill-rule:nonzero;"/>
    <path d="M1281.6,781.8C1280.5,781.8 1279.8,781.4 1279.8,780.3L1272.8,749.3C1272.4,748.6 1273.2,747.5 1274.3,747.1C1274.8,747.1 1275.3,747.2 1275.7,747.5C1276.1,747.8 1276.4,748.2 1276.6,748.6L1283.6,779.6C1283.6,779.8 1283.7,780.1 1283.6,780.3C1283.6,780.5 1283.5,780.8 1283.3,781C1283.2,781.2 1283,781.4 1282.8,781.5C1282.6,781.6 1282.4,781.7 1282.1,781.8L1281.6,781.8Z" style="fill:rgb(2,19,59);fill-rule:nonzero;"/>
    <path d="M1190.7,461.1C1193.8,461.1 1196.2,458.6 1196.2,455.6C1196.2,452.6 1193.7,450.1 1190.7,450.1C1187.6,450.1 1185.2,452.6 1185.2,455.6C1185.2,458.6 1187.6,461.1 1190.7,461.1Z" style="fill:rgb(2,19,59);fill-rule:nonzero;"/>
    <path d="M1207.3,453.7C1207.3,453.7 1218.8,440.4 1219.9,447.4C1221,454.4 1209.9,465.9 1209.9,465.9L1207.3,453.7Z" style="fill:white;fill-rule:nonzero;"/>
    <path d="M1209.9,467.7L1208.4,467.7C1208.1,467.4 1207.9,466.9 1207.9,466.4C1207.9,465.9 1208.1,465.5 1208.4,465.1C1211.4,462.1 1218.7,452.9 1218,448.1L1218,447.4C1214.4,449.4 1211.2,452.2 1208.8,455.5C1208.6,455.7 1208.4,455.9 1208.2,456C1208,456.1 1207.7,456.2 1207.4,456.2C1207.1,456.2 1206.9,456.2 1206.6,456.1C1206.4,456 1206.1,455.9 1205.9,455.7C1205.7,455.5 1205.6,455.3 1205.5,455C1205.4,454.8 1205.4,454.5 1205.4,454.2C1205.4,453.9 1205.5,453.7 1205.6,453.4C1205.7,453.2 1205.9,453 1206.1,452.8C1208.7,449.8 1215,442.5 1219,443.9C1223.1,445.4 1221.2,444.6 1221.6,447.2C1222,449.8 1212.4,466 1210.9,467.5L1209.9,467.5L1209.9,467.7Z" style="fill:rgb(2,19,59);fill-rule:nonzero;"/>
    <path d="M1164.1,514.7L1180.7,547.2L1191.8,521.7C1191.8,521.7 1168.9,520.2 1164.1,514.7Z" style="fill:rgb(2,19,59);fill-rule:nonzero;"/>
    <path d="M1191.8,490.7C1194.4,493.3 1197.8,494.8 1201.4,494.9C1205,495 1208.6,493.8 1211.3,491.4L1191.8,490.7Z" style="fill:white;fill-rule:nonzero;"/>
    <path d="M1202.1,496.9C1197.6,496.7 1193.4,494.9 1190.3,491.7C1190,491.3 1189.9,490.9 1189.9,490.5C1189.9,490.1 1190.1,489.6 1190.4,489.3C1190.7,489 1191.1,488.8 1191.6,488.8C1192,488.8 1192.5,488.9 1192.8,489.2C1195.1,491.5 1198.1,492.8 1201.3,492.9C1204.5,493 1207.7,492 1210.1,489.9C1210.4,489.6 1210.9,489.4 1211.4,489.4C1211.9,489.4 1212.3,489.6 1212.7,489.9C1213.1,490.3 1213.3,490.8 1213.3,491.4C1213.3,491.9 1213.1,492.5 1212.7,492.9C1209.9,495.4 1206.1,496.9 1202.1,496.9Z" style="fill:rgb(2,19,59);fill-rule:nonzero;"/>
</svg>
