<?xml version="1.0" encoding="UTF-8" standalone="no"?>
<!DOCTYPE svg PUBLIC "-//W3C//DTD SVG 1.1//EN" "http://www.w3.org/Graphics/SVG/1.1/DTD/svg11.dtd">
<svg width="100%" height="100%" viewBox="0 0 2000 2000" version="1.1" xmlns="http://www.w3.org/2000/svg" xmlns:xlink="http://www.w3.org/1999/xlink" xml:space="preserve" xmlns:serif="http://www.serif.com/" style="fill-rule:evenodd;clip-rule:evenodd;stroke-linejoin:round;stroke-miterlimit:2;">
    <path d="M1749.7,310.8L149.5,310.8L149.5,1658.4L1749.6,1658.4L1749.6,310.8L1749.7,310.8Z" style="fill:white;fill-rule:nonzero;"/>
    <path d="M1750.1,1660.1L149.5,1660.1C149,1660.1 148.5,1659.9 148.1,1659.5C147.7,1659.1 147.5,1658.6 147.5,1658.1L147.5,310.8C147.5,310.3 147.7,309.8 148.1,309.4C148.5,309 149,308.8 149.5,308.8L1750,308.8C1750.5,308.8 1751,309 1751.4,309.4C1751.8,309.8 1752,310.3 1752,310.8L1752,1658.1C1752,1658.6 1751.8,1659.1 1751.4,1659.5C1751.1,1659.9 1750.6,1660.1 1750.1,1660.1ZM151.5,1656.2L1748.1,1656.2L1748.1,312.7L151.5,312.7L151.5,1656.2Z" style="fill:rgb(2,19,59);fill-rule:nonzero;"/>
    <path d="M1750.1,394.2L149.5,394.2C149,394.2 148.5,394 148.1,393.6C147.7,393.2 147.5,392.7 147.5,392.2C147.6,391.7 147.8,391.3 148.2,390.9C148.5,390.6 149,390.3 149.5,390.2L1750,390.2C1750.5,390.3 1750.9,390.5 1751.3,390.9C1751.6,391.2 1751.9,391.7 1752,392.2C1752,392.7 1751.8,393.2 1751.4,393.6C1751.1,394 1750.6,394.2 1750.1,394.2Z" style="fill:rgb(2,19,59);fill-rule:nonzero;"/>
    <path d="M588.8,1619.4L213.5,1619.4C213,1619.4 212.5,1619.2 212.1,1618.8C211.7,1618.4 211.5,1617.9 211.5,1617.4L211.5,451.2C211.5,450.7 211.7,450.2 212.1,449.8C212.5,449.4 213,449.2 213.5,449.2L588.8,449.2C589.3,449.2 589.8,449.4 590.2,449.8C590.6,450.2 590.8,450.7 590.8,451.2L590.8,1617.5C590.8,1618 590.6,1618.5 590.2,1618.9C589.8,1619.2 589.3,1619.4 588.8,1619.4ZM215.4,1615.5L586.8,1615.5L586.8,453.1L215.4,453.1L215.4,1615.5Z" style="fill:rgb(2,19,59);fill-rule:nonzero;"/>
    <path d="M1423.2,348C1446.8,348 1465.9,328.9 1465.9,305.4C1465.9,281.9 1446.8,262.8 1423.2,262.8C1399.6,262.8 1380.6,281.9 1380.6,305.4C1380.6,328.9 1399.6,348 1423.2,348Z" style="fill:rgb(202,202,202);fill-rule:nonzero;"/>
    <path d="M1400.7,359.7C1392,359.7 1383.5,357.1 1376.3,352.3C1369.1,347.5 1363.4,340.6 1360,332.6C1357.7,327.3 1356.5,321.5 1356.4,315.7C1356.3,309.9 1357.4,304.1 1359.6,298.7C1361.8,293.3 1365,288.4 1369,284.2C1373.1,280 1377.9,276.7 1383.3,274.4C1394.1,269.7 1406.4,269.6 1417.4,273.9C1428.4,278.3 1437.2,286.8 1441.9,297.6C1444.2,303 1445.4,308.7 1445.4,314.6C1445.5,320.4 1444.3,326.2 1442.1,331.6C1439.9,337 1436.7,341.9 1432.6,346.1C1428.5,350.2 1423.6,353.5 1418.2,355.8C1412.7,358.4 1406.8,359.7 1400.7,359.7ZM1400.7,274.4C1395.2,274.4 1389.8,275.6 1384.8,277.9C1379.9,279.9 1375.4,282.9 1371.7,286.7C1368,290.5 1365,295 1363.1,300C1360.2,307.5 1359.5,315.6 1361.2,323.5C1362.9,331.4 1366.9,338.5 1372.6,344.1C1378.3,349.7 1385.7,353.5 1393.5,354.9C1401.4,356.4 1409.5,355.5 1416.9,352.3C1421.8,350.2 1426.2,347.1 1429.8,343.3C1433.5,339.5 1436.4,335 1438.3,330.1C1440.3,325.2 1441.2,319.9 1441.1,314.6C1441,309.3 1439.9,304.1 1437.7,299.2C1434.6,291.9 1429.5,285.6 1422.8,281.2C1416.4,276.7 1408.7,274.4 1400.7,274.4Z" style="fill:rgb(2,19,59);fill-rule:nonzero;"/>
    <path d="M1780.3,229.8L1778.4,229L1763.7,205.7C1763.4,205.2 1763.4,204.7 1763.5,204.2C1763.6,203.7 1764,203.3 1764.5,203C1765,202.7 1765.5,202.7 1766,202.8C1766.5,202.9 1766.9,203.3 1767.2,203.7L1781.9,226.6C1782.3,227.8 1782.3,228.9 1781.1,229.3L1780.3,229.8Z" style="fill:rgb(2,19,59);fill-rule:nonzero;"/>
    <path d="M58.8,814.1C68.9,814.1 77,805.9 77,795.9C77,785.9 68.8,777.7 58.8,777.7C48.8,777.7 40.6,785.9 40.6,795.9C40.6,805.9 48.7,814.1 58.8,814.1Z" style="fill:rgb(202,202,202);fill-rule:nonzero;"/>
    <path d="M46.8,816C44.2,816 41.6,815.5 39.1,814.5C36.7,813.5 34.5,812 32.6,810.1C30.8,808.2 29.3,806 28.3,803.6C27.3,801.2 26.9,798.5 26.9,795.9C26.9,791.9 28.1,788 30.3,784.7C32.5,781.4 35.7,778.8 39.4,777.3C43.1,775.8 47.2,775.4 51.1,776.2C55,777 58.6,779 61.4,781.8C64.2,784.7 66.1,788.3 66.8,792.2C67.5,796.1 67.1,800.2 65.5,803.9C63.9,807.6 61.3,810.7 57.9,812.9C54.7,815 50.8,816.1 46.8,816ZM46.8,779.6C42.5,779.6 38.3,781.3 35.3,784.4C32.2,787.5 30.5,791.6 30.5,795.9C30.5,800.2 32.2,804.4 35.3,807.4C38.4,810.5 42.5,812.2 46.8,812.2C51.1,812.2 55.3,810.5 58.3,807.4C61.4,804.3 63.1,800.2 63.1,795.9C63.1,791.6 61.4,787.4 58.3,784.4C55.2,781.3 51.1,779.6 46.8,779.6Z" style="fill:rgb(2,19,59);fill-rule:nonzero;"/>
    <path d="M872.5,1085.6L827,1059.4L800.8,1105L846.3,1131.2L872.5,1085.6Z" style="fill:rgb(51,80,163);fill-rule:nonzero;"/>
    <path d="M859.8,1128.1L859,1128.1L813.6,1102.1C812.4,1101.3 812,1100.2 812.8,1099.4L838.8,1054C839.1,1053.6 839.6,1053.4 840,1053.2C840.5,1053.1 841,1053.1 841.5,1053.2L886.9,1079.6L888.1,1080.8C888.1,1081 888.1,1081.2 888,1081.4C887.9,1081.6 887.8,1081.8 887.7,1081.9L861.7,1127.7L859.8,1128.1ZM817.2,1099.4L859.1,1123.4L883.5,1081.5L841.6,1057.1L817.2,1099.4Z" style="fill:rgb(2,19,59);fill-rule:nonzero;"/>
    <path d="M1680.3,582.2C1680,582.2 1679.7,582.1 1679.4,582C1679.1,581.9 1678.9,581.7 1678.7,581.4C1678.4,581 1678.3,580.5 1678.3,580C1678.4,579.5 1678.6,579 1679.1,578.7L1786.9,511.2C1787.3,510.9 1787.8,510.8 1788.3,510.8C1788.8,510.9 1789.3,511.1 1789.6,511.6C1789.8,512.1 1789.8,512.6 1789.7,513.1C1789.6,513.6 1789.3,514 1788.8,514.3L1681.4,581.8L1680.3,582.2Z" style="fill:rgb(2,19,59);fill-rule:nonzero;"/>
    <path d="M193.3,1256.8L192.5,1256.8L110.3,1207.2C109.8,1207 109.5,1206.5 109.4,1206C109.3,1205.5 109.3,1204.9 109.6,1204.5C109.9,1204 110.3,1203.7 110.8,1203.6C111.3,1203.4 111.9,1203.5 112.3,1203.8L194.5,1253.4C194.9,1253.7 195.2,1254.2 195.3,1254.7C195.4,1255.2 195.2,1255.7 194.9,1256.1L193.3,1256.8Z" style="fill:rgb(2,19,59);fill-rule:nonzero;"/>
    <path d="M213.5,1777.2L212.7,1777.2C212.2,1777 211.8,1776.5 211.6,1776C211.4,1775.5 211.4,1774.9 211.5,1774.4L222,1742.6C222.2,1742.1 222.5,1741.8 222.9,1741.6C223.3,1741.4 223.8,1741.3 224.3,1741.5C224.6,1741.5 224.8,1741.6 225,1741.8C225.2,1742 225.4,1742.1 225.5,1742.4C225.6,1742.6 225.7,1742.9 225.7,1743.1C225.7,1743.4 225.6,1743.6 225.5,1743.8L215.4,1775.6C215.3,1776 215.1,1776.4 214.7,1776.7C214.4,1777 214,1777.2 213.5,1777.2Z" style="fill:rgb(58,129,225);fill-rule:nonzero;"/>
    <path d="M267.4,519.4L441.5,519.4C461.7,519.4 481,527.4 495.2,541.7C509.5,556 517.5,575.3 517.5,595.4L517.5,837L267.4,837L267.4,519.4Z" style="fill:rgb(51,80,163);fill-rule:nonzero;"/>
    <path d="M434.1,563.6L350.7,563.6C350.2,563.6 349.7,563.4 349.3,563C348.9,562.6 348.7,562.1 348.7,561.6C348.7,561.1 348.9,560.6 349.3,560.2C349.7,559.8 350.2,559.6 350.7,559.6L434.1,559.6C434.6,559.6 435.1,559.8 435.5,560.2C435.9,560.6 436.1,561.1 436.1,561.6C436.1,562.1 435.9,562.6 435.5,563C435.1,563.4 434.6,563.6 434.1,563.6Z" style="fill:rgb(2,19,59);fill-rule:nonzero;"/>
    <rect x="306.1" y="584.9" width="35.3" height="35.4" style="fill:rgb(202,202,202);fill-rule:nonzero;"/>
    <path d="M341.4,696.2L306.1,696.2C305.6,696.2 305.1,696 304.7,695.6C304.3,695.2 304.1,694.7 304.1,694.2L304.1,659C304.1,658.5 304.3,658 304.7,657.6C305.1,657.2 305.6,657 306.1,657L341.4,657C341.9,657 342.4,657.2 342.8,657.6C343.2,658 343.4,658.5 343.4,659L343.4,694.3C343.4,694.8 343.2,695.3 342.8,695.7C342.5,696 342,696.2 341.4,696.2ZM308.1,692.3L339.5,692.3L339.5,660.9L308.1,660.9L308.1,692.3Z" style="fill:rgb(2,19,59);fill-rule:nonzero;"/>
    <rect x="306.1" y="735.4" width="35.3" height="35.4" style="fill:rgb(247,174,56);fill-rule:nonzero;"/>
    <path d="M472.9,604.3L360.8,604.3C360.3,604.3 359.8,604.1 359.4,603.7C359,603.3 358.8,602.8 358.8,602.3C358.8,601.8 359,601.3 359.4,600.9C359.8,600.5 360.3,600.3 360.8,600.3L472.9,600.3C473.4,600.4 473.8,600.6 474.2,601C474.5,601.3 474.8,601.8 474.9,602.3C474.9,602.8 474.7,603.3 474.3,603.7C473.9,604.1 473.4,604.3 472.9,604.3Z" style="fill:rgb(2,19,59);fill-rule:nonzero;"/>
    <path d="M474.4,680.3L362.4,680.3C361.9,680.3 361.4,680.1 361,679.7C360.6,679.3 360.4,678.8 360.4,678.3C360.4,677.8 360.6,677.3 361,676.9C361.4,676.5 361.9,676.3 362.4,676.3L474.5,676.3C475,676.3 475.5,676.5 475.9,676.9C476.3,677.3 476.5,677.8 476.5,678.3C476.5,678.8 476.3,679.3 475.9,679.7C475.4,680.1 475,680.3 474.4,680.3Z" style="fill:rgb(2,19,59);fill-rule:nonzero;"/>
    <path d="M474.4,754.7L362.4,754.7C361.9,754.7 361.4,754.5 361,754.1C360.6,753.7 360.4,753.2 360.4,752.7C360.4,752.2 360.6,751.7 361,751.3C361.4,750.9 361.9,750.7 362.4,750.7L474.5,750.7C475,750.8 475.4,751 475.8,751.4C476.1,751.7 476.4,752.2 476.5,752.7C476.5,753.2 476.3,753.7 475.9,754.1C475.4,754.5 475,754.7 474.4,754.7Z" style="fill:rgb(2,19,59);fill-rule:nonzero;"/>
    <path d="M514,580.3L459.7,580.3C459.2,580.3 458.7,580.1 458.3,579.7C457.9,579.3 457.7,578.8 457.7,578.3L457.7,521.7C457.7,521.2 457.9,520.7 458.3,520.3C458.7,519.9 459.2,519.7 459.7,519.7C460.2,519.7 460.7,519.9 461.1,520.3C461.5,520.7 461.7,521.2 461.7,521.7L461.7,576.4L514,576.4C514.5,576.4 515,576.6 515.4,577C515.8,577.4 516,577.9 516,578.4C516,578.9 515.8,579.4 515.4,579.8C515,580.1 514.5,580.3 514,580.3Z" style="fill:rgb(2,19,59);fill-rule:nonzero;"/>
    <path d="M332.1,1449.6C331.6,1449.6 331.1,1449.4 330.7,1449C330.3,1448.6 330.1,1448.2 330.1,1447.6L330.1,1300.7C330.1,1300.2 330.3,1299.7 330.7,1299.3C331.1,1298.9 331.6,1298.7 332.1,1298.7C332.6,1298.7 333.1,1298.9 333.5,1299.3C333.9,1299.7 334.1,1300.2 334.1,1300.7L334.1,1447.6C334.1,1448.1 333.9,1448.6 333.5,1449C333.1,1449.3 332.7,1449.6 332.1,1449.6Z" style="fill:rgb(2,19,59);fill-rule:nonzero;"/>
    <path d="M450,1449.6C449.5,1449.6 449,1449.4 448.6,1449C448.2,1448.6 448,1448.2 448,1447.6L448,1300.7C448,1300.2 448.2,1299.7 448.6,1299.3C449,1298.9 449.5,1298.7 450,1298.7C450.5,1298.7 451,1298.9 451.4,1299.3C451.8,1299.7 452,1300.2 452,1300.7L452,1447.6C452,1448.1 451.8,1448.6 451.4,1449C451,1449.3 450.5,1449.6 450,1449.6Z" style="fill:rgb(2,19,59);fill-rule:nonzero;"/>
    <path d="M461.3,1313.8L287.6,1313.8C287.1,1313.8 286.6,1313.6 286.2,1313.2C285.8,1312.8 285.6,1312.3 285.6,1311.8C285.6,1311.3 285.8,1310.8 286.2,1310.4C286.6,1310 287.1,1309.8 287.6,1309.8L461.3,1309.8C461.8,1309.8 462.3,1310 462.7,1310.4C463.1,1310.8 463.3,1311.3 463.3,1311.8C463.3,1312.3 463.1,1312.8 462.7,1313.2C462.3,1313.6 461.8,1313.8 461.3,1313.8Z" style="fill:rgb(2,19,59);fill-rule:nonzero;"/>
    <path d="M461.3,1343.7L287.6,1342.2C287.1,1342.2 286.6,1342 286.2,1341.6C285.8,1341.2 285.6,1340.8 285.6,1340.2C285.6,1339.7 285.8,1339.2 286.2,1338.8C286.6,1338.4 287.1,1338.2 287.6,1338.2L461.3,1339.7C461.8,1339.7 462.3,1339.9 462.7,1340.3C463.1,1340.7 463.3,1341.2 463.3,1341.7C463.3,1342.2 463.1,1342.7 462.7,1343.1C462.3,1343.5 461.8,1343.7 461.3,1343.7Z" style="fill:rgb(2,19,59);fill-rule:nonzero;"/>
    <path d="M474.8,1427.4L287.6,1427.4C287.1,1427.4 286.6,1427.2 286.2,1426.8C285.8,1426.4 285.6,1426 285.6,1425.4C285.6,1424.9 285.8,1424.4 286.2,1424C286.6,1423.6 287.1,1423.4 287.6,1423.4L474.9,1423.4C475.4,1423.4 475.9,1423.6 476.3,1424C476.7,1424.4 476.9,1424.9 476.9,1425.4C476.9,1425.9 476.7,1426.4 476.3,1426.8C475.8,1427.2 475.3,1427.4 474.8,1427.4Z" style="fill:rgb(2,19,59);fill-rule:nonzero;"/>
    <path d="M333.3,1427.4L332.5,1427.4C332,1427.2 331.6,1426.8 331.4,1426.3C331.2,1425.8 331.2,1425.2 331.3,1424.7L374.3,1311.1C374.3,1310.9 374.4,1310.6 374.6,1310.4C374.7,1310.2 374.9,1310 375.2,1309.9C375.4,1309.8 375.7,1309.7 375.9,1309.7C376.2,1309.7 376.4,1309.8 376.6,1309.9C376.9,1310 377.1,1310.1 377.3,1310.3C377.5,1310.5 377.7,1310.7 377.8,1311C377.9,1311.3 378,1311.5 378,1311.8C378,1312.1 377.9,1312.4 377.8,1312.6L335.2,1426.2C335,1426.6 334.8,1426.9 334.4,1427.1C334.1,1427.4 333.7,1427.5 333.3,1427.4Z" style="fill:rgb(2,19,59);fill-rule:nonzero;"/>
    <path d="M404.3,1383.2L376.4,1383.2L374.5,1382.4C374.3,1382.1 374.2,1381.8 374.2,1381.4C374.2,1381 374.3,1380.7 374.5,1380.4L389.2,1343.9C389.4,1343.6 389.7,1343.3 390,1343.1C390.3,1342.9 390.7,1342.8 391.1,1342.8C391.5,1342.8 391.9,1342.9 392.2,1343.1C392.5,1343.3 392.8,1343.5 393,1343.9L405.8,1380.4C406,1380.7 406.1,1381 406.1,1381.4C406.1,1381.7 406,1382.1 405.8,1382.4L404.3,1383.2ZM379.1,1379.4L401.6,1379.4L391.1,1350.3L379.1,1379.4Z" style="fill:rgb(2,19,59);fill-rule:nonzero;"/>
    <path d="M362.4,1427.4L361.2,1427.4C360.8,1427.2 360.5,1426.8 360.4,1426.4C360.3,1426 360.3,1425.5 360.4,1425.1L371.6,1402.6C371.6,1401.8 372.4,1401.4 373.2,1401.4L410,1401.4C410.3,1401.4 410.7,1401.6 410.9,1401.8C411.2,1402 411.4,1402.3 411.5,1402.6L423.1,1425.1C423.3,1425.5 423.3,1426 423.1,1426.4C423,1426.8 422.7,1427.2 422.3,1427.4C422.1,1427.6 421.9,1427.8 421.6,1427.9C421.3,1428 421,1428 420.7,1427.9C420.4,1427.8 420.2,1427.7 420,1427.4C419.8,1427.2 419.7,1426.9 419.6,1426.6L408.4,1405.3L374.3,1405.3L363.8,1426.6C363.6,1426.8 363.4,1427 363.1,1427.2C363,1427.4 362.7,1427.4 362.4,1427.4Z" style="fill:rgb(2,19,59);fill-rule:nonzero;"/>
    <path d="M503.5,1449.6L281.4,1449.6C280.9,1449.6 280.4,1449.4 280,1449C279.6,1448.6 279.4,1448.2 279.4,1447.6L279.4,1300.7C279.4,1300.2 279.6,1299.7 280,1299.3C280.4,1298.9 280.9,1298.7 281.4,1298.7L503.6,1298.7C504.1,1298.7 504.6,1298.9 505,1299.3C505.4,1299.7 505.6,1300.2 505.6,1300.7L505.6,1447.6C505.6,1448.1 505.4,1448.6 505,1449C504.5,1449.3 504,1449.6 503.5,1449.6ZM283.3,1445.7L501.6,1445.7L501.6,1302.6L283.3,1302.6L283.3,1445.7Z" style="fill:rgb(2,19,59);fill-rule:nonzero;"/>
    <path d="M807.5,853.6C807,853.6 806.5,853.4 806.1,853C805.7,852.6 805.5,852.1 805.5,851.6L805.5,466.3C805.6,465.8 805.8,465.4 806.2,465C806.5,464.7 807,464.4 807.5,464.3C808,464.3 808.5,464.5 808.9,464.9C809.3,465.3 809.5,465.8 809.5,466.3L809.5,851.7C809.5,852.2 809.3,852.7 808.9,853.1C808.5,853.4 808,853.6 807.5,853.6Z" style="fill:rgb(2,19,59);fill-rule:nonzero;"/>
    <path d="M807.5,559.3C807,559.3 806.5,559.1 806.1,558.7C805.7,558.3 805.5,557.8 805.5,557.3C805.6,556.8 805.8,556.4 806.2,556C806.5,555.7 807,555.4 807.5,555.3L1288.7,553.7C1289.2,553.7 1289.7,553.9 1290.1,554.3C1290.5,554.7 1290.7,555.2 1290.7,555.7C1290.7,556.2 1290.5,556.7 1290.1,557.1C1289.7,557.5 1289.2,557.7 1288.7,557.7L807.5,559.3Z" style="fill:rgb(2,19,59);fill-rule:nonzero;"/>
    <path d="M1091.3,628.7C1090.8,628.7 1090.3,628.5 1089.9,628.1C1089.5,627.7 1089.3,627.2 1089.3,626.7L1089.3,484.1C1089.3,483.6 1089.5,483.1 1089.9,482.7C1090.3,482.3 1090.8,482.1 1091.3,482.1C1091.8,482.1 1092.3,482.3 1092.7,482.7C1093.1,483.1 1093.3,483.6 1093.3,484.1L1093.3,626.8C1093.2,627.3 1093,627.7 1092.6,628.1C1092.2,628.4 1091.8,628.7 1091.3,628.7Z" style="fill:rgb(2,19,59);fill-rule:nonzero;"/>
    <rect x="998.6" y="436.8" width="185.4" height="47.2" style="fill:white;fill-rule:nonzero;"/>
    <path d="M1183.6,486.1L998.6,486.1C998.1,486.1 997.6,485.9 997.2,485.5C996.8,485.1 996.6,484.6 996.6,484.1L996.6,436.8C996.6,436.3 996.8,435.8 997.2,435.4C997.6,435 998.1,434.8 998.6,434.8L1183.5,434.8C1184,434.8 1184.5,435 1184.9,435.4C1185.3,435.8 1185.5,436.3 1185.5,436.8L1185.5,484.1C1185.5,484.6 1185.3,485.1 1184.9,485.5C1184.6,485.9 1184.1,486.1 1183.6,486.1ZM1000.6,482.2L1181.7,482.2L1181.7,438.8L1000.6,438.8L1000.6,482.2Z" style="fill:rgb(2,19,59);fill-rule:nonzero;"/>
    <path d="M1167.7,629.5L1014.9,629.5C1005.9,629.5 998.6,636.8 998.6,645.8L998.6,660.5C998.6,669.5 1005.9,676.8 1014.9,676.8L1167.7,676.8C1176.7,676.8 1184,669.5 1184,660.5L1184,645.8C1184,636.8 1176.7,629.5 1167.7,629.5Z" style="fill:rgb(2,19,59);fill-rule:nonzero;"/>
    <rect x="715.2" y="629.5" width="185.3" height="47.2" style="fill:rgb(247,174,56);fill-rule:nonzero;"/>
    <path d="M878.8,436.8L736.9,436.8C724.9,436.8 715.2,446.5 715.2,458.5L715.2,462.3C715.2,474.3 724.9,484 736.9,484L878.8,484C890.8,484 900.5,474.3 900.5,462.3L900.5,458.5C900.5,446.5 890.8,436.8 878.8,436.8Z" style="fill:white;fill-rule:nonzero;"/>
    <path d="M878.4,486.1L736.9,486.1C733.8,486.1 730.7,485.5 727.8,484.3C724.9,483.1 722.3,481.3 720.1,479.1C717.9,476.9 716.2,474.2 715,471.3C713.8,468.4 713.3,465.3 713.3,462.1L713.3,458.6C713.3,452.3 715.8,446.3 720.2,441.9C724.6,437.5 730.7,435 736.9,435L878.4,435C884.7,435 890.7,437.5 895.1,441.9C899.5,446.3 902,452.4 902,458.6L902,462.1C902.1,465.2 901.5,468.4 900.3,471.3C899.1,474.2 897.4,476.9 895.2,479.1C893,481.3 890.4,483.1 887.5,484.3C884.7,485.4 881.6,486.1 878.4,486.1ZM736.9,438.8C731.7,438.8 726.6,440.9 722.9,444.6C719.2,448.3 717.1,453.3 717.1,458.6L717.1,462.1C717,464.7 717.5,467.3 718.5,469.8C719.5,472.2 720.9,474.5 722.8,476.3C724.6,478.2 726.8,479.7 729.3,480.7C731.7,481.7 734.3,482.2 737,482.2L878.5,482.2C881.1,482.2 883.7,481.7 886.2,480.7C888.6,479.7 890.8,478.2 892.7,476.3C894.5,474.4 896,472.2 897,469.8C898,467.4 898.4,464.7 898.4,462.1L898.4,458.6C898.4,456 897.9,453.4 896.9,451C895.9,448.6 894.4,446.4 892.6,444.6C890.8,442.8 888.6,441.3 886.2,440.3C883.8,439.3 881.2,438.8 878.6,438.8L736.9,438.8Z" style="fill:rgb(2,19,59);fill-rule:nonzero;"/>
    <path d="M1436,534.1L1293.3,534.1C1281.5,534.1 1272,543.6 1272,555.4L1272,560C1272,571.8 1281.5,581.3 1293.3,581.3L1436,581.3C1447.8,581.3 1457.3,571.8 1457.3,560L1457.3,555.4C1457.3,543.7 1447.8,534.1 1436,534.1Z" style="fill:rgb(51,80,163);fill-rule:nonzero;"/>
    <path d="M710.6,865.3L807.5,822.3L904.8,865.3L807.5,909.9L710.6,865.3Z" style="fill:rgb(202,202,202);fill-rule:nonzero;"/>
    <path d="M868.8,462.4L757.5,462.4C757,462.4 756.5,462.2 756.1,461.8C755.7,461.4 755.5,460.9 755.5,460.4C755.5,459.9 755.7,459.4 756.1,459C756.5,458.6 757,458.4 757.5,458.4L868.8,458.4C869.3,458.4 869.8,458.6 870.2,459C870.6,459.4 870.8,459.9 870.8,460.4C870.7,460.9 870.5,461.3 870.1,461.7C869.7,462.1 869.2,462.3 868.8,462.4Z" style="fill:rgb(2,19,59);fill-rule:nonzero;"/>
    <path d="M862.9,655.1L766.4,655.1C765.9,655.1 765.4,654.9 765,654.5C764.6,654.1 764.4,653.6 764.4,653.1C764.4,652.6 764.6,652.1 765,651.7C765.4,651.3 765.9,651.1 766.4,651.1L862.9,651.1C863.4,651.1 863.9,651.3 864.3,651.7C864.7,652.1 864.9,652.6 864.9,653.1C864.9,653.6 864.7,654.1 864.3,654.5C863.9,654.9 863.5,655.1 862.9,655.1Z" style="fill:rgb(2,19,59);fill-rule:nonzero;"/>
    <path d="M350.8,251.5L349.2,251.5L316.6,218.5C316.3,218.1 316.2,217.7 316.2,217.2C316.2,216.7 316.4,216.3 316.8,216C317.1,215.7 317.6,215.5 318,215.4C318.5,215.4 318.9,215.5 319.3,215.8L351.9,248.8C352.3,249.2 352.5,249.6 352.5,250.2C352.5,250.7 352.3,251.2 351.9,251.6L350.8,251.6L350.8,251.5Z" style="fill:rgb(2,19,59);fill-rule:nonzero;"/>
    <path d="M1584.9,574.5C1584.1,574.5 1583.3,573.7 1583,572.6L1579.9,521.8C1579.9,521.3 1580.1,520.8 1580.5,520.4C1580.9,520 1581.3,519.8 1581.9,519.8C1582.1,519.7 1582.4,519.7 1582.6,519.8C1582.8,519.8 1583.1,520 1583.3,520.1C1583.5,520.3 1583.6,520.4 1583.7,520.7C1583.8,520.9 1583.8,521.2 1583.8,521.4L1586.9,572.2C1587,572.5 1587,572.7 1586.9,573C1586.9,573.3 1586.8,573.5 1586.6,573.7C1586.4,573.9 1586.3,574.1 1586,574.2C1585.7,574.3 1585.5,574.4 1585.3,574.5L1584.9,574.5Z" style="fill:rgb(58,129,225);fill-rule:nonzero;"/>
    <path d="M1135,1779.9L1084.9,1748.2L1053.3,1798.2L1103.4,1829.9L1135,1779.9Z" style="fill:rgb(202,202,202);fill-rule:nonzero;"/>
    <path d="M1063.4,1831.5L1062.2,1831.5L1012.2,1799.7C1011,1799.3 1011,1798.1 1011.4,1797L1043.2,1747C1043.3,1746.8 1043.5,1746.6 1043.7,1746.5C1043.9,1746.4 1044.1,1746.3 1044.3,1746.3L1045,1746.3C1045.2,1746.4 1045.4,1746.5 1045.6,1746.6L1096,1778C1096.4,1778.3 1096.7,1778.8 1096.8,1779.3C1096.9,1779.8 1096.7,1780.3 1096.4,1780.7L1065,1830.7C1064.8,1830.9 1064.6,1831.1 1064.3,1831.3C1064,1831.4 1063.7,1831.5 1063.4,1831.5ZM1015.7,1797.3L1062.6,1826.8L1092.1,1780.3L1045.2,1750.8L1015.7,1797.3Z" style="fill:rgb(2,19,59);fill-rule:nonzero;"/>
    <path d="M1440.7,1777.2C1439.9,1777.2 1439.5,1776.8 1439.1,1776L1425.9,1750.4C1425.7,1749.9 1425.6,1749.4 1425.7,1748.9C1425.8,1748.4 1426.2,1748 1426.6,1747.7C1427.1,1747.4 1427.6,1747.4 1428.1,1747.5C1428.6,1747.6 1429,1748 1429.3,1748.4L1442.5,1774.4C1442.6,1774.6 1442.7,1774.9 1442.7,1775.1C1442.7,1775.3 1442.6,1775.6 1442.5,1775.8C1442.4,1776 1442.2,1776.2 1442,1776.4C1441.8,1776.6 1441.5,1776.6 1441.3,1776.7C1441.4,1777.2 1441,1777.2 1440.7,1777.2Z" style="fill:rgb(2,19,59);fill-rule:nonzero;"/>
    <path d="M773.4,1800.8L772.6,1800.8C772.3,1800.7 772.1,1800.6 771.9,1800.4C771.7,1800.2 771.5,1800 771.4,1799.7C771.3,1799.4 771.2,1799.2 771.2,1798.9C771.2,1798.6 771.3,1798.3 771.4,1798.1L786.9,1761.7C786.9,1761.4 787,1761.2 787.2,1761C787.3,1760.8 787.5,1760.6 787.8,1760.5C788,1760.4 788.3,1760.3 788.5,1760.3C788.8,1760.3 789,1760.4 789.2,1760.5C789.5,1760.6 789.7,1760.7 789.9,1760.9C790.1,1761.1 790.3,1761.3 790.4,1761.6C790.5,1761.9 790.6,1762.1 790.6,1762.4C790.6,1762.7 790.5,1763 790.4,1763.2L774.9,1799.7C774.5,1800.4 774.1,1800.8 773.4,1800.8Z" style="fill:rgb(2,19,59);fill-rule:nonzero;"/>
    <path d="M1576.3,1676.8C1588.9,1676.8 1599.2,1666.6 1599.2,1653.9C1599.2,1641.3 1589,1631 1576.3,1631C1563.6,1631 1553.4,1641.2 1553.4,1653.9C1553.5,1666.5 1563.7,1676.8 1576.3,1676.8Z" style="fill:rgb(51,80,163);fill-rule:nonzero;"/>
    <path d="M1557.7,1695.4C1551.2,1695.4 1545,1692.8 1540.4,1688.2C1535.8,1683.6 1533.2,1677.4 1533.2,1670.9C1533.2,1664.4 1535.8,1658.1 1540.3,1653.5C1544.9,1648.9 1551.1,1646.2 1557.6,1646.1C1564.2,1646.1 1570.5,1648.7 1575.2,1653.4C1579.8,1658.1 1582.5,1664.4 1582.5,1670.9C1582.4,1677.4 1579.7,1683.6 1575.1,1688.2C1570.5,1692.8 1564.2,1695.4 1557.7,1695.4ZM1557.7,1650C1553.6,1650 1549.5,1651.2 1546.1,1653.5C1542.7,1655.8 1540,1659.1 1538.4,1662.9C1536.8,1666.7 1536.4,1670.9 1537.2,1675C1538,1679.1 1540,1682.8 1542.9,1685.7C1545.8,1688.6 1549.6,1690.6 1553.6,1691.4C1557.7,1692.2 1561.9,1691.8 1565.7,1690.2C1569.5,1688.6 1572.8,1685.9 1575.1,1682.5C1577.4,1679.1 1578.6,1675 1578.6,1670.9C1578.6,1665.4 1576.4,1660 1572.5,1656.1C1568.6,1652.2 1563.3,1650 1557.7,1650Z" style="fill:rgb(2,19,59);fill-rule:nonzero;"/>
    <path d="M1048.3,935.4L1046.7,935.4L1022.3,914.1C1022,913.7 1021.8,913.3 1021.8,912.7C1021.8,912.2 1022,911.7 1022.3,911.3C1022.4,911 1022.6,910.8 1022.8,910.6C1023,910.4 1023.3,910.3 1023.6,910.3C1023.9,910.3 1024.2,910.3 1024.4,910.4C1024.7,910.5 1024.9,910.7 1025.1,910.9L1049.5,932.6C1050.3,933 1050.3,934.5 1049.5,935.3L1048.3,935.3L1048.3,935.4Z" style="fill:rgb(2,19,59);fill-rule:nonzero;"/>
    <path d="M938.2,235.2L937.4,235.2C936.9,235 936.5,234.5 936.3,234.1C936.1,233.6 936.1,233.1 936.2,232.5L948.2,208.8C948.4,208.4 948.8,208.1 949.2,208C949.6,207.9 950.1,207.9 950.5,208C950.8,208.1 951,208.2 951.2,208.4C951.4,208.6 951.6,208.8 951.7,209.1C951.8,209.4 951.9,209.6 951.9,209.9C951.9,210.2 951.8,210.5 951.7,210.7L939.7,234C939.7,234.8 938.9,235.2 938.2,235.2Z" style="fill:rgb(58,129,225);fill-rule:nonzero;"/>
    <path d="M1535.2,1106L1576.3,1059.9L1599.2,1106L1535.2,1106Z" style="fill:rgb(202,202,202);fill-rule:nonzero;"/>
    <path d="M1599.2,1125.4L1535.2,1125.4C1534.8,1125.4 1534.4,1125.3 1534,1125.1C1533.7,1124.9 1533.4,1124.6 1533.2,1124.2C1533,1123.9 1533,1123.5 1533,1123.2C1533.1,1122.9 1533.3,1122.5 1533.5,1122.3L1574.6,1075.8L1576.5,1075.8C1577.3,1075.8 1577.7,1076.2 1578.1,1077L1600.6,1123.1C1600.8,1123.3 1600.9,1123.6 1600.9,1123.9C1600.9,1124.2 1600.8,1124.5 1600.6,1124.7C1600.4,1125 1600,1125.4 1599.2,1125.4ZM1539.5,1121.5L1596.1,1121.5L1575.9,1080.8L1539.5,1121.5Z" style="fill:rgb(2,19,59);fill-rule:nonzero;"/>
    <path d="M1484.8,889.7L1484,889.7L1456.5,876.1C1456.3,876.1 1456,876 1455.8,875.8C1455.6,875.7 1455.4,875.5 1455.3,875.2C1455.2,875 1455.1,874.7 1455.1,874.5C1455.1,874.3 1455.2,874 1455.3,873.8C1455.5,873.3 1456,872.9 1456.5,872.7C1457,872.5 1457.5,872.5 1458.1,872.6L1485.6,886.2C1485.9,886.3 1486.1,886.4 1486.3,886.6C1486.5,886.8 1486.7,887 1486.8,887.3C1486.9,887.6 1487,887.8 1487,888.1C1487,888.4 1486.9,888.7 1486.8,888.9C1486.6,889.2 1486.3,889.4 1485.9,889.6C1485.6,889.7 1485.2,889.7 1484.8,889.7Z" style="fill:rgb(2,19,59);fill-rule:nonzero;"/>
    <path d="M383.7,993.2L357,993.2C356.5,993.2 356,993 355.6,992.6C355.2,992.2 355,991.7 355,991.2C355.1,990.7 355.3,990.3 355.7,989.9C356,989.6 356.5,989.3 357,989.2L383.8,989.2C384.3,989.2 384.8,989.4 385.2,989.8C385.6,990.2 385.8,990.7 385.8,991.2C385.8,991.7 385.6,992.2 385.2,992.6C384.7,993 384.2,993.2 383.7,993.2Z" style="fill:rgb(2,19,59);fill-rule:nonzero;"/>
    <path d="M446.1,993.2L419.3,993.2C418.8,993.2 418.3,993 417.9,992.6C417.5,992.2 417.3,991.7 417.3,991.2C417.4,990.7 417.6,990.3 418,989.9C418.3,989.6 418.8,989.3 419.3,989.2L446.1,989.2C446.6,989.2 447.1,989.4 447.5,989.8C447.9,990.2 448.1,990.7 448.1,991.2C448.1,991.7 447.9,992.2 447.5,992.6C447.1,993 446.6,993.2 446.1,993.2Z" style="fill:rgb(2,19,59);fill-rule:nonzero;"/>
    <path d="M508.6,993.2L482.2,993.2C481.7,993.2 481.2,993 480.8,992.6C480.4,992.2 480.2,991.7 480.2,991.2C480.2,990.7 480.4,990.2 480.8,989.8C481.2,989.4 481.7,989.2 482.2,989.2L508.6,989.2C509.1,989.2 509.6,989.4 510,989.8C510.4,990.2 510.6,990.7 510.6,991.2C510.6,991.7 510.4,992.2 510,992.6C509.6,993 509.1,993.2 508.6,993.2Z" style="fill:rgb(2,19,59);fill-rule:nonzero;"/>
    <path d="M571,993.2L544.6,993.2C544.1,993.2 543.6,993 543.2,992.6C542.8,992.2 542.6,991.7 542.6,991.2C542.6,990.7 542.8,990.2 543.2,989.8C543.6,989.4 544.1,989.2 544.6,989.2L571,989.2C571.5,989.2 572,989.4 572.4,989.8C572.8,990.2 573,990.7 573,991.2C573,991.7 572.8,992.2 572.4,992.6C572,993 571.5,993.2 571,993.2Z" style="fill:rgb(2,19,59);fill-rule:nonzero;"/>
    <path d="M354.6,1020C354.1,1020 353.6,1019.8 353.2,1019.4C352.8,1019 352.6,1018.6 352.6,1018L352.6,991.2C352.7,990.7 352.9,990.3 353.3,989.9C353.6,989.6 354.1,989.3 354.6,989.2C355.1,989.2 355.6,989.4 356,989.8C356.4,990.2 356.6,990.7 356.6,991.2L356.6,1018C356.6,1018.5 356.4,1019 356,1019.4C355.6,1019.8 355.1,1020 354.6,1020Z" style="fill:rgb(2,19,59);fill-rule:nonzero;"/>
    <path d="M354.6,1082.4C354.1,1082.4 353.6,1082.2 353.2,1081.8C352.8,1081.4 352.6,1080.9 352.6,1080.4L352.6,1053.6C352.7,1053.1 352.9,1052.7 353.3,1052.3C353.6,1052 354.1,1051.7 354.6,1051.6C355.1,1051.6 355.6,1051.8 356,1052.2C356.4,1052.6 356.6,1053.1 356.6,1053.6L356.6,1080.4C356.6,1080.9 356.4,1081.4 356,1081.8C355.6,1082.2 355.1,1082.4 354.6,1082.4Z" style="fill:rgb(2,19,59);fill-rule:nonzero;"/>
    <path d="M354.6,1128.1C354.1,1128.1 353.6,1127.9 353.2,1127.5C352.8,1127.1 352.6,1126.6 352.6,1126.1L352.6,1116C352.7,1115.5 352.9,1115.1 353.3,1114.7C353.6,1114.4 354.1,1114.1 354.6,1114.1C355.1,1114.1 355.6,1114.3 356,1114.7C356.4,1115.1 356.6,1115.5 356.6,1116.1L356.6,1126.2C356.6,1126.7 356.4,1127.2 356,1127.6C355.6,1127.9 355.1,1128.1 354.6,1128.1Z" style="fill:rgb(2,19,59);fill-rule:nonzero;"/>
    <path d="M385.6,1128.1L354.6,1128.1C354.1,1128.1 353.6,1127.9 353.2,1127.5C352.8,1127.1 352.6,1126.6 352.6,1126.1C352.6,1125.6 352.8,1125.1 353.2,1124.7C353.6,1124.3 354.1,1124.1 354.6,1124.1L385.6,1124.1C386.1,1124.1 386.6,1124.3 387,1124.7C387.4,1125.1 387.6,1125.6 387.6,1126.1C387.6,1126.6 387.4,1127.1 387,1127.5C386.7,1127.9 386.2,1128.1 385.6,1128.1Z" style="fill:rgb(2,19,59);fill-rule:nonzero;"/>
    <path d="M448.1,1128.1L418.6,1128.1C418.1,1128.1 417.6,1127.9 417.2,1127.5C416.8,1127.1 416.6,1126.6 416.6,1126.1C416.6,1125.6 416.8,1125.1 417.2,1124.7C417.6,1124.3 418.1,1124.1 418.6,1124.1L448.1,1124.1C448.6,1124.1 449.1,1124.3 449.5,1124.7C449.9,1125.1 450.1,1125.6 450.1,1126.1C450.1,1126.6 449.9,1127.1 449.5,1127.5C449.1,1127.9 448.6,1128.1 448.1,1128.1Z" style="fill:rgb(2,19,59);fill-rule:nonzero;"/>
    <path d="M510.5,1128.1L482.6,1128.1C482.1,1128.1 481.6,1127.9 481.2,1127.5C480.8,1127.1 480.6,1126.6 480.6,1126.1C480.6,1125.6 480.8,1125.1 481.2,1124.7C481.6,1124.3 482.1,1124.1 482.6,1124.1L510.5,1124.1C511,1124.1 511.5,1124.3 511.9,1124.7C512.3,1125.1 512.5,1125.6 512.5,1126.1C512.5,1126.6 512.3,1127.1 511.9,1127.5C511.5,1127.9 511,1128.1 510.5,1128.1Z" style="fill:rgb(2,19,59);fill-rule:nonzero;"/>
    <path d="M572.9,1128.1L546.5,1128.1C546,1128.1 545.5,1127.9 545.1,1127.5C544.7,1127.1 544.5,1126.6 544.5,1126.1C544.5,1125.6 544.7,1125.1 545.1,1124.7C545.5,1124.3 546,1124.1 546.5,1124.1L572.9,1124.1C573.4,1124.1 573.9,1124.3 574.3,1124.7C574.7,1125.1 574.9,1125.6 574.9,1126.1C574.9,1126.6 574.7,1127.1 574.3,1127.5C573.9,1127.9 573.4,1128.1 572.9,1128.1Z" style="fill:rgb(2,19,59);fill-rule:nonzero;"/>
    <path d="M572.9,1020C572.4,1020 571.9,1019.8 571.5,1019.4C571.1,1019 570.9,1018.6 570.9,1018L570.9,991.2C571,990.7 571.2,990.3 571.6,989.9C571.9,989.6 572.4,989.3 572.9,989.2C573.4,989.2 573.9,989.4 574.3,989.8C574.7,990.2 574.9,990.7 574.9,991.2L574.9,1018C574.9,1018.5 574.7,1019 574.3,1019.4C573.9,1019.8 573.4,1020 572.9,1020Z" style="fill:rgb(2,19,59);fill-rule:nonzero;"/>
    <path d="M572.9,1082.4C572.4,1082.4 571.9,1082.2 571.5,1081.8C571.1,1081.4 570.9,1080.9 570.9,1080.4L570.9,1053.6C571,1053.1 571.2,1052.7 571.6,1052.3C571.9,1052 572.4,1051.7 572.9,1051.6C573.4,1051.6 573.9,1051.8 574.3,1052.2C574.7,1052.6 574.9,1053.1 574.9,1053.6L574.9,1080.4C574.9,1080.9 574.7,1081.4 574.3,1081.8C573.9,1082.2 573.4,1082.4 572.9,1082.4Z" style="fill:rgb(2,19,59);fill-rule:nonzero;"/>
    <path d="M572.9,1128.1C572.4,1128.1 571.9,1127.9 571.5,1127.5C571.1,1127.1 570.9,1126.6 570.9,1126.1L570.9,1116C571,1115.5 571.2,1115.1 571.6,1114.7C571.9,1114.4 572.4,1114.1 572.9,1114.1C573.4,1114.1 573.9,1114.3 574.3,1114.7C574.7,1115.1 574.9,1115.5 574.9,1116.1L574.9,1126.2C574.9,1126.7 574.7,1127.2 574.3,1127.6C573.9,1127.9 573.4,1128.1 572.9,1128.1Z" style="fill:rgb(2,19,59);fill-rule:nonzero;"/>
    <path d="M401.2,969.9C400.7,969.9 400.2,969.7 399.8,969.3C399.4,968.9 399.2,968.4 399.2,967.9L399.2,929.1L324,929.1C323.5,929.1 323,928.9 322.6,928.5C322.2,928.1 322,927.6 322,927.1C322.1,926.6 322.3,926.2 322.7,925.8C323,925.5 323.5,925.2 324,925.1L401.2,925.1C401.7,925.1 402.2,925.3 402.6,925.7C403,926.1 403.2,926.6 403.2,927.1L403.2,968C403.2,968.5 403,969 402.6,969.4C402.2,969.7 401.7,969.9 401.2,969.9Z" style="fill:rgb(2,19,59);fill-rule:nonzero;"/>
    <path d="M343,372.1L341.8,372.1L303.8,335.3C303.5,334.9 303.4,334.5 303.4,334C303.4,333.5 303.6,333.1 304,332.8C304.3,332.5 304.8,332.3 305.2,332.2C305.7,332.2 306.1,332.3 306.5,332.6L344.5,369.4C344.9,369.8 345.1,370.2 345.1,370.8C345.1,371.3 344.9,371.8 344.5,372.2L343,372.2L343,372.1Z" style="fill:rgb(2,19,59);fill-rule:nonzero;"/>
    <path d="M305,372.1L303.8,372.1C303.4,371.7 303.2,371.2 303.2,370.7C303.2,370.2 303.4,369.7 303.8,369.3L341.8,332.5C342.2,332.2 342.6,332.1 343.1,332.1C343.6,332.1 344,332.3 344.3,332.7C344.6,333 344.8,333.5 344.9,333.9C344.9,334.4 344.8,334.8 344.5,335.2L306.5,372L305,372L305,372.1Z" style="fill:rgb(2,19,59);fill-rule:nonzero;"/>
    <rect x="231.8" y="330.2" width="39.9" height="39.9" style="fill:rgb(58,129,225);fill-rule:nonzero;"/>
    <path d="M1615.1,350.7L1554.2,350.7C1553.7,350.7 1553.2,350.5 1552.8,350.1C1552.4,349.7 1552.2,349.2 1552.2,348.7C1552.2,348.2 1552.4,347.7 1552.8,347.3C1553.2,346.9 1553.7,346.7 1554.2,346.7L1615.1,346.7C1615.6,346.7 1616.1,346.9 1616.5,347.3C1616.9,347.7 1617.1,348.2 1617.1,348.7C1617.1,349.2 1616.9,349.7 1616.5,350.1C1616.1,350.5 1615.6,350.7 1615.1,350.7Z" style="fill:rgb(2,19,59);fill-rule:nonzero;"/>
    <path d="M1543,350.7L1571.3,336L1571.3,360L1543,350.7Z" style="fill:rgb(2,19,59);fill-rule:nonzero;"/>
    <path d="M1645,350.7C1644.5,350.7 1644,350.5 1643.6,350.1C1643.2,349.7 1643,349.2 1643,348.7C1643,348.2 1643.2,347.7 1643.6,347.3C1644,346.9 1644.4,346.7 1645,346.7L1705.9,346.7C1706.4,346.7 1706.9,346.9 1707.3,347.3C1707.7,347.7 1707.9,348.2 1707.9,348.7C1707.9,349.2 1707.7,349.7 1707.3,350.1C1706.9,350.5 1706.4,350.7 1705.9,350.7L1645,350.7Z" style="fill:rgb(2,19,59);fill-rule:nonzero;"/>
    <path d="M1717.1,350.7L1688.8,336L1688.8,360L1717.1,350.7Z" style="fill:rgb(2,19,59);fill-rule:nonzero;"/>
    <path d="M388.8,952.5L401.2,979.3L413.6,952.5L388.8,952.5Z" style="fill:rgb(2,19,59);fill-rule:nonzero;"/>
    <rect x="58.8" y="895.5" width="222.2" height="127.2" style="fill:white;fill-rule:nonzero;"/>
    <path d="M280.6,1024.6L58.8,1024.6C58.3,1024.6 57.8,1024.4 57.4,1024C57,1023.6 56.8,1023.1 56.8,1022.6L56.8,895.5C56.8,895 57,894.5 57.4,894.1C57.8,893.7 58.3,893.5 58.8,893.5L280.6,893.5C281.1,893.5 281.6,893.7 282,894.1C282.4,894.5 282.6,895 282.6,895.5L282.6,1022.7C282.6,1023.2 282.4,1023.7 282,1024.1C281.6,1024.4 281.1,1024.6 280.6,1024.6ZM60.7,1020.7L278.6,1020.7L278.6,897.4L60.7,897.4L60.7,1020.7Z" style="fill:rgb(2,19,59);fill-rule:nonzero;"/>
    <path d="M65,1012.2L149.1,940.9L192.9,983.9L229.3,963.7L266.1,1012.2L65,1012.2Z" style="fill:rgb(247,174,56);fill-rule:nonzero;"/>
    <rect x="97.2" y="963.3" width="222.2" height="127.3" style="fill:white;fill-rule:nonzero;"/>
    <path d="M319,1092.5L97.2,1092.5C96.7,1092.5 96.2,1092.3 95.8,1091.9C95.4,1091.5 95.2,1091 95.2,1090.5L95.2,963.3C95.2,962.8 95.4,962.3 95.8,961.9C96.2,961.5 96.7,961.3 97.2,961.3L319,961.3C319.5,961.3 320,961.5 320.4,961.9C320.8,962.3 321,962.8 321,963.3L321,1090.5C321,1091 320.8,1091.5 320.4,1091.9C320,1092.2 319.5,1092.5 319,1092.5ZM99.1,1088.6L317,1088.6L317,965.3L99.1,965.3L99.1,1088.6Z" style="fill:rgb(2,19,59);fill-rule:nonzero;"/>
    <path d="M103.8,1080.1L187.5,1008.8L231.3,1051.8L267.7,1031.6L304.5,1080.1L103.8,1080.1Z" style="fill:rgb(202,202,202);fill-rule:nonzero;"/>
    <path d="M196.4,959.1C202.8,959.1 208,953.9 208,947.5C208,941.1 202.8,935.9 196.4,935.9C190,935.9 184.8,941.1 184.8,947.5C184.8,953.9 190,959.1 196.4,959.1Z" style="fill:rgb(247,174,56);fill-rule:nonzero;"/>
    <path d="M234.8,1026.9C241.2,1026.9 246.4,1021.7 246.4,1015.3C246.4,1008.9 241.2,1003.7 234.8,1003.7C228.4,1003.7 223.2,1008.9 223.2,1015.3C223.2,1021.7 228.4,1026.9 234.8,1026.9Z" style="fill:rgb(202,202,202);fill-rule:nonzero;"/>
    <path d="M185.2,370.1C196.1,370.1 205,361.2 205,350.3C205,339.4 196.1,330.5 185.2,330.5C174.3,330.5 165.4,339.4 165.4,350.3C165.4,361.3 174.3,370.1 185.2,370.1Z" style="fill:rgb(241,65,70);fill-rule:nonzero;"/>
    <path d="M1927.2,725.3L1684.5,725.3C1660.3,725.3 1640.7,744.9 1640.7,769.1L1640.7,891.5C1640.7,915.7 1660.3,935.3 1684.5,935.3L1927.2,935.3C1951.4,935.3 1971,915.7 1971,891.5L1971,769.1C1971.1,744.9 1951.4,725.3 1927.2,725.3Z" style="fill:white;fill-rule:nonzero;"/>
    <path d="M1927.6,937.4L1684.5,937.4C1672.4,937.4 1660.7,932.6 1652.1,924C1643.5,915.4 1638.7,903.8 1638.7,891.6L1638.7,769.1C1638.7,757 1643.5,745.3 1652.1,736.7C1660.7,728.1 1672.3,723.3 1684.5,723.3L1927.6,723.3C1933.6,723.3 1939.5,724.5 1945,726.8C1950.5,729.1 1955.6,732.5 1959.8,736.7C1964,741 1967.4,746 1969.6,751.5C1971.9,757 1973,763 1972.9,769L1972.9,891.5C1973,897.5 1971.8,903.4 1969.6,909C1967.3,914.5 1964,919.6 1959.8,923.8C1955.6,928.1 1950.6,931.4 1945,933.7C1939.6,936.2 1933.6,937.4 1927.6,937.4ZM1684.5,727.2C1673.4,727.3 1662.8,731.7 1655,739.6C1647.2,747.4 1642.7,758 1642.6,769.1L1642.6,891.6C1642.6,902.7 1647,913.4 1654.9,921.2C1662.7,929.1 1673.4,933.5 1684.5,933.5L1927.6,933.5C1933.1,933.5 1938.5,932.4 1943.6,930.3C1948.7,928.2 1953.3,925.1 1957.1,921.2C1960.9,917.3 1964,912.7 1966.1,907.6C1968.2,902.5 1969.2,897.1 1969.2,891.6L1969.2,769.1C1969.2,758.1 1964.8,747.5 1957.1,739.6C1949.3,731.8 1938.8,727.3 1927.7,727.2L1684.5,727.2Z" style="fill:rgb(2,19,59);fill-rule:nonzero;"/>
    <path d="M1762.5,878.8L1761.3,878.8L1699.7,822.2C1699.5,821.7 1699.3,821.2 1699.3,820.6C1699.3,820.1 1699.4,819.5 1699.7,819L1754.4,762C1754.6,761.8 1754.8,761.6 1755,761.5C1755.2,761.4 1755.5,761.3 1755.8,761.3C1756.1,761.3 1756.4,761.3 1756.6,761.4C1756.8,761.5 1757.1,761.6 1757.3,761.8C1757.5,762 1757.6,762.2 1757.7,762.5C1757.8,762.8 1757.8,763 1757.8,763.3C1757.8,763.6 1757.7,763.8 1757.6,764.1C1757.5,764.3 1757.3,764.6 1757.1,764.7L1704,820.1L1764.1,875.5C1764.4,875.9 1764.7,876.3 1764.7,876.9C1764.7,877.4 1764.5,877.9 1764.1,878.3L1762.5,878.8Z" style="fill:rgb(2,19,59);fill-rule:nonzero;"/>
    <path d="M1868.7,880.8L1867.2,880.8C1867,880.4 1866.9,879.9 1867,879.4C1867.1,878.9 1867.3,878.5 1867.6,878.1L1927.3,822.7L1874.2,767.3C1874,766.9 1873.9,766.4 1874,765.9C1874.1,765.4 1874.3,765 1874.6,764.6C1875,764.2 1875.4,764 1876,764C1876.5,764 1877,764.2 1877.3,764.6L1931.6,821.2L1932.4,822.7C1932.4,823.1 1932,823.9 1931.6,823.9L1870.3,880.9L1868.7,880.9L1868.7,880.8Z" style="fill:rgb(2,19,59);fill-rule:nonzero;"/>
    <path d="M1799.7,878.8L1798.9,878.8C1798.1,878.4 1797.3,877.2 1797.7,876.5L1837.3,762.9C1837.3,762.6 1837.4,762.4 1837.6,762.2C1837.7,762 1837.9,761.8 1838.2,761.7C1838.4,761.6 1838.7,761.5 1838.9,761.5C1839.2,761.5 1839.4,761.6 1839.6,761.7C1839.8,761.7 1840.1,761.8 1840.3,762C1840.5,762.1 1840.7,762.3 1840.8,762.6C1840.9,762.8 1841,763.1 1841,763.3C1841,763.6 1840.9,763.8 1840.8,764L1801.6,877.6C1801.4,878 1801.2,878.3 1800.8,878.5C1800.5,878.8 1800.1,878.9 1799.7,878.8Z" style="fill:rgb(2,19,59);fill-rule:nonzero;"/>
    <path d="M1167.3,907.9L1148.3,1037.4L1269.3,1045.9L1269.3,933.5L1167.3,907.9Z" style="fill:white;fill-rule:nonzero;"/>
    <path d="M1269.3,1047.9L1147.9,1039.4C1147.5,1039.4 1146.7,1039 1146.7,1038.6C1146.7,1038.2 1145.9,1037.4 1146.3,1037L1165.3,907.5L1166.1,906.3L1167.6,906.3L1269.6,931.9C1270,932.1 1270.3,932.3 1270.6,932.7C1270.9,933 1271.1,933.4 1271.1,933.9L1271.1,1046.3C1271.1,1046.7 1270.7,1047.1 1270.3,1047.5C1270.1,1047.9 1269.7,1047.9 1269.3,1047.9ZM1150.2,1035.5L1267.3,1043.7L1267.3,935L1168.8,910.2L1150.2,1035.5Z" style="fill:rgb(2,19,59);fill-rule:nonzero;"/>
    <path d="M1658.9,1178.5C1658.9,1178.5 1782.2,892 1798.5,899.7C1814.8,907.5 1788.4,989.7 1788.4,989.7C1788.4,989.7 1809.3,954.4 1829.1,981.2C1829.1,981.2 1853.5,974.2 1857,994C1857,994 1874.8,987 1879.1,1002.5C1883.4,1018 1781.4,1374.3 1781.4,1374.3C1781.4,1374.3 1614,1296 1658.9,1178.5Z" style="fill:white;fill-rule:nonzero;"/>
    <path d="M1782.4,1376.3L1780.7,1376.3C1778.8,1375.5 1612,1296 1657,1178.2C1669,1150.3 1774.5,906.4 1796.2,898.7C1796.7,898.4 1797.2,898.2 1797.8,898.2C1798.4,898.2 1798.9,898.4 1799.4,898.7C1807.2,902.6 1807.9,918.9 1801.3,948.7C1799,960.7 1795.5,972.4 1793.2,980.5C1797.9,975.5 1804.8,970 1812.2,969.6C1815.8,969.7 1819.3,970.7 1822.4,972.4C1825.5,974.2 1828.1,976.6 1830.1,979.6C1833.6,978.8 1844.1,976.9 1851.4,981.5C1853.2,982.6 1854.8,984.1 1856.1,985.8C1857.4,987.5 1858.3,989.5 1858.8,991.6C1863.8,990.1 1869.1,990.4 1873.9,992.4C1875.7,993.5 1877.3,994.9 1878.6,996.5C1879.9,998.2 1880.8,1000.1 1881.3,1002.1C1885.6,1017.6 1794.1,1338.6 1783.6,1375.1C1783.2,1375.5 1782.8,1376.3 1782.4,1376.3ZM1660.9,1179.3C1619.4,1286.7 1761.3,1361.9 1780.3,1371.6C1821,1228.1 1880.3,1013.7 1877.6,1002.9C1876.7,999.8 1874.6,997.1 1871.8,995.5C1867.3,993.8 1862.3,994 1857.8,995.9L1856.3,995.9L1855.1,994.7C1854.9,992.8 1854.3,990.9 1853.3,989.2C1852.3,987.5 1850.9,986.1 1849.3,985C1841.5,980.3 1829.9,983.4 1829.5,983.4C1829.1,983.5 1828.7,983.5 1828.4,983.4C1828.1,983.3 1827.7,983 1827.6,982.6C1822.9,976.4 1817.9,973.3 1812.5,973.3C1800.5,973.7 1790,990.7 1790,990.7C1790,990.7 1788.4,991.9 1787.3,991.5C1787.1,991.4 1786.9,991.3 1786.7,991.1C1786.5,990.9 1786.4,990.7 1786.3,990.5C1786.2,990.3 1786.2,990 1786.2,989.8C1786.2,989.6 1786.3,989.3 1786.4,989.1C1796.5,958.1 1808.1,907.3 1797.6,901.9C1787.3,896.7 1718.7,1044.8 1660.9,1179.3Z" style="fill:rgb(2,19,59);fill-rule:nonzero;"/>
    <path d="M1155.3,989.7C1155.3,989.7 1225.1,1061.8 1269.3,1014.9C1269.3,1014.9 1317.8,985.4 1355.4,1014.9C1393,1044.4 1613.2,1285.5 1613.2,1285.5L1675.2,1115.7C1675.2,1115.7 1736.1,1213 1813.6,1335.2C1813.6,1335.2 1723.6,1685.7 1650.4,1646.5C1577.1,1607.3 1394.1,1374.3 1394.1,1374.3L1430.9,1656.6C1430.9,1656.6 684.5,1670.6 694.2,1617.4C705.5,1553.8 898.2,912.9 1155.3,989.7Z" style="fill:rgb(247,174,56);fill-rule:nonzero;"/>
    <path d="M1050.2,1508.9L1104.9,1513.2C1104.9,1513.2 1322.8,1522.1 1345.7,1533.7C1375.2,1548.8 1484.5,1670.2 1442.6,1676.8C1426.3,1679.1 1345.7,1595 1345.7,1595C1345.7,1595 1404.6,1663.6 1391.8,1674.5C1372.4,1691.6 1357.3,1685.4 1357.3,1685.4C1357.3,1685.4 1351.9,1693.9 1321.6,1701.3C1291.4,1708.7 1278.6,1707.1 1271.6,1697.8C1264.6,1688.5 1233.2,1657.9 1233.2,1657.9L1096.3,1657.1L1050.2,1508.9Z" style="fill:white;fill-rule:nonzero;"/>
    <path d="M1290.6,1707.8C1280.5,1707.8 1274.7,1705.1 1270.1,1698.9C1265.4,1692.7 1236.7,1664 1232.5,1659.7L1096.4,1658.9C1095.9,1658.9 1095.4,1658.7 1095,1658.3C1094.6,1657.9 1094.4,1657.4 1094.4,1656.9C1094.4,1656.4 1094.6,1655.9 1095,1655.5C1095.4,1655.1 1095.8,1654.9 1096.4,1654.9L1233.3,1655.7L1234.5,1656.5C1236.1,1657.7 1266.3,1687.5 1273.3,1696.4C1280.3,1705.3 1288,1706.9 1321.4,1699.1C1354.7,1691.3 1355.9,1684 1355.9,1684C1356.1,1683.6 1356.5,1683.3 1356.9,1683.2C1357.3,1683.1 1357.8,1683.1 1358.2,1683.2C1359,1683.2 1372.5,1688.6 1390.8,1672.7C1398.6,1666.1 1368.3,1623.9 1344.3,1595.9C1344,1595.5 1343.8,1595.1 1343.8,1594.6C1343.8,1594.1 1344,1593.6 1344.3,1593.2C1345.1,1592.4 1346.2,1592.8 1347,1593.2C1378,1625.8 1431.1,1676.2 1442.4,1674.6C1444.2,1674.5 1446,1673.8 1447.4,1672.6C1448.8,1671.4 1449.8,1669.8 1450.2,1668C1454.5,1640.5 1369.9,1547.8 1344.7,1535C1319.5,1522.2 1107.4,1515.2 1105.1,1514.8L1050.4,1510.5C1049.9,1510.5 1049.4,1510.3 1049,1509.9C1048.6,1509.5 1048.4,1509 1048.4,1508.5C1048.5,1508 1048.8,1507.5 1049.2,1507.1C1049.6,1506.8 1050.2,1506.6 1050.7,1506.6L1105.4,1510.9C1113.9,1511.3 1323.7,1519.8 1346.6,1531.8C1369.5,1543.8 1459,1637.3 1454,1668.3C1453.6,1671 1452.2,1673.5 1450.2,1675.3C1448.1,1677.1 1445.5,1678.2 1442.8,1678.4C1431.9,1680 1395.5,1646.6 1369.9,1621.8C1385.8,1642.7 1401.7,1668.3 1393.2,1675.7C1376.5,1690.4 1362.6,1688.1 1358.3,1686.9C1354,1685.7 1346.7,1696.6 1322.6,1702.4C1312,1705.7 1301.4,1707.4 1290.6,1707.8Z" style="fill:rgb(2,19,59);fill-rule:nonzero;"/>
    <path d="M1357.3,1687.2L1355.7,1686.4L1297.9,1612.4C1297.6,1612 1297.5,1611.5 1297.5,1611C1297.6,1610.5 1297.8,1610 1298.3,1609.7C1298.5,1609.5 1298.7,1609.3 1299,1609.2C1299.3,1609.1 1299.6,1609 1299.8,1609.1C1300.1,1609.1 1300.3,1609.2 1300.6,1609.4C1300.8,1609.6 1301,1609.8 1301.1,1610.1L1358.9,1683.8C1359.7,1685 1359.7,1686.1 1358.5,1686.5L1357.3,1687.2Z" style="fill:rgb(2,19,59);fill-rule:nonzero;"/>
    <path d="M1315.4,1703.5C1314.6,1703.5 1314.2,1703.1 1313.8,1702.3L1262.2,1629C1261.9,1628.6 1261.8,1628.1 1261.8,1627.6C1261.9,1627.1 1262.1,1626.6 1262.6,1626.3C1262.8,1626.2 1263.1,1626.1 1263.3,1626.1C1263.6,1626.1 1263.8,1626.1 1264.1,1626.2C1264.3,1626.3 1264.6,1626.4 1264.8,1626.6C1265,1626.8 1265.2,1627 1265.3,1627.2L1316.9,1700.5C1317.2,1700.9 1317.3,1701.4 1317.3,1701.9C1317.2,1702.4 1317,1702.9 1316.5,1703.2L1315.4,1703.5Z" style="fill:rgb(2,19,59);fill-rule:nonzero;"/>
    <path d="M1233.2,1659.7L1231.7,1659.7L1173.2,1601.9C1172.9,1601.5 1172.8,1601.1 1172.8,1600.6C1172.8,1600.1 1173,1599.7 1173.4,1599.4C1173.7,1599.1 1174.2,1598.9 1174.6,1598.8C1175.1,1598.8 1175.5,1598.9 1175.9,1599.2L1234.5,1657C1234.8,1657.4 1235.1,1657.8 1235.1,1658.4C1235.1,1659 1234.9,1659.4 1234.5,1659.8L1233.2,1659.8L1233.2,1659.7Z" style="fill:rgb(2,19,59);fill-rule:nonzero;"/>
    <path d="M1729.8,1103.7L1727.2,1103.7C1726.9,1103.3 1726.7,1102.8 1726.8,1102.3C1726.9,1101.8 1727.1,1101.3 1727.6,1101C1749.7,1082 1807.5,1028.5 1805.5,1008.3C1805.3,1007.1 1804.9,1006 1804.3,1005.1C1803.6,1004.2 1802.7,1003.4 1801.7,1002.9C1788.9,995.5 1768.7,1011 1754.4,1025.4C1743.9,1035.9 1734.2,1047.2 1725.3,1059.1C1725.2,1059.4 1725,1059.6 1724.8,1059.8C1724.6,1060 1724.3,1060.1 1724,1060.1C1723.7,1060.1 1723.4,1060.1 1723.2,1060C1723,1059.9 1722.7,1059.7 1722.5,1059.5C1722.1,1059.2 1721.8,1058.7 1721.7,1058.2C1721.6,1057.7 1721.8,1057.2 1722.1,1056.8C1724,1054.1 1775.2,983.5 1803.5,999.4C1805.1,1000.2 1806.5,1001.4 1807.5,1002.9C1808.5,1004.4 1809.1,1006.1 1809.3,1007.9C1811.6,1033.9 1733.3,1101 1729.8,1103.7Z" style="fill:rgb(2,19,59);fill-rule:nonzero;"/>
    <path d="M1798.9,1068C1796,1068.1 1793.2,1067.8 1790.4,1067.2C1790.2,1067.1 1789.9,1067 1789.7,1066.9C1789.5,1066.8 1789.3,1066.6 1789.1,1066.4C1789,1066.2 1788.9,1065.9 1788.8,1065.7C1788.7,1065.4 1788.8,1065.2 1788.8,1064.9C1789,1064.4 1789.3,1064 1789.7,1063.7C1790.1,1063.4 1790.6,1063.3 1791.1,1063.3C1801.6,1065.6 1809.7,1063.7 1815.9,1057.9C1836.1,1038.5 1827.1,982.3 1827.1,981.5C1827.1,980.7 1827.5,979.6 1828.7,979.2C1829.3,979.2 1829.8,979.4 1830.2,979.7C1830.6,980.1 1830.9,980.6 1831,981.1C1831.4,983.4 1840.3,1040 1818.6,1060.6C1813.3,1065.6 1806.2,1068.3 1798.9,1068Z" style="fill:rgb(2,19,59);fill-rule:nonzero;"/>
    <path d="M1831.1,1070C1827.9,1069.9 1824.8,1069.2 1821.8,1068.1C1821.5,1068.1 1821.3,1068 1821.1,1067.8C1820.9,1067.6 1820.7,1067.5 1820.6,1067.2C1820.5,1067 1820.4,1066.7 1820.4,1066.5C1820.4,1066.2 1820.5,1066 1820.6,1065.8C1820.6,1065.6 1820.7,1065.3 1820.9,1065.1C1821,1064.9 1821.2,1064.7 1821.5,1064.6C1821.7,1064.5 1822,1064.4 1822.3,1064.4C1822.6,1064.4 1822.8,1064.5 1823,1064.6C1825.8,1065.8 1828.9,1066.3 1831.9,1066.1C1834.9,1065.8 1837.9,1064.8 1840.4,1063.1C1859,1049.1 1855.1,994.9 1855.1,994.1C1855.1,993.6 1855.3,993.1 1855.7,992.7C1856.1,992.3 1856.6,992.1 1857.1,992.1C1857.9,992.1 1859,992.9 1859,993.6C1859,994.4 1862.9,1051 1842.7,1066.1C1839.4,1068.8 1835.3,1070.1 1831.1,1070Z" style="fill:rgb(2,19,59);fill-rule:nonzero;"/>
    <path d="M1855.1,1077.3L1852,1076.5C1850.4,1075.7 1849,1074.6 1848,1073.1C1846.9,1071.7 1846.2,1070.1 1845.8,1068.3C1845.8,1067.1 1846.6,1066 1847.4,1066C1848.2,1066 1849.7,1066.4 1849.7,1067.6C1849.7,1068.8 1850.5,1071.9 1853.6,1073C1856.7,1074.2 1859.4,1073 1863.7,1069.9C1864.1,1069.6 1864.6,1069.5 1865.1,1069.5C1865.6,1069.6 1866.1,1069.8 1866.4,1070.3C1866.6,1070.7 1866.7,1071.2 1866.6,1071.7C1866.5,1072.2 1866.3,1072.6 1866,1073C1862.8,1075.5 1859.1,1076.9 1855.1,1077.3Z" style="fill:rgb(2,19,59);fill-rule:nonzero;"/>
    <path d="M1201.4,968L1269.2,1014.9L1269.2,973C1269.3,973 1249.1,996.3 1201.4,968Z" style="fill:rgb(2,19,59);fill-rule:nonzero;"/>
    <path d="M1163,863.3C1163,863.3 1149.8,966.4 1225,980.8C1300.2,995.1 1325,894.7 1306.4,845.5C1287.9,796.2 1180.1,849.4 1163,863.3Z" style="fill:white;fill-rule:nonzero;"/>
    <path d="M1239,983.9L1224.7,982.7C1148.3,968 1160.7,864.1 1161.1,863.3C1161.5,862.5 1161.5,862.1 1161.9,862.1C1173.9,851.6 1246,814 1285.6,824.9C1290.7,826.1 1295.5,828.5 1299.5,831.9C1303.5,835.3 1306.6,839.7 1308.5,844.6C1320.1,875.6 1315.9,928.3 1289.1,960.1C1283,967.5 1275.4,973.5 1266.8,977.6C1258.1,981.8 1248.6,983.9 1239,983.9ZM1164.6,864.5C1163.8,873.8 1156.1,965.7 1225.5,978.9C1249.5,983.2 1270.5,976.2 1286,958C1311.2,928.1 1315.9,876.2 1305,846.3C1303.4,841.9 1300.7,838.1 1297.1,835C1293.6,832 1289.3,829.8 1284.8,828.8C1248.3,819.1 1179.7,852.8 1164.6,864.5Z" style="fill:rgb(2,19,59);fill-rule:nonzero;"/>
    <path d="M1150.2,863.3C1152.1,886.2 1171.9,901.3 1189.8,892.4C1196.4,889.3 1202.2,882.7 1205.7,871.1C1218.1,830 1252.6,866.1 1265,859.1C1277.4,852.1 1310.8,876.9 1320.8,824.2C1330.9,771.5 1306.5,769.9 1296.4,789.3C1286.3,808.7 1268.1,780.8 1248.7,795.1C1229.3,809.4 1173.1,771.1 1158,808.3C1145.6,838.9 1147.5,835 1150.2,863.3Z" style="fill:rgb(2,19,59);fill-rule:nonzero;"/>
    <path d="M1248.7,929.2C1234.8,929.2 1223.1,915.6 1223.1,899C1223.1,882.3 1234.7,868.4 1248.7,868.4C1262.7,868.4 1273.9,882 1273.9,899C1273.9,916 1262.7,929.2 1248.7,929.2ZM1248.7,872.2C1236.7,872.2 1227,884.2 1227,899C1227,913.7 1236.7,925.4 1248.7,925.4C1260.7,925.4 1270,913.8 1270,899C1270.1,884.2 1260.3,872.2 1248.7,872.2Z" style="fill:rgb(2,19,59);fill-rule:nonzero;"/>
    <path d="M1314.6,929.2C1300.6,929.2 1289.4,915.6 1289.4,899C1289.4,882.3 1300.6,868.4 1314.6,868.4C1328.5,868.4 1340.2,882 1340.2,899C1340.2,916 1329,929.2 1314.6,929.2ZM1314.6,872.2C1303,872.2 1293.3,884.2 1293.3,899C1293.3,913.7 1303,925.4 1314.6,925.4C1326.2,925.4 1336.3,913.8 1336.3,899C1336.3,884.2 1326.7,872.2 1314.6,872.2Z" style="fill:rgb(2,19,59);fill-rule:nonzero;"/>
    <path d="M1274.7,914.1C1274.7,914.1 1289.8,891.2 1300.3,901.7C1310.8,912.2 1281.3,934.7 1281.3,934.7L1274.7,914.1Z" style="fill:white;fill-rule:nonzero;"/>
    <path d="M1281.3,936.6L1279.7,935.8C1279.4,935.4 1279.3,934.9 1279.3,934.4C1279.4,933.9 1279.6,933.4 1280.1,933.1C1285.5,928.8 1299.9,915.7 1300.7,907.1C1300.6,905.5 1299.9,903.9 1298.8,902.8C1298.2,902.1 1297.4,901.5 1296.5,901.2C1295.6,900.9 1294.7,900.8 1293.7,900.9C1286.7,901.7 1278.6,911.4 1276.3,915.2C1276,915.6 1275.5,915.9 1275,916C1274.5,916.1 1274,915.9 1273.6,915.6C1273.2,915.3 1273,914.8 1272.8,914.4C1272.6,914 1272.7,913.4 1272.8,912.9C1273.6,912.1 1283.3,897.8 1293.4,897C1294.9,896.8 1296.4,897 1297.8,897.6C1299.2,898.1 1300.5,899 1301.5,900.1C1302.5,901 1303.4,902.2 1303.9,903.4C1304.4,904.7 1304.7,906.1 1304.6,907.4C1303.8,919.4 1283.3,935.3 1282.5,936.1L1281.3,936.6Z" style="fill:rgb(2,19,59);fill-rule:nonzero;"/>
    <path d="M1276.2,965.3C1252.9,965.3 1244.8,950.6 1244.4,950.2C1244.2,949.7 1244.2,949.2 1244.3,948.7C1244.4,948.2 1244.7,947.8 1245.1,947.5C1245.3,947.3 1245.6,947.1 1245.8,947C1246.1,946.9 1246.4,946.9 1246.7,947C1247,947.1 1247.2,947.2 1247.4,947.5C1247.6,947.7 1247.7,948 1247.8,948.3C1248.2,948.7 1257.1,964.2 1283.9,960.7C1284.4,960.7 1284.9,960.9 1285.3,961.3C1285.7,961.7 1285.9,962.2 1285.9,962.7C1286.3,963.5 1285.5,964.6 1284.4,964.6L1276.2,965.3Z" style="fill:rgb(2,19,59);fill-rule:nonzero;"/>
    <path d="M1189,921.9C1183.1,923.7 1176.8,923.1 1171.2,920.5C1165.7,917.8 1161.3,913.2 1159,907.5C1156.7,901.8 1156.6,895.4 1158.7,889.6C1160.8,883.8 1165,879 1170.5,876.1C1173.5,874.8 1176.7,874.2 1180,874.2C1183.2,874.2 1186.5,874.9 1189.5,876.1C1192.5,877.4 1195.2,879.2 1197.5,881.5C1199.8,883.8 1201.6,886.6 1202.7,889.6L1189,921.9Z" style="fill:white;fill-rule:nonzero;"/>
    <path d="M1179.7,925.7C1176.1,925.7 1172.5,924.9 1169.2,923.4C1166,922 1163,920 1160.5,917.5C1158,915 1156.1,912 1154.8,908.7C1152.6,902.2 1153,895.1 1155.9,888.9C1158.8,882.7 1163.9,877.8 1170.3,875.3C1176.7,872.8 1183.7,872.8 1190.1,875.3C1196.5,877.8 1201.6,882.7 1204.5,888.9C1204.6,889.2 1204.7,889.4 1204.7,889.7C1204.7,890 1204.7,890.3 1204.5,890.5C1204.4,890.8 1204.2,891 1204,891.2C1203.8,891.4 1203.6,891.5 1203.3,891.6C1202.5,892 1201.4,891.2 1201,890.4C1198.7,884.7 1194.3,880.2 1188.7,877.8C1183.1,875.4 1176.8,875.3 1171.1,877.6C1165.4,879.9 1160.9,884.3 1158.5,889.9C1156.1,895.5 1156,901.8 1158.3,907.5C1160.6,913.1 1165.1,917.6 1170.7,919.9C1176.3,922.2 1182.6,922.2 1188.2,919.9C1189,919.5 1190.1,920.3 1190.5,921.1C1190.7,921.6 1190.7,922.1 1190.6,922.6C1190.5,923.1 1190.2,923.5 1189.8,923.8C1186.6,925 1183.2,925.7 1179.7,925.7Z" style="fill:rgb(2,19,59);fill-rule:nonzero;"/>
    <path d="M1190.6,901.7L1189.8,901.7L1168.5,889.7C1167.3,889.3 1167.3,887.8 1167.7,887C1168,886.6 1168.4,886.3 1168.9,886.2C1169.4,886.1 1169.9,886.1 1170.4,886.3L1191.7,898.3C1192.1,898.6 1192.4,899.1 1192.5,899.6C1192.6,900.1 1192.4,900.6 1192.1,901C1192.1,901.3 1191.3,901.7 1190.6,901.7Z" style="fill:rgb(2,19,59);fill-rule:nonzero;"/>
    <path d="M1180.1,911.8C1179.6,911.8 1179.1,911.6 1178.7,911.2C1178.3,910.8 1178.1,910.3 1178.1,909.8L1178.1,895.1C1178.1,894.6 1178.3,894.1 1178.7,893.7C1179.1,893.3 1179.5,893.1 1180.1,893.1C1180.6,893.1 1181.1,893.3 1181.5,893.7C1181.9,894.1 1182.1,894.6 1182.1,895.1L1182.1,909.8C1182.1,910.3 1181.9,910.8 1181.5,911.2C1181.1,911.6 1180.6,911.8 1180.1,911.8Z" style="fill:rgb(2,19,59);fill-rule:nonzero;"/>
    <path d="M1776.8,1021.9C1774.9,1022 1773,1021.4 1771.4,1020.4C1769.7,1019.4 1768.3,1017.9 1767.3,1016.3C1766.3,1014.6 1765.7,1012.7 1765.6,1010.8C1765.6,1010.3 1765.8,1009.8 1766.2,1009.4C1766.6,1009 1767,1008.8 1767.6,1008.8C1768.1,1008.8 1768.6,1009 1769,1009.4C1769.4,1009.8 1769.6,1010.2 1769.6,1010.8C1769.7,1012.1 1770.1,1013.4 1770.8,1014.5C1771.5,1015.6 1772.4,1016.6 1773.5,1017.4C1775.8,1018.6 1782.8,1019.3 1797.9,1009.3C1798.3,1009 1798.8,1008.9 1799.3,1008.9C1799.8,1009 1800.3,1009.2 1800.6,1009.7C1800.9,1010.1 1801,1010.6 1801,1011.1C1800.9,1011.6 1800.7,1012.1 1800.2,1012.4C1790.4,1018.4 1782.6,1021.9 1776.8,1021.9Z" style="fill:rgb(2,19,59);fill-rule:nonzero;"/>
    <path d="M1801.6,1058.7L1800.8,1058.7C1800.6,1058.7 1800.3,1058.6 1800.1,1058.4C1799.9,1058.3 1799.7,1058.1 1799.6,1057.8C1799.5,1057.5 1799.4,1057.3 1799.4,1057C1799.4,1056.7 1799.5,1056.5 1799.6,1056.3C1803.9,1043.9 1809.3,1036.9 1816.3,1035.4C1818.5,1034.8 1820.7,1034.8 1822.9,1035.3C1825.1,1035.9 1827.1,1037 1828.7,1038.5C1829.1,1038.8 1829.4,1039.3 1829.5,1039.8C1829.6,1040.3 1829.4,1040.8 1829.1,1041.2C1828.7,1041.5 1828.3,1041.7 1827.7,1041.7C1827.1,1041.7 1826.7,1041.5 1826.3,1041.2C1823.6,1039.2 1820.3,1038.4 1817,1038.9C1811.6,1040.5 1806.9,1046.7 1803,1057.5C1803.2,1058.3 1802.4,1058.7 1801.6,1058.7Z" style="fill:rgb(2,19,59);fill-rule:nonzero;"/>
    <path d="M1831.1,1061.8L1830.3,1061.8C1829.1,1061.4 1828.7,1060.3 1829.5,1059.5C1833.4,1051.4 1838,1046.3 1843.5,1044.8C1846.9,1044 1850.4,1044.2 1853.6,1045.6C1854,1045.9 1854.3,1046.4 1854.4,1046.9C1854.5,1047.4 1854.3,1047.9 1854,1048.3C1853.7,1048.7 1853.3,1049 1852.8,1049.1C1852.3,1049.2 1851.8,1049.2 1851.3,1049C1850.3,1048.4 1849.2,1048 1848.1,1047.9C1847,1047.8 1845.8,1047.9 1844.7,1048.3C1842,1049.6 1839.6,1051.3 1837.6,1053.5C1835.6,1055.7 1834.1,1058.3 1833.1,1061.1C1832.9,1061.4 1832.6,1061.6 1832.3,1061.8C1831.8,1061.9 1831.4,1061.9 1831.1,1061.8Z" style="fill:rgb(2,19,59);fill-rule:nonzero;"/>
    <path d="M1050.2,1510.8L1049.4,1510.8L937.4,1465C936.9,1464.8 936.5,1464.3 936.3,1463.8C936.1,1463.3 936.1,1462.7 936.2,1462.2L1014.9,1265.6C1015.3,1264.8 1016.4,1264 1017.2,1264.4C1017.5,1264.5 1017.7,1264.6 1017.9,1264.8C1018.1,1265 1018.3,1265.2 1018.4,1265.5C1018.5,1265.7 1018.6,1266 1018.6,1266.3C1018.6,1266.6 1018.5,1266.9 1018.4,1267.1L940.5,1462L1051,1507.4C1051.3,1507.4 1051.5,1507.5 1051.7,1507.7C1051.9,1507.9 1052.1,1508 1052.2,1508.3C1052.3,1508.5 1052.4,1508.8 1052.4,1509.1C1052.4,1509.3 1052.3,1509.6 1052.2,1509.8C1052,1510.2 1051.8,1510.5 1051.4,1510.7C1051,1510.8 1050.6,1510.8 1050.2,1510.8Z" style="fill:rgb(2,19,59);fill-rule:nonzero;"/>
    <path d="M1253.8,1523.6C1253,1523.6 1252.2,1522.8 1251.9,1521.7L1223.2,1034.3C1223.2,1033.8 1223.4,1033.3 1223.8,1032.9C1224.2,1032.5 1224.7,1032.3 1225.2,1032.3C1225.7,1032.3 1226.2,1032.5 1226.6,1032.9C1227,1033.3 1227.2,1033.8 1227.2,1034.3L1255.9,1521.7C1256.3,1522.5 1255.1,1523.6 1254.4,1523.6L1253.8,1523.6Z" style="fill:rgb(2,19,59);fill-rule:nonzero;"/>
    <path d="M1210.7,1147.1C1207.7,1147 1204.8,1145.7 1202.7,1143.6C1200.6,1141.4 1199.4,1138.5 1199.4,1135.5C1199.9,1132.8 1201.3,1130.4 1203.4,1128.7C1205.5,1127 1208.1,1126 1210.8,1126C1213.5,1126 1216.1,1127 1218.2,1128.7C1220.3,1130.4 1221.7,1132.8 1222.2,1135.5C1222.2,1138.6 1221,1141.6 1218.8,1143.7C1216.8,1145.9 1213.8,1147.1 1210.7,1147.1ZM1210.7,1128.1C1208.8,1128.2 1206.9,1129 1205.6,1130.4C1204.3,1131.8 1203.4,1133.6 1203.3,1135.5C1203.2,1137.1 1203.6,1138.6 1204.4,1139.9C1205.2,1141.2 1206.4,1142.3 1207.9,1142.9C1209.3,1143.5 1210.9,1143.7 1212.5,1143.4C1214,1143.1 1215.5,1142.4 1216.6,1141.3C1217.7,1140.2 1218.4,1138.8 1218.7,1137.2C1219,1135.7 1218.8,1134.1 1218.2,1132.6C1217.6,1131.2 1216.5,1130 1215.2,1129.1C1213.8,1128.4 1212.3,1128.1 1210.7,1128.1Z" style="fill:rgb(2,19,59);fill-rule:nonzero;"/>
    <path d="M1213.1,1266.6C1210.1,1266.5 1207.2,1265.2 1205.1,1263.1C1203,1260.9 1201.8,1258 1201.8,1255C1201.8,1252 1203,1249.1 1205.1,1247C1207.2,1244.9 1210.1,1243.7 1213.1,1243.7C1216.1,1243.7 1218.9,1244.9 1221,1247C1223.1,1249.1 1224.3,1252 1224.3,1255C1224.3,1258 1223.1,1260.9 1221,1263.1C1218.9,1265.3 1216.1,1266.4 1213.1,1266.6ZM1213.1,1247.6C1211.1,1247.6 1209.3,1248.4 1207.9,1249.8C1206.5,1251.2 1205.7,1253 1205.7,1255C1205.7,1256.9 1206.5,1258.8 1207.9,1260.2C1209.3,1261.6 1211.2,1262.4 1213.1,1262.4C1215.1,1262.4 1216.9,1261.6 1218.3,1260.2C1219.7,1258.8 1220.5,1257 1220.5,1255C1220.5,1254 1220.3,1253.1 1219.9,1252.2C1219.5,1251.3 1219,1250.5 1218.3,1249.8C1217.6,1249.1 1216.8,1248.6 1215.9,1248.2C1215,1247.7 1214,1247.6 1213.1,1247.6Z" style="fill:rgb(2,19,59);fill-rule:nonzero;"/>
    <path d="M1220.4,1385.6C1218.7,1385.9 1217,1385.8 1215.3,1385.4C1213.6,1385 1212.1,1384.2 1210.8,1383.1C1209.5,1382 1208.4,1380.6 1207.7,1379.1C1207,1377.6 1206.6,1375.9 1206.6,1374.2C1206.6,1372.5 1207,1370.8 1207.7,1369.3C1208.4,1367.8 1209.5,1366.4 1210.8,1365.3C1212.1,1364.2 1213.6,1363.4 1215.3,1363C1217,1362.6 1218.7,1362.5 1220.4,1362.8C1223.1,1363.3 1225.5,1364.7 1227.2,1366.8C1228.9,1368.9 1229.9,1371.5 1229.9,1374.2C1229.9,1376.9 1228.9,1379.5 1227.2,1381.6C1225.5,1383.7 1223.1,1385.1 1220.4,1385.6ZM1220.4,1366.6C1219.3,1366.3 1218.1,1366.3 1216.9,1366.6C1215.8,1366.9 1214.7,1367.4 1213.8,1368.1C1212.9,1368.8 1212.1,1369.8 1211.6,1370.8C1211.1,1371.8 1210.8,1373 1210.8,1374.2C1210.8,1375.4 1211.1,1376.5 1211.6,1377.6C1212.1,1378.7 1212.8,1379.6 1213.8,1380.3C1214.7,1381 1215.8,1381.5 1216.9,1381.8C1218,1382.1 1219.2,1382.1 1220.4,1381.8C1222.3,1381.7 1224.1,1380.9 1225.5,1379.5C1226.9,1378.1 1227.7,1376.3 1227.8,1374.4C1227.8,1372.4 1227,1370.5 1225.7,1369.1C1224.3,1367.5 1222.4,1366.7 1220.4,1366.6Z" style="fill:rgb(2,19,59);fill-rule:nonzero;"/>
    <path d="M1440.7,1666.7L1439.5,1666.7C1429,1657.4 1424.4,1649.2 1425.9,1642.7C1427.4,1636.1 1437.9,1632.2 1438.3,1632.2C1438.7,1632.2 1440.2,1632.6 1440.6,1633.7C1440.6,1634.2 1440.5,1634.7 1440.2,1635.1C1439.9,1635.5 1439.5,1635.8 1439,1636C1439,1636 1431.2,1637.9 1429.7,1643.8C1428.1,1649.6 1432.8,1655.4 1441.7,1663.6C1442,1663.7 1442.2,1663.9 1442.4,1664.1C1442.6,1664.3 1442.7,1664.6 1442.7,1664.9C1442.7,1665.2 1442.7,1665.5 1442.6,1665.7C1442.5,1665.9 1442.3,1666.2 1442.1,1666.4C1441.9,1666.6 1441.6,1666.7 1441.4,1666.8C1441.2,1666.7 1440.9,1666.7 1440.7,1666.7Z" style="fill:rgb(2,19,59);fill-rule:nonzero;"/>
    <path d="M1251.1,904.4C1253.7,904.4 1255.7,902.3 1255.7,899.7C1255.7,897.1 1253.6,895 1251.1,895C1248.5,895 1246.4,897.1 1246.4,899.7C1246.4,902.3 1248.5,904.4 1251.1,904.4Z" style="fill:rgb(2,19,59);fill-rule:nonzero;"/>
    <path d="M1319.3,903.6C1321.9,903.6 1323.9,901.5 1323.9,898.9C1323.9,896.3 1321.8,894.2 1319.3,894.2C1316.7,894.2 1314.6,896.3 1314.6,898.9C1314.6,901.6 1316.7,903.6 1319.3,903.6Z" style="fill:rgb(2,19,59);fill-rule:nonzero;"/>
    <path d="M1856.3,1066.1L1855.5,1066.1C1854.7,1065.7 1853.9,1064.6 1854.3,1063.8C1859.7,1049.8 1869.4,1052.9 1869.4,1052.9C1869.7,1052.9 1869.9,1053 1870.1,1053.2C1870.3,1053.3 1870.5,1053.5 1870.6,1053.8C1870.7,1054 1870.8,1054.3 1870.8,1054.5C1870.8,1054.8 1870.7,1055 1870.6,1055.2C1870.6,1055.4 1870.5,1055.7 1870.3,1055.9C1870.2,1056.1 1870,1056.3 1869.7,1056.4C1869.5,1056.5 1869.2,1056.6 1868.9,1056.6C1868.6,1056.6 1868.4,1056.5 1868.2,1056.4C1867.8,1056.4 1862,1054.8 1858.1,1064.9C1857.9,1065.2 1857.6,1065.5 1857.3,1065.7C1857.1,1065.9 1856.7,1066.1 1856.3,1066.1Z" style="fill:rgb(2,19,59);fill-rule:nonzero;"/>
    <rect x="335.6" y="1534.8" width="317.2" height="317.3" style="fill:white;fill-rule:nonzero;"/>
    <path d="M652.8,1853.9L335.6,1853.9C335.1,1853.9 334.6,1853.7 334.2,1853.3C333.8,1852.9 333.6,1852.4 333.6,1851.9L333.6,1534.7C333.6,1534.2 333.8,1533.7 334.2,1533.3C334.6,1532.9 335.1,1532.7 335.6,1532.7L652.8,1532.7C653.3,1532.7 653.8,1532.9 654.2,1533.3C654.6,1533.7 654.8,1534.2 654.8,1534.7L654.8,1852C654.8,1852.5 654.6,1853 654.2,1853.4C653.8,1853.7 653.3,1853.9 652.8,1853.9ZM337.6,1850.1L650.9,1850.1L650.9,1536.8L337.6,1536.8L337.6,1850.1Z" style="fill:rgb(2,19,59);fill-rule:nonzero;"/>
    <rect x="377.9" y="1677.2" width="56.2" height="132.7" style="fill:rgb(202,202,202);fill-rule:nonzero;"/>
    <rect x="466.3" y="1641.5" width="56.2" height="168.2" style="fill:rgb(51,80,163);fill-rule:nonzero;"/>
    <path d="M611.7,1811.7L555.5,1811.7C555,1811.7 554.5,1811.5 554.1,1811.1C553.7,1810.7 553.5,1810.2 553.5,1809.7L553.5,1608.1C553.5,1607.6 553.7,1607.1 554.1,1606.7C554.5,1606.3 555,1606.1 555.5,1606.1L611.7,1606.1C612.2,1606.1 612.7,1606.3 613.1,1606.7C613.5,1607.1 613.7,1607.6 613.7,1608.1L613.7,1809.7C613.7,1810.2 613.5,1810.7 613.1,1811.1C612.7,1811.5 612.2,1811.7 611.7,1811.7ZM557.4,1807.8L609.7,1807.8L609.7,1610.1L557.4,1610.1L557.4,1807.8Z" style="fill:rgb(2,19,59);fill-rule:nonzero;"/>
    <path d="M611.7,1415L611.7,1578.6L671.4,1530.1L880.4,1530.1L880.4,1415L611.7,1415Z" style="fill:white;fill-rule:nonzero;"/>
    <path d="M611.7,1580.6L610.9,1580.6C610.1,1580.2 609.7,1579.8 609.7,1579.1L609.7,1415.1C609.7,1414.6 609.9,1414.1 610.3,1413.7C610.7,1413.3 611.2,1413.1 611.7,1413.1L880.4,1413.1C880.9,1413.1 881.4,1413.3 881.8,1413.7C882.2,1414.1 882.4,1414.6 882.4,1415.1L882.4,1530.3C882.4,1530.8 882.2,1531.3 881.8,1531.7C881.4,1532.1 880.9,1532.3 880.4,1532.3L671.8,1532.3L612.9,1580L611.7,1580.6ZM613.6,1417L613.6,1574.4L669.8,1528.6L878.4,1528.6L878.4,1417L613.6,1417Z" style="fill:rgb(2,19,59);fill-rule:nonzero;"/>
    <path d="M859.8,1454.6L669.5,1454.6C669,1454.6 668.5,1454.4 668.1,1454C667.7,1453.6 667.5,1453.2 667.5,1452.6C667.5,1452.1 667.7,1451.6 668.1,1451.2C668.5,1450.8 669,1450.6 669.5,1450.6L859.9,1450.6C860.4,1450.6 860.9,1450.8 861.3,1451.2C861.7,1451.6 861.9,1452.1 861.9,1452.6C861.9,1453.1 861.7,1453.6 861.3,1454C860.8,1454.4 860.3,1454.6 859.8,1454.6Z" style="fill:rgb(2,19,59);fill-rule:nonzero;"/>
    <path d="M859.8,1487.9L669.5,1487.9C669,1487.9 668.5,1487.7 668.1,1487.3C667.7,1486.9 667.5,1486.4 667.5,1485.9C667.5,1485.4 667.7,1484.9 668.1,1484.5C668.5,1484.1 669,1483.9 669.5,1483.9L859.9,1483.9C860.4,1483.9 860.9,1484.1 861.3,1484.5C861.7,1484.9 861.9,1485.3 861.9,1485.9C861.9,1486.4 861.7,1486.9 861.3,1487.3C860.8,1487.7 860.3,1487.9 859.8,1487.9Z" style="fill:rgb(2,19,59);fill-rule:nonzero;"/>
    <g transform="matrix(1.52424,0.00731372,-0.00731372,1.52424,-874.067,-421.82)">
        <path d="M954.174,357.492L959.942,377.583C960.314,378.879 961.175,379.98 962.343,380.655C963.51,381.329 964.894,381.523 966.202,381.198L986.486,376.147L971.971,391.188C971.034,392.159 970.511,393.454 970.511,394.803C970.511,396.151 971.034,397.447 971.971,398.417L986.486,413.458L966.202,408.408C964.894,408.082 963.51,408.277 962.343,408.951C961.175,409.625 960.314,410.726 959.942,412.022L954.174,432.114L948.406,412.022C948.034,410.726 947.173,409.625 946.006,408.951C944.838,408.277 943.454,408.082 942.146,408.408L921.862,413.458L936.378,398.417C937.314,397.447 937.837,396.151 937.837,394.803C937.837,393.454 937.314,392.159 936.378,391.188L921.862,376.147L942.146,381.198C943.454,381.523 944.838,381.329 946.006,380.655C947.173,379.98 948.034,378.879 948.406,377.583L954.174,357.492Z" style="fill:rgb(51,80,163);"/>
    </g>
    <g transform="matrix(1.52424,0.00731372,-0.00731372,1.52424,-593.804,-465.275)">
        <path d="M954.174,357.492L959.942,377.583C960.314,378.879 961.175,379.98 962.343,380.655C963.51,381.329 964.894,381.523 966.202,381.198L986.486,376.147L971.971,391.188C971.034,392.159 970.511,393.454 970.511,394.803C970.511,396.151 971.034,397.447 971.971,398.417L986.486,413.458L966.202,408.408C964.894,408.082 963.51,408.277 962.343,408.951C961.175,409.625 960.314,410.726 959.942,412.022L954.174,432.114L948.406,412.022C948.034,410.726 947.173,409.625 946.006,408.951C944.838,408.277 943.454,408.082 942.146,408.408L921.862,413.458L936.378,398.417C937.314,397.447 937.837,396.151 937.837,394.803C937.837,393.454 937.314,392.159 936.378,391.188L921.862,376.147L942.146,381.198C943.454,381.523 944.838,381.329 946.006,380.655C947.173,379.98 948.034,378.879 948.406,377.583L954.174,357.492Z" style="fill:none;"/>
    </g>
    <g transform="matrix(1.52424,0.00731372,-0.00731372,1.52424,-898.698,-409.533)">
        <path d="M955.593,357.084L961.361,377.176C961.628,378.104 962.244,378.893 963.081,379.376C963.917,379.859 964.908,379.999 965.846,379.765L986.13,374.715C986.769,374.556 987.436,374.839 987.765,375.409C988.094,375.979 988.006,376.699 987.549,377.172L973.033,392.213C972.362,392.909 971.987,393.837 971.987,394.803C971.987,395.769 972.362,396.697 973.033,397.392L987.549,412.433C988.006,412.907 988.094,413.626 987.765,414.196C987.436,414.766 986.769,415.05 986.13,414.89L965.846,409.84C964.908,409.607 963.917,409.746 963.081,410.229C962.244,410.712 961.628,411.501 961.361,412.429L955.593,432.521C955.411,433.154 954.833,433.59 954.174,433.59C953.516,433.59 952.937,433.154 952.755,432.521L946.987,412.429C946.721,411.501 946.104,410.712 945.268,410.229C944.431,409.746 943.44,409.607 942.503,409.84L922.219,414.89C921.58,415.05 920.913,414.766 920.584,414.196C920.254,413.626 920.343,412.907 920.8,412.433L935.316,397.392C935.986,396.697 936.361,395.769 936.361,394.803C936.361,393.837 935.986,392.909 935.316,392.213L920.8,377.172C920.343,376.699 920.254,375.979 920.584,375.409C920.913,374.839 921.58,374.556 922.219,374.715L942.503,379.765C943.44,379.999 944.431,379.859 945.268,379.376C946.104,378.893 946.721,378.104 946.987,377.176L952.755,357.084C952.937,356.452 953.516,356.016 954.174,356.016C954.833,356.016 955.411,356.452 955.593,357.084ZM954.174,362.841L949.825,377.991C949.347,379.654 948.243,381.068 946.744,381.933C945.245,382.798 943.469,383.048 941.789,382.63L926.495,378.822L937.44,390.163C938.642,391.409 939.313,393.072 939.313,394.803C939.313,396.533 938.642,398.197 937.44,399.442L926.495,410.783L941.789,406.975C943.469,406.557 945.245,406.807 946.744,407.672C948.243,408.538 949.347,409.951 949.825,411.615L954.174,426.764L958.524,411.615C959.001,409.951 960.106,408.538 961.605,407.672C963.103,406.807 964.88,406.557 966.559,406.975L981.854,410.783L970.908,399.442C969.707,398.197 969.035,396.533 969.035,394.803C969.035,393.072 969.707,391.409 970.908,390.163L981.854,378.822L966.559,382.63C964.88,383.048 963.103,382.798 961.605,381.933C960.106,381.068 959.001,379.654 958.524,377.991L954.174,362.841Z"/>
    </g>
</svg>
