<?xml version="1.0" encoding="UTF-8" standalone="no"?>
<!DOCTYPE svg PUBLIC "-//W3C//DTD SVG 1.1//EN" "http://www.w3.org/Graphics/SVG/1.1/DTD/svg11.dtd">
<svg width="100%" height="100%" viewBox="0 0 2000 2000" version="1.1" xmlns="http://www.w3.org/2000/svg" xmlns:xlink="http://www.w3.org/1999/xlink" xml:space="preserve" xmlns:serif="http://www.serif.com/" style="fill-rule:evenodd;clip-rule:evenodd;stroke-linejoin:round;stroke-miterlimit:2;">
    <path d="M672.8,791.2C751.6,791.2 815.5,727.3 815.5,648.5C815.5,569.7 751.6,505.8 672.8,505.8C594,505.8 530.1,569.7 530.1,648.5C530.1,727.3 594,791.2 672.8,791.2Z" style="fill:rgb(2,19,59);fill-rule:nonzero;"/>
    <path d="M679.8,781.8C758.6,781.8 822.5,717.9 822.5,639.1C822.5,560.3 758.6,496.4 679.8,496.4C601,496.4 537.1,560.3 537.1,639.1C537.1,717.9 601,781.8 679.8,781.8Z" style="fill:white;fill-rule:nonzero;"/>
    <path d="M679.8,783.8C651.2,783.8 623.2,775.3 599.4,759.4C575.6,743.5 557.1,720.9 546.1,694.5C535.2,668.1 532.3,639 537.9,610.9C543.5,582.8 557.3,557.1 577.5,536.8C597.7,516.6 623.5,502.8 651.6,497.2C679.7,491.6 708.7,494.5 735.2,505.4C761.6,516.3 784.2,534.9 800.1,558.7C816,582.5 824.5,610.5 824.5,639.1C824.5,677.5 809.3,714.3 782.1,741.4C754.9,768.5 718.2,783.8 679.8,783.8ZM679.8,498.8C652,498.8 624.7,507.1 601.6,522.5C578.4,538 560.4,560 549.8,585.7C539.2,611.4 536.4,639.7 541.9,667.1C547.4,694.4 560.8,719.5 580.5,739.1C600.2,758.8 625.3,772.1 652.7,777.5C680,782.9 708.3,780 734,769.3C759.7,758.6 781.7,740.5 797.1,717.3C812.5,694.1 820.7,666.9 820.6,639C820.6,620.5 817,602.3 809.9,585.2C802.8,568.1 792.5,552.7 779.4,539.6C766.3,526.6 750.8,516.2 733.7,509.2C716.6,502.3 698.3,498.8 679.8,498.8Z" style="fill:rgb(2,19,59);fill-rule:nonzero;"/>
    <path d="M679.8,749.7C740.8,749.7 790.3,700.2 790.3,639.2C790.3,578.2 740.8,528.7 679.8,528.7C618.8,528.7 569.3,578.2 569.3,639.2C569.3,700.2 618.8,749.7 679.8,749.7Z" style="fill:white;fill-rule:nonzero;"/>
    <path d="M679.8,751.6C657.6,751.6 635.8,745 617.3,732.6C598.8,720.2 584.4,702.7 575.9,682.1C567.4,661.5 565.2,638.9 569.5,617.1C573.8,595.3 584.6,575.2 600.3,559.5C616,543.8 636.1,533.1 657.9,528.7C679.7,524.4 702.3,526.6 722.9,535.1C743.5,543.6 761,558 773.4,576.5C785.8,595 792.4,616.7 792.4,639C792.3,668.8 780.4,697.4 759.3,718.4C738.2,739.6 709.6,751.5 679.8,751.6ZM679.8,530.6C658.3,530.6 637.3,537 619.5,548.9C601.6,560.8 587.7,577.8 579.5,597.6C571.3,617.4 569.1,639.3 573.3,660.3C577.5,681.4 587.8,700.7 603,715.9C618.2,731.1 637.5,741.4 658.6,745.6C679.7,749.8 701.5,747.6 721.3,739.4C741.1,731.2 758.1,717.3 770,699.4C781.9,681.5 788.3,660.6 788.3,639.1C788.2,610.3 776.7,582.8 756.4,562.4C736.1,542.1 708.6,530.7 679.8,530.6Z" style="fill:rgb(2,19,59);fill-rule:nonzero;"/>
    <path d="M672.8,587.4L672.8,653.3L754.7,654.5L672.8,587.4Z" style="fill:white;fill-rule:nonzero;"/>
    <path d="M754.7,656.4L672.8,655.2C672.3,655.2 671.8,655 671.4,654.6C671,654.2 670.8,653.7 670.8,653.2L670.8,587.3C670.8,586.8 671,586.3 671.4,585.9C671.8,585.5 672.3,585.3 672.8,585.3C673.3,585.3 673.8,585.5 674.2,585.9C674.6,586.3 674.8,586.8 674.8,587.3L674.8,651.2L754.8,652.4C755.3,652.4 755.8,652.6 756.2,653C756.6,653.4 756.8,653.9 756.8,654.4C756.8,654.9 756.6,655.4 756.2,655.8C755.7,656.2 755.2,656.4 754.7,656.4Z" style="fill:rgb(2,19,59);fill-rule:nonzero;"/>
    <path d="M1078.4,1611.6C1106.6,1611.6 1129.4,1588.8 1129.4,1560.6C1129.4,1532.5 1106.6,1509.6 1078.4,1509.6C1050.3,1509.6 1027.5,1532.4 1027.5,1560.6C1027.5,1588.8 1050.3,1611.6 1078.4,1611.6Z" style="fill:rgb(247,174,56);fill-rule:nonzero;"/>
    <path d="M1056.1,1502.7C1066.9,1502.7 1075.7,1493.9 1075.7,1483.1C1075.7,1472.3 1066.9,1463.5 1056.1,1463.5C1045.3,1463.5 1036.5,1472.3 1036.5,1483.1C1036.5,1493.9 1045.3,1502.7 1056.1,1502.7Z" style="fill:white;fill-rule:nonzero;"/>
    <path d="M1056.1,1504.6C1051.8,1504.6 1047.7,1503.3 1044.1,1501C1040.6,1498.6 1037.8,1495.3 1036.2,1491.3C1034.6,1487.4 1034.2,1483 1035,1478.8C1035.8,1474.6 1037.9,1470.8 1040.9,1467.8C1043.9,1464.8 1047.7,1462.7 1051.9,1461.9C1056.1,1461.1 1060.4,1461.5 1064.3,1463.1C1068.2,1464.7 1071.6,1467.5 1074,1471C1076.4,1474.5 1077.6,1478.7 1077.6,1483C1077.6,1488.7 1075.3,1494.2 1071.3,1498.2C1067.3,1502.3 1061.8,1504.6 1056.1,1504.6ZM1056.1,1465.8C1052.6,1465.8 1049.2,1466.8 1046.3,1468.8C1043.4,1470.8 1041.1,1473.5 1039.8,1476.8C1038.5,1480 1038.1,1483.6 1038.9,1487C1039.6,1490.4 1041.3,1493.6 1043.8,1496C1046.3,1498.4 1049.5,1500.1 1052.9,1500.7C1056.3,1501.3 1059.9,1500.9 1063.1,1499.5C1066.3,1498.1 1069,1495.8 1070.9,1492.8C1072.8,1489.9 1073.8,1486.4 1073.7,1482.9C1073.6,1478.3 1071.7,1473.9 1068.4,1470.7C1065.2,1467.6 1060.7,1465.8 1056.1,1465.8Z" style="fill:rgb(2,19,59);fill-rule:nonzero;"/>
    <path d="M982.5,1450.2C977.6,1439.3 964.9,1434.5 954,1439.4C943.1,1444.3 938.3,1457 943.2,1467.9L999.2,1592.4C1004.1,1603.3 1016.8,1608.1 1027.7,1603.2C1038.6,1598.3 1043.4,1585.6 1038.5,1574.7L982.5,1450.2Z" style="fill:white;fill-rule:nonzero;"/>
    <path d="M1018.5,1608.5C1014,1608.5 1009.5,1607.3 1005.7,1604.8C1001.9,1602.4 998.8,1598.9 996.9,1594.8L940.8,1470.1C938.3,1464.4 938.1,1457.9 940.3,1452C942.5,1446.2 947,1441.4 952.7,1438.9C958.4,1436.4 964.9,1436.2 970.8,1438.4C976.6,1440.6 981.4,1445.1 983.9,1450.8L1039.6,1575.5C1041,1578.3 1041.7,1581.3 1041.9,1584.4C1042.1,1587.5 1041.5,1590.6 1040.4,1593.5C1039.3,1596.4 1037.6,1599 1035.5,1601.3C1033.3,1603.5 1030.7,1605.3 1027.9,1606.5C1025,1607.9 1021.7,1608.6 1018.5,1608.5ZM962.4,1440.7C959.7,1440.8 957,1441.4 954.6,1442.7C949.9,1444.8 946.2,1448.7 944.3,1453.6C942.4,1458.4 942.4,1463.8 944.4,1468.6L1000.4,1593.2C1001.4,1595.6 1002.9,1597.7 1004.8,1599.4C1006.7,1601.2 1008.9,1602.5 1011.3,1603.4C1016.1,1605.2 1021.5,1605.1 1026.2,1603C1028.6,1602 1030.7,1600.5 1032.4,1598.6C1034.2,1596.7 1035.5,1594.5 1036.3,1592.1C1037.3,1589.7 1037.8,1587.2 1037.7,1584.6C1037.6,1582 1037,1579.5 1035.9,1577.2L980.2,1452.5C977.9,1447.9 974,1444.3 969.2,1442.3C967.2,1441.4 964.9,1440.9 962.4,1440.7Z" style="fill:rgb(2,19,59);fill-rule:nonzero;"/>
    <path d="M973.4,1621.4C983.8,1621.4 992.2,1613 992.2,1602.6C992.2,1592.2 983.8,1583.8 973.4,1583.8C963,1583.8 954.6,1592.2 954.6,1602.6C954.6,1613 963,1621.4 973.4,1621.4Z" style="fill:rgb(51,80,163);fill-rule:nonzero;"/>
    <path d="M1140.4,1612.8C1149.3,1612.8 1156.5,1605.6 1156.5,1596.7C1156.5,1587.8 1149.3,1580.6 1140.4,1580.6C1131.5,1580.6 1124.3,1587.8 1124.3,1596.7C1124.3,1605.6 1131.5,1612.8 1140.4,1612.8Z" style="fill:rgb(202,202,202);fill-rule:nonzero;"/>
    <path d="M1036.5,1667.7L1035.3,1667.7L972.2,1603.8C972,1603.6 971.8,1603.4 971.7,1603.2C971.6,1603 971.5,1602.7 971.5,1602.4C971.5,1602.1 971.5,1601.8 971.6,1601.6C971.7,1601.3 971.9,1601.1 972.1,1600.9C972.3,1600.7 972.5,1600.6 972.8,1600.5C973.1,1600.4 973.3,1600.4 973.6,1600.4C973.9,1600.4 974.2,1600.5 974.4,1600.6C974.6,1600.7 974.9,1600.9 975,1601.2L1038.1,1664.7C1038.5,1665.1 1038.7,1665.6 1038.7,1666.1C1038.7,1666.6 1038.5,1667.1 1038.1,1667.5L1036.5,1667.7Z" style="fill:rgb(2,19,59);fill-rule:nonzero;"/>
    <path d="M1055.7,1673.2C1055.2,1673.2 1054.7,1673 1054.3,1672.6C1053.9,1672.2 1053.7,1671.7 1053.7,1671.2L1053.7,1483.1C1053.7,1482.6 1053.9,1482.1 1054.3,1481.7C1054.7,1481.3 1055.2,1481.1 1055.7,1481.1C1056.2,1481.1 1056.7,1481.3 1057.1,1481.7C1057.5,1482.1 1057.7,1482.6 1057.7,1483.1L1057.7,1671.2C1057.7,1671.7 1057.5,1672.2 1057.1,1672.6C1056.7,1673 1056.2,1673.2 1055.7,1673.2Z" style="fill:rgb(2,19,59);fill-rule:nonzero;"/>
    <path d="M1078.4,1657.9L1077.2,1657.1C1076.8,1656.7 1076.6,1656.2 1076.6,1655.7C1076.6,1655.2 1076.8,1654.7 1077.2,1654.3L1138.7,1595.1C1139.1,1594.9 1139.6,1594.8 1140.1,1594.9C1140.6,1595 1141.1,1595.2 1141.4,1595.5C1141.8,1595.9 1142,1596.4 1142,1596.9C1142,1597.4 1141.8,1597.9 1141.4,1598.3L1079.9,1657.1C1079.7,1657.3 1079.5,1657.5 1079.2,1657.7C1079.1,1657.8 1078.8,1657.9 1078.4,1657.9Z" style="fill:rgb(2,19,59);fill-rule:nonzero;"/>
    <path d="M1071.8,1702.9C1071.3,1702.9 1070.8,1702.7 1070.4,1702.3C1070,1701.9 1069.8,1701.4 1069.8,1700.9L1076.5,1560.2C1076.9,1559.4 1077.3,1558.2 1078.9,1558.6C1079.4,1558.7 1079.7,1558.9 1080,1559.3C1080.3,1559.7 1080.4,1560.1 1080.4,1560.6L1073.7,1700.9C1073.7,1701.4 1073.5,1701.9 1073.1,1702.3C1072.8,1702.7 1072.3,1702.9 1071.8,1702.9Z" style="fill:rgb(2,19,59);fill-rule:nonzero;"/>
    <path d="M1069.1,1700.6C1068.3,1700.6 1067.9,1699.8 1067.5,1699.4L963.2,1467C963.1,1466.8 963,1466.5 963,1466.2C963,1465.9 963,1465.7 963.1,1465.4C963.2,1465.1 963.3,1464.9 963.5,1464.7C963.7,1464.5 963.9,1464.3 964.1,1464.2C964.3,1464.1 964.6,1464 964.9,1464C965.2,1464 965.4,1464 965.7,1464.1C966,1464.2 966.2,1464.3 966.4,1464.5C966.6,1464.7 966.8,1464.9 966.9,1465.1L1071.2,1697.5C1071.3,1697.8 1071.4,1698 1071.4,1698.3C1071.4,1698.6 1071.4,1698.9 1071.2,1699.1C1071.1,1699.4 1070.9,1699.6 1070.7,1699.8C1070.5,1700 1070.2,1700.1 1070,1700.2L1069.1,1700.6Z" style="fill:rgb(2,19,59);fill-rule:nonzero;"/>
    <path d="M1152.2,1708.4C1152.2,1739.8 1110.2,1764.8 1058.1,1764.8C1006,1764.8 964,1739.7 964,1708.4C964,1686.1 985.6,1666.9 1016.5,1657.4L992.6,1631.5L1123.5,1631.5L1101.9,1658.2C1131.8,1667.7 1152.2,1686.5 1152.2,1708.4Z" style="fill:white;fill-rule:nonzero;"/>
    <path d="M1058.1,1766.8C1005.2,1766.8 962.1,1740.5 962.1,1708.4C962.1,1686.5 981.7,1666.9 1013.1,1656.7L991.5,1632.8C990.7,1632.4 990.7,1631.6 991.1,1630.8C991.5,1630 991.9,1629.6 992.7,1629.6L1123.6,1629.6C1124.4,1629.6 1125.2,1630 1125.2,1630.8C1125.4,1631.1 1125.5,1631.4 1125.5,1631.8C1125.5,1632.1 1125.4,1632.5 1125.2,1632.8L1105.2,1657.1C1135.4,1667.7 1154.2,1686.9 1154.2,1708.4C1154.1,1740.6 1111,1766.8 1058.1,1766.8ZM997.3,1633.6L1018.1,1656.3C1018.5,1656.7 1018.9,1657.5 1018.5,1657.9C1018.1,1658.3 1017.7,1659.1 1017.3,1659.5C986.3,1668.5 965.9,1687.7 965.9,1708.5C965.9,1738.7 1007.5,1763 1058,1763C1108.6,1763 1150.1,1738.7 1150.1,1708.5C1150.1,1688.1 1131.3,1669.7 1101.1,1660.3C1100.3,1659.9 1099.9,1659.5 1099.9,1658.7C1099.9,1657.9 1099.9,1657.5 1100.3,1657.1L1119.1,1633.6L997.3,1633.6Z" style="fill:rgb(2,19,59);fill-rule:nonzero;"/>
    <path d="M687.7,1765.3C713.7,1765.3 734.7,1744.2 734.7,1718.3C734.7,1692.4 713.6,1671.3 687.7,1671.3C661.7,1671.3 640.7,1692.4 640.7,1718.3C640.7,1744.2 661.7,1765.3 687.7,1765.3Z" style="fill:rgb(51,80,163);fill-rule:nonzero;"/>
    <g transform="matrix(1.21736,0.00584119,-0.00584119,1.21736,-2474.02,-21.7558)">
        <path d="M2325.62,531.267C2325.62,563.545 2314.86,574.305 2282.58,574.305C2314.86,574.305 2325.62,585.064 2325.62,617.342C2325.62,585.064 2336.38,574.305 2368.65,574.305C2336.38,574.305 2325.62,563.545 2325.62,531.267Z" style="fill:rgb(51,80,163);fill-rule:nonzero;"/>
    </g>
    <g transform="matrix(1.14346,0.00548662,-0.00548662,1.14346,-2320,10.5842)">
        <path d="M2282.58,572.556C2298.11,572.556 2308.5,570.122 2314.97,563.653C2321.44,557.185 2323.87,546.792 2323.87,531.267L2327.37,531.267C2327.37,546.792 2329.8,557.185 2336.27,563.654C2342.74,570.122 2353.13,572.556 2368.65,572.556L2368.65,576.054C2353.13,576.054 2342.74,578.487 2336.27,584.956C2329.8,591.425 2327.37,601.817 2327.37,617.342L2323.87,617.342C2323.87,601.817 2321.44,591.425 2314.97,584.956C2308.5,578.487 2298.11,576.054 2282.58,576.054L2282.58,572.556ZM2325.62,598.609C2327.18,591.723 2329.84,586.437 2333.8,582.483C2337.75,578.528 2343.04,575.868 2349.92,574.305C2343.04,572.742 2337.75,570.082 2333.8,566.127C2329.84,562.172 2327.18,556.886 2325.62,550.001C2324.06,556.886 2321.4,562.172 2317.44,566.127C2313.49,570.082 2308.2,572.742 2301.32,574.305C2308.2,575.868 2313.49,578.528 2317.44,582.482C2321.4,586.437 2324.06,591.723 2325.62,598.609Z"/>
    </g>
    <path d="M713.1,1777C703.4,1777 693.9,1774.1 685.9,1768.7C677.8,1763.3 671.6,1755.7 667.9,1746.7C664.2,1737.7 663.2,1727.9 665.1,1718.4C667,1708.9 671.7,1700.2 678.5,1693.3C685.4,1686.5 694.1,1681.8 703.6,1679.9C713.1,1678 723,1679 731.9,1682.7C740.8,1686.4 748.5,1692.7 753.9,1700.7C759.3,1708.8 762.2,1718.2 762.2,1727.9C762.2,1740.9 757,1753.4 747.8,1762.5C738.6,1771.9 726.1,1777 713.1,1777ZM713.1,1683.3C704.2,1683.3 695.4,1686 688,1690.9C680.6,1695.9 674.8,1702.9 671.4,1711.2C668,1719.5 667.1,1728.5 668.9,1737.3C670.7,1746.1 675,1754.1 681.3,1760.4C687.6,1766.7 695.7,1771 704.5,1772.6C713.3,1774.3 722.3,1773.3 730.6,1769.9C738.8,1766.4 745.8,1760.6 750.7,1753.1C755.6,1745.6 758.2,1736.9 758.1,1728C758.1,1722.1 756.9,1716.2 754.7,1710.8C752.4,1705.4 749.1,1700.4 744.9,1696.3C740.7,1692.1 735.7,1688.9 730.3,1686.6C724.9,1684.4 719,1683.3 713.1,1683.3Z" style="fill:rgb(2,19,59);fill-rule:nonzero;"/>
    <path d="M793.5,798.3C793,798.3 792.6,798.2 792.2,797.9C791.8,797.6 791.6,797.2 791.5,796.8L785.6,777.2C785.4,776.7 785.5,776.1 785.7,775.6C785.9,775.1 786.3,774.7 786.8,774.4C788,774.4 789.2,774.8 789.2,776L795.1,795.6C795.5,796.8 795.1,798 793.9,798L793.5,798.3Z" style="fill:rgb(202,202,202);fill-rule:nonzero;"/>
    <path d="M1747.6,894.7L1746.4,894.7C1746,894.4 1745.7,893.9 1745.6,893.4C1745.5,892.9 1745.7,892.4 1746,891.9L1767.9,862.5C1768.3,862.2 1768.7,861.9 1769.2,861.9C1769.7,861.8 1770.2,861.9 1770.6,862.2C1770.9,862.3 1771.1,862.5 1771.3,862.7C1771.5,862.9 1771.6,863.2 1771.6,863.5C1771.6,863.8 1771.6,864.1 1771.5,864.3C1771.4,864.6 1771.2,864.8 1771,865L1749.1,894.4C1748.9,894.6 1748.7,894.7 1748.4,894.8C1748.1,894.8 1747.8,894.8 1747.6,894.7Z" style="fill:rgb(2,19,59);fill-rule:nonzero;"/>
    <path d="M279.2,498C278.8,498 278.4,497.9 278,497.7C277.6,497.5 277.4,497.2 277.2,496.8L261.1,453.3C260.7,452.5 261.5,451.3 262.3,450.9C262.6,450.8 262.8,450.7 263.1,450.7C263.4,450.7 263.7,450.7 263.9,450.9C264.2,451 264.4,451.2 264.6,451.4C264.8,451.6 264.9,451.9 265,452.1L280.7,495.2C280.9,495.7 280.9,496.2 280.8,496.7C280.7,497.2 280.4,497.6 279.9,497.9L279.2,497.9L279.2,498Z" style="fill:rgb(2,19,59);fill-rule:nonzero;"/>
    <path d="M1758.5,271.5L1757.3,271.5L1722.8,246C1722.4,245.7 1722.1,245.2 1722,244.7C1721.9,244.2 1722.1,243.7 1722.4,243.2C1722.7,242.8 1723.2,242.5 1723.7,242.4C1724.2,242.3 1724.7,242.5 1725.1,242.8L1759.6,268.3C1760,268.6 1760.3,269.1 1760.4,269.6C1760.5,270.1 1760.3,270.6 1760,271.1C1759.7,271.5 1759.3,271.5 1758.5,271.5Z" style="fill:rgb(202,202,202);fill-rule:nonzero;"/>
    <path d="M120.1,865.3L118.9,865.3C118.7,865.2 118.5,865 118.4,864.8C118.3,864.6 118.2,864.4 118.2,864.2L118.2,863.5C118.3,863.3 118.4,863.1 118.5,862.9L139.7,828C140,827.6 140.5,827.3 141,827.2C141.5,827.1 142,827.3 142.5,827.6C142.9,827.8 143.2,828.2 143.3,828.6C143.4,829 143.4,829.5 143.3,829.9L121.7,864.8L120.1,865.3Z" style="fill:rgb(2,19,59);fill-rule:nonzero;"/>
    <path d="M372.1,1709.6C371.7,1709.6 371.3,1709.5 370.9,1709.3C370.5,1709.1 370.3,1708.8 370.1,1708.4L353.2,1672C353,1671.5 353,1671 353.1,1670.5C353.2,1670 353.5,1669.6 354,1669.3C354.3,1669.2 354.5,1669.1 354.8,1669.1C355.1,1669.1 355.4,1669.1 355.6,1669.3C355.9,1669.4 356.1,1669.6 356.3,1669.8C356.5,1670 356.6,1670.3 356.7,1670.5L373.6,1706.9C373.7,1707.1 373.8,1707.4 373.9,1707.7C373.9,1708 373.9,1708.2 373.8,1708.5C373.7,1708.8 373.6,1709 373.4,1709.2C373.2,1709.4 373,1709.6 372.8,1709.7L372.1,1709.7L372.1,1709.6Z" style="fill:rgb(202,202,202);fill-rule:nonzero;"/>
    <rect x="1428.1" y="904.1" width="47.8" height="48" style="fill:rgb(58,129,225);fill-rule:nonzero;"/>
    <path d="M1460.6,942.9L1412.8,942.9C1412.3,942.9 1411.8,942.7 1411.4,942.3C1411,941.9 1410.8,941.4 1410.8,940.9L1410.8,892.7C1410.8,892.2 1411,891.7 1411.4,891.3C1411.8,890.9 1412.3,890.7 1412.8,890.7L1460.6,890.7C1461.1,890.7 1461.6,890.9 1462,891.3C1462.4,891.7 1462.6,892.2 1462.6,892.7L1462.6,941C1462.6,941.5 1462.4,942 1462,942.4C1461.7,942.7 1461.2,942.9 1460.6,942.9ZM1414.8,939L1458.7,939L1458.7,894.7L1414.8,894.7L1414.8,939Z" style="fill:rgb(2,19,59);fill-rule:nonzero;"/>
    <path d="M775.9,355.9L733.6,335.4L713,377.6L755.3,398.1L775.9,355.9Z" style="fill:rgb(247,174,56);fill-rule:nonzero;"/>
    <path d="M765.7,416.5L764.5,416.5L722.6,396.1C722.1,395.8 721.7,395.4 721.5,394.9C721.3,394.4 721.3,393.8 721.4,393.3L742.2,351C742.2,350.6 742.6,350.2 743.4,350.2C744.2,350.2 744.2,349.8 745,350.2L786.9,370.6C787.2,370.7 787.4,370.8 787.6,371C787.8,371.2 788,371.4 788.1,371.7C788.2,372 788.3,372.2 788.3,372.5C788.3,372.8 788.2,373.1 788.1,373.3L767.3,415.6L765.7,416.5ZM726.1,393.4L764.5,412.2L783.3,373.4L744.9,354.6L726.1,393.4Z" style="fill:rgb(2,19,59);fill-rule:nonzero;"/>
    <path d="M1606.4,360.4C1618.5,360.4 1628.4,350.6 1628.4,338.4C1628.4,326.3 1618.6,316.4 1606.4,316.4C1594.3,316.4 1584.5,326.2 1584.5,338.4C1584.5,350.6 1594.3,360.4 1606.4,360.4Z" style="fill:rgb(202,202,202);fill-rule:nonzero;"/>
    <path d="M1617,362.4C1611.1,362 1605.6,359.4 1601.6,355C1597.6,350.6 1595.5,344.9 1595.7,339C1595.9,333.1 1598.3,327.5 1602.6,323.4C1606.8,319.3 1612.5,317 1618.4,317C1624.3,317 1630,319.3 1634.2,323.4C1638.4,327.5 1640.9,333.1 1641.1,339C1641.3,344.9 1639.2,350.7 1635.2,355C1631.2,359.4 1625.7,362 1619.8,362.4L1617,362.4ZM1617,318.5L1614.6,318.5C1609.3,319.2 1604.5,321.9 1601.2,326.1C1597.9,330.3 1596.4,335.6 1596.9,340.9C1597.2,343.5 1598,346.1 1599.3,348.4C1600.6,350.7 1602.3,352.8 1604.4,354.4C1606.5,356 1608.9,357.3 1611.4,358C1613.9,358.7 1616.6,358.9 1619.2,358.6C1624.5,357.9 1629.3,355.2 1632.6,351C1635.9,346.8 1637.4,341.5 1636.9,336.2C1636.3,331.3 1634,326.8 1630.3,323.6C1626.7,320.2 1621.9,318.5 1617,318.5Z" style="fill:rgb(2,19,59);fill-rule:nonzero;"/>
    <path d="M1850.6,1257.7L1849.8,1257.7C1849.5,1257.7 1849.3,1257.6 1849.1,1257.4C1848.9,1257.2 1848.7,1257.1 1848.6,1256.8C1848.5,1256.6 1848.4,1256.3 1848.4,1256C1848.4,1255.7 1848.5,1255.5 1848.6,1255.3L1867,1208.7C1867.3,1208.3 1867.7,1208 1868.2,1207.8C1868.7,1207.7 1869.2,1207.7 1869.7,1207.9C1870.5,1208.3 1871.3,1209.5 1870.9,1210.2L1852.5,1256.4C1852.3,1256.7 1852,1257 1851.7,1257.2C1851.4,1257.5 1851,1257.6 1850.6,1257.7Z" style="fill:rgb(58,129,225);fill-rule:nonzero;"/>
    <path d="M871.5,1866C871,1866 870.5,1865.8 870.1,1865.4C869.7,1865 869.5,1864.5 869.5,1864L862.4,1802.8C862.4,1802.3 862.5,1801.9 862.8,1801.5C863.1,1801.1 863.5,1800.9 863.9,1800.8C864.2,1800.7 864.4,1800.6 864.7,1800.6C865,1800.6 865.3,1800.7 865.5,1800.9C865.7,1801.1 865.9,1801.3 866.1,1801.6C866.2,1801.9 866.3,1802.2 866.2,1802.5L873.3,1863.7C873.3,1864.2 873.1,1864.7 872.8,1865.1C872.5,1865.5 872.1,1865.9 871.7,1866.1L871.5,1866.1L871.5,1866Z" style="fill:rgb(58,129,225);fill-rule:nonzero;"/>
    <path d="M1221.5,1862.9L1613.1,1061.3L1976.5,1870.7L1218,1870.7L1221.5,1862.9Z" style="fill:rgb(51,80,163);fill-rule:nonzero;"/>
    <path d="M1303.8,1599.1C1303.8,1599.1 1178.8,1450.2 1192.9,1429.4C1207,1408.6 1265,1475.7 1265,1475.7L1359.1,1453.4C1359.1,1453.4 1395.2,1598.4 1389.7,1599.2C1384.2,1599.9 1303.8,1599.1 1303.8,1599.1Z" style="fill:white;fill-rule:nonzero;"/>
    <path d="M1364.6,1601.4L1303.8,1601.4L1302.2,1600.6C1289.3,1585.3 1176.8,1450.1 1191.3,1428.5C1192.2,1427 1193.6,1425.7 1195.1,1424.8C1196.7,1423.9 1198.5,1423.4 1200.3,1423.4C1220.3,1422.2 1259.5,1466.1 1265.8,1473.2L1358.7,1451.2C1358.9,1451 1359.2,1451 1359.5,1451C1359.8,1451 1360.1,1451.1 1360.3,1451.3C1360.5,1451.5 1360.7,1451.7 1360.9,1452C1361,1452.3 1361.1,1452.6 1361,1452.9C1371.6,1495.2 1395.5,1594.4 1391.6,1599.9C1391.5,1600.2 1391.3,1600.5 1391,1600.7C1390.7,1600.9 1390.4,1601 1390.1,1601.1L1364.6,1601.4ZM1304.6,1597.1L1388.1,1597.1C1388.9,1586.5 1370.5,1506.5 1357.9,1455.6L1265.4,1477.2C1265,1477.6 1264.2,1477.2 1263.4,1476.8C1251.2,1462.7 1216.4,1426.2 1200.3,1427.4C1199.2,1427.4 1198.1,1427.7 1197.1,1428.2C1196.1,1428.8 1195.3,1429.5 1194.8,1430.5C1185.1,1444.6 1254.8,1537.5 1304.6,1597.1Z" style="fill:rgb(2,19,59);fill-rule:nonzero;"/>
    <path d="M1372.4,1220.4C1365,1257.6 1365,1307.4 1419.4,1303.1L1435.1,1368.6L1537.4,1368.6L1515.5,1264.3C1515.5,1264.3 1505.7,1080.5 1416.3,1149.1C1393.6,1166.8 1378,1192.2 1372.4,1220.4Z" style="fill:white;fill-rule:nonzero;"/>
    <path d="M1537.5,1370.6L1435.2,1370.6C1434.8,1370.5 1434.4,1370.3 1434,1370C1433.6,1369.7 1433.4,1369.4 1433.2,1369L1417.9,1305.5C1400.7,1306.3 1387.7,1302 1379.1,1292.2C1363.4,1275 1366.2,1243.6 1370.9,1220.1C1376.3,1191.3 1392.1,1165.5 1415.2,1147.6C1435.2,1132.3 1452.8,1128 1467.7,1135.1C1511.2,1155.1 1517.1,1260.1 1517.5,1264.4L1539.5,1368.3C1539.5,1368.7 1539.1,1369.5 1539.1,1369.9L1537.5,1370.6ZM1436.7,1366.6L1534.7,1366.6L1513.5,1264.7C1513.1,1263.5 1507.2,1157.3 1466.1,1138.5C1452.4,1132.2 1436.3,1136.2 1417.5,1150.7C1395.2,1168.2 1379.9,1193.1 1374.4,1220.9C1370.1,1243.6 1367.7,1273.8 1381.8,1289.9C1390,1298.9 1402.6,1302.8 1419.4,1301.3C1420.2,1301.3 1421.4,1302.1 1421.4,1302.9L1436.7,1366.6Z" style="fill:rgb(2,19,59);fill-rule:nonzero;"/>
    <path d="M1365.8,1479.5L1227.8,1478.3L1212.9,1280.8L1328.5,1280.8L1365.8,1479.5Z" style="fill:rgb(202,202,202);fill-rule:nonzero;"/>
    <path d="M1281.5,1869.5C1284.2,1764.8 1267.8,1564.9 1267.8,1564.9L1351.7,1560.2C1361.7,1509.5 1376.3,1459.8 1395.2,1411.6C1401,1397.2 1410.3,1384.5 1422.3,1374.6C1434.3,1364.7 1448.6,1358.1 1463.8,1355.2C1510.1,1346.2 1579,1342.7 1626.5,1383.8C1704.1,1450.8 1861.3,1869.1 1861.3,1869.1L1281.5,1869.5Z" style="fill:white;fill-rule:nonzero;"/>
    <path d="M1281.5,1871.5L1279.9,1871.5C1279.5,1871.1 1279.5,1870.7 1279.5,1869.9C1282.2,1766.8 1266.2,1567.7 1265.8,1565.7C1265.8,1565.4 1265.9,1565.1 1266,1564.8C1266.1,1564.5 1266.3,1564.3 1266.6,1564.1L1267.8,1563.3L1350.1,1558.6C1352.4,1547.6 1366.6,1477.1 1393.2,1411.2C1399.2,1396.5 1408.8,1383.6 1421,1373.5C1433.2,1363.4 1447.8,1356.6 1463.3,1353.5C1511.9,1344.1 1580.1,1341.4 1627.5,1382.5C1704.7,1449.1 1856.4,1851.3 1863.1,1868.6C1863.2,1869.2 1863,1869.7 1862.7,1870.2C1862.3,1871 1861.9,1871.4 1861.1,1871.4L1281.5,1871.4L1281.5,1871.5ZM1270.1,1566.9C1271.7,1588.1 1285.8,1769.2 1283.4,1867.5L1858.4,1867.5C1844.7,1831.4 1698.1,1448.9 1625.2,1385.8C1578.9,1345.4 1511.9,1348.2 1464.1,1357.6C1449.1,1360.5 1435.1,1367 1423.4,1376.7C1411.6,1386.4 1402.4,1398.8 1396.7,1412.9C1378,1460.9 1363.6,1510.5 1353.6,1561.1C1353.5,1561.5 1353.3,1561.9 1352.9,1562.2C1352.5,1562.5 1352.1,1562.6 1351.6,1562.6L1270.1,1566.9Z" style="fill:rgb(2,19,59);fill-rule:nonzero;"/>
    <path d="M1419.9,1467.4C1419.9,1467.4 1426.2,1364.3 1303.9,1368.6C1207.9,1372.1 1243.1,1401.5 1243.1,1401.5C1243.1,1401.5 1226.3,1429.7 1251.3,1437.2C1251.3,1437.2 1227.8,1448.6 1246.6,1467.4C1265.4,1486.2 1330.9,1481.9 1347.7,1512.1C1364.6,1542.2 1419.9,1467.4 1419.9,1467.4Z" style="fill:white;fill-rule:nonzero;"/>
    <path d="M1359.1,1521.5L1357.9,1521.5C1355.4,1521.3 1353,1520.4 1350.9,1519C1348.8,1517.6 1347.2,1515.6 1346.1,1513.3C1335.9,1494.9 1304.5,1487.4 1279.5,1481.1C1263.4,1477.2 1250.5,1474.1 1245.4,1468.9C1240.3,1463.8 1236.8,1456.8 1237.6,1450.5C1239,1445.2 1242.4,1440.5 1247,1437.6C1242.6,1435.7 1239.1,1432.2 1237.2,1427.8C1233.3,1418 1238.8,1405.8 1240.7,1401.9C1242.7,1398 1232.9,1392.9 1235.2,1386.2C1237.6,1379.5 1262.3,1368.2 1303.8,1366.6C1345.4,1365 1374.8,1374.8 1395.1,1396C1424.1,1425.4 1422.1,1465.8 1421.7,1467.3C1421.7,1467.5 1421.7,1467.7 1421.6,1467.9C1421.5,1468.1 1421.4,1468.3 1421.3,1468.5C1419.9,1470.9 1382.6,1521.5 1359.1,1521.5ZM1311.3,1370.6L1303.8,1370.6C1252.1,1372.6 1241.1,1382 1239.1,1387.4C1237.1,1392.9 1244.2,1399.9 1244.2,1399.9C1244.4,1400 1244.6,1400.2 1244.7,1400.4C1244.8,1400.6 1244.9,1400.8 1244.9,1401L1244.9,1401.7C1244.8,1401.9 1244.7,1402.1 1244.6,1402.3C1244.6,1402.3 1236.8,1416.4 1240.7,1426.2C1241.7,1428.5 1243.3,1430.6 1245.3,1432.1C1247.3,1433.7 1249.6,1434.7 1252.1,1435.2C1252.9,1435.2 1253.3,1436 1253.3,1436.8C1253.3,1437.2 1253.2,1437.6 1253,1438C1252.8,1438.4 1252.5,1438.6 1252.1,1438.8C1252.1,1438.8 1242.7,1443.5 1241.5,1451.3C1240.3,1459.1 1243.1,1461.1 1248.2,1466.2C1253.3,1471.3 1265.4,1473.7 1280.7,1477.2C1306.6,1483.9 1338.7,1491.7 1349.3,1511.3C1350.1,1513 1351.4,1514.5 1353,1515.6C1354.6,1516.7 1356.4,1517.4 1358.3,1517.6L1359.1,1517.6C1379.5,1517.6 1414.4,1472.1 1418.3,1466.6C1422.2,1461.1 1418.3,1425.1 1392.4,1398.8C1374,1380 1346.6,1370.6 1311.3,1370.6Z" style="fill:rgb(2,19,59);fill-rule:nonzero;"/>
    <path d="M1595.1,1469.7L1521.4,1632L1433.2,1429.3L1318,1515.1C1318,1515.1 1417.6,1821.6 1507.7,1831.8C1669.2,1850.2 1695.5,1619.7 1695.5,1619.7L1595.1,1469.7Z" style="fill:white;fill-rule:nonzero;"/>
    <path d="M1525.3,1835.1L1507.3,1833.9C1469.3,1829.6 1425.4,1774.7 1377.2,1670.5C1341.5,1593.3 1316.4,1516.4 1316,1515.7C1315.6,1514.9 1316,1514.1 1316.8,1513.7L1432,1427.9L1433.6,1427.9C1434.4,1428.4 1434.8,1428.8 1434.8,1429.1L1521.4,1627.4L1593.5,1469.4C1593.7,1469 1594.1,1468.7 1594.5,1468.6C1594.9,1468.5 1595.4,1468.5 1595.8,1468.6C1596.1,1468.6 1596.3,1468.7 1596.5,1468.9C1596.7,1469.1 1596.9,1469.3 1597,1469.5C1597.1,1469.7 1597.2,1470 1597.2,1470.3C1597.2,1470.6 1597.1,1470.8 1597,1471L1522.9,1633.3C1522.8,1633.6 1522.6,1633.9 1522.3,1634.2C1522,1634.4 1521.7,1634.5 1521.3,1634.5C1520.5,1634.3 1519.9,1633.9 1519.3,1633.3L1432.3,1433L1320.2,1516.5C1327.6,1538.4 1422.9,1821.1 1507.6,1830.5C1573.8,1838 1625.2,1805 1660.1,1732.5C1686.4,1678.4 1693,1620.8 1693.4,1620.4C1693.4,1619.9 1693.6,1619.4 1694,1619C1694.4,1618.6 1694.9,1618.4 1695.4,1618.4C1696.6,1618.8 1697.4,1619.6 1697,1620.7C1691.7,1659.9 1680.4,1698.1 1663.7,1734C1631.5,1800.2 1584.1,1835.1 1525.3,1835.1Z" style="fill:rgb(2,19,59);fill-rule:nonzero;"/>
    <path d="M1303.8,1403.5L1243,1403.5C1242.5,1403.5 1242,1403.3 1241.6,1402.9C1241.2,1402.5 1241,1402 1241,1401.5C1241,1401 1241.2,1400.5 1241.6,1400.1C1242,1399.7 1242.5,1399.5 1243,1399.5L1303.8,1399.5C1304.3,1399.5 1304.8,1399.7 1305.2,1400.1C1305.6,1400.5 1305.8,1401 1305.8,1401.5C1305.8,1402 1305.6,1402.5 1305.2,1402.9C1304.9,1403.3 1304.4,1403.5 1303.8,1403.5Z" style="fill:rgb(2,19,59);fill-rule:nonzero;"/>
    <path d="M1303.8,1439.2L1251.3,1439.2C1250.8,1439.2 1250.3,1439 1249.9,1438.6C1249.5,1438.2 1249.3,1437.7 1249.3,1437.2C1249.3,1436.7 1249.5,1436.2 1249.9,1435.8C1250.3,1435.4 1250.8,1435.2 1251.3,1435.2L1303.8,1435.2C1304.3,1435.2 1304.8,1435.4 1305.2,1435.8C1305.6,1436.2 1305.8,1436.7 1305.8,1437.2C1305.8,1437.7 1305.6,1438.2 1305.2,1438.6C1304.9,1438.9 1304.4,1439.2 1303.8,1439.2Z" style="fill:rgb(2,19,59);fill-rule:nonzero;"/>
    <path d="M1252.9,1389.4C1250.1,1389.3 1247.4,1388.9 1244.7,1388.2C1244.2,1388 1243.9,1387.7 1243.7,1387.3C1243.5,1386.9 1243.4,1386.4 1243.6,1385.9C1243.6,1385.6 1243.7,1385.4 1243.9,1385.2C1244.1,1385 1244.2,1384.8 1244.5,1384.7C1244.7,1384.6 1245,1384.5 1245.3,1384.5C1245.6,1384.5 1245.8,1384.6 1246,1384.7C1246.4,1384.7 1255,1387.4 1261.3,1383.5C1263,1382.1 1264.4,1380.3 1265.4,1378.2C1266.3,1376.2 1266.8,1374 1266.8,1371.7C1266.8,1371.2 1267,1370.7 1267.4,1370.3C1267.8,1369.9 1268.3,1369.7 1268.8,1369.7C1269.3,1369.7 1269.8,1369.9 1270.2,1370.3C1270.6,1370.7 1270.8,1371.2 1270.8,1371.7C1270.8,1374.6 1270.2,1377.5 1268.9,1380.1C1267.6,1382.7 1265.7,1384.9 1263.3,1386.6C1260.1,1388.6 1256.5,1389.6 1252.9,1389.4Z" style="fill:rgb(2,19,59);fill-rule:nonzero;"/>
    <path d="M1249.4,1421.5L1245.1,1421.5C1244.8,1421.6 1244.5,1421.5 1244.2,1421.4C1243.9,1421.3 1243.7,1421.1 1243.5,1420.8C1243.3,1420.6 1243.2,1420.3 1243.2,1420C1243.2,1419.7 1243.3,1419.4 1243.4,1419.2C1243.4,1418.4 1244.6,1417.6 1245.7,1417.6C1250.7,1418.5 1255.9,1417.5 1260.2,1414.9C1261.9,1413.2 1263.2,1411.2 1264,1409C1264.8,1406.8 1265.1,1404.4 1264.9,1402C1264.9,1401.5 1265.1,1401 1265.5,1400.6C1265.9,1400.2 1266.4,1400 1266.9,1400C1267.4,1400 1267.8,1400.1 1268.2,1400.4C1268.6,1400.7 1268.8,1401.1 1268.9,1401.5C1269.2,1404.5 1268.8,1407.5 1267.7,1410.3C1266.6,1413.1 1264.9,1415.6 1262.7,1417.6C1258.8,1420.4 1254.1,1421.8 1249.4,1421.5Z" style="fill:rgb(2,19,59);fill-rule:nonzero;"/>
    <path d="M1254.8,1454.1C1252.4,1454.1 1250.1,1453.8 1247.8,1453.3C1246.6,1452.9 1245.8,1452.1 1246.2,1451C1246.3,1450.7 1246.3,1450.5 1246.5,1450.3C1246.6,1450.1 1246.8,1449.9 1247.1,1449.7C1247.3,1449.5 1247.6,1449.5 1247.8,1449.4L1248.6,1449.4C1248.6,1449.4 1259.6,1452.2 1265.5,1447.1C1266.9,1445.9 1268,1444.4 1268.7,1442.7C1269.4,1441 1269.6,1439.1 1269.5,1437.3C1269.5,1436.8 1269.7,1436.3 1270.1,1435.9C1270.5,1435.5 1271,1435.3 1271.5,1435.3C1272,1435.3 1272.5,1435.5 1272.9,1435.9C1273.3,1436.3 1273.5,1436.8 1273.5,1437.3C1273.7,1439.7 1273.3,1442.1 1272.5,1444.4C1271.6,1446.6 1270.2,1448.6 1268.4,1450.3C1264.3,1452.9 1259.6,1454.3 1254.8,1454.1Z" style="fill:rgb(2,19,59);fill-rule:nonzero;"/>
    <path d="M1384.6,1212.6C1387.4,1212.6 1389.7,1210.3 1389.7,1207.5C1389.7,1204.7 1387.4,1202.4 1384.6,1202.4C1381.8,1202.4 1379.5,1204.7 1379.5,1207.5C1379.5,1210.3 1381.8,1212.6 1384.6,1212.6Z" style="fill:rgb(2,19,59);fill-rule:nonzero;"/>
    <path d="M1421.8,1218.1C1424.6,1218.1 1426.9,1215.8 1426.9,1213C1426.9,1210.2 1424.6,1207.9 1421.8,1207.9C1419,1207.9 1416.7,1210.2 1416.7,1213C1416.7,1215.8 1419,1218.1 1421.8,1218.1Z" style="fill:rgb(2,19,59);fill-rule:nonzero;"/>
    <path d="M1390.1,1246.3C1389.7,1246.3 1389.3,1246.2 1388.9,1246C1388.6,1245.8 1388.3,1245.5 1388.1,1245.1C1385.4,1240 1375.9,1222.4 1381.1,1216.9C1386.2,1211.4 1390.5,1216.5 1392.9,1217.3C1393.3,1217.6 1393.5,1218.1 1393.7,1218.6C1393.8,1219.1 1393.9,1219.6 1393.7,1220.1C1393.7,1220.4 1393.5,1220.7 1393.3,1220.9C1393.1,1221.1 1392.8,1221.3 1392.5,1221.4C1392.2,1221.5 1391.9,1221.5 1391.6,1221.4C1391.3,1221.3 1391.1,1221.1 1390.9,1220.9C1386.6,1218.9 1384.6,1218.9 1383.8,1219.7C1383,1220.5 1386.1,1233.8 1391.6,1243.2C1392,1244.4 1392,1245.5 1390.8,1245.9L1390.1,1246.3Z" style="fill:rgb(2,19,59);fill-rule:nonzero;"/>
    <path d="M1401.4,1271C1395.9,1271 1390.5,1269.9 1385.4,1267.7C1380.4,1265.5 1375.8,1262.4 1372,1258.4C1371.7,1258 1371.6,1257.5 1371.6,1257C1371.7,1256.5 1371.9,1256 1372.4,1255.7C1372.8,1255.4 1373.3,1255.3 1373.9,1255.3C1374.4,1255.4 1374.9,1255.6 1375.2,1256.1C1376,1256.9 1393.2,1276.1 1421.1,1262C1421.6,1261.9 1422.1,1261.9 1422.6,1262C1423.1,1262.1 1423.5,1262.4 1423.9,1262.8C1424,1263.1 1424.1,1263.3 1424.1,1263.6C1424.1,1263.9 1424,1264.2 1423.9,1264.4C1423.8,1264.6 1423.6,1264.9 1423.4,1265.1C1423.2,1265.3 1422.9,1265.4 1422.7,1265.5C1416.1,1269 1408.8,1270.9 1401.4,1271Z" style="fill:rgb(2,19,59);fill-rule:nonzero;"/>
    <path d="M1390.1,1174.2L1453.2,1194.2C1453.2,1194.2 1465.3,1163.6 1465,1182.8C1464.6,1194.2 1450.1,1326.3 1450.1,1326.3C1450.1,1326.3 1532,1376.5 1597.1,1296.9C1597.1,1296.9 1576.3,1137 1475.2,1120.5C1420.3,1111.1 1390.1,1174.2 1390.1,1174.2Z" style="fill:rgb(2,19,59);fill-rule:nonzero;"/>
    <path d="M1510.4,1225.1C1516.1,1225.1 1521.6,1227.4 1525.6,1231.4C1529.6,1235.4 1531.9,1240.9 1531.9,1246.6C1531.9,1252.3 1529.6,1257.8 1525.6,1261.8C1521.6,1265.8 1516.1,1268.1 1510.4,1268.1L1510.4,1225.1Z" style="fill:white;fill-rule:nonzero;"/>
    <path d="M1510.4,1270.2C1509.9,1270.2 1509.4,1270 1509,1269.6C1508.6,1269.2 1508.4,1268.7 1508.4,1268.2C1508.4,1267.7 1508.6,1267.2 1509,1266.8C1509.4,1266.4 1509.9,1266.2 1510.4,1266.2C1515.6,1266.2 1520.6,1264.1 1524.3,1260.5C1528,1256.8 1530,1251.8 1530,1246.6C1530,1241.4 1527.9,1236.4 1524.3,1232.7C1520.6,1229 1515.6,1227 1510.4,1227C1509.9,1227 1509.4,1226.8 1509,1226.4C1508.6,1226 1508.4,1225.5 1508.4,1225C1508.4,1224.5 1508.6,1224 1509,1223.6C1509.4,1223.2 1509.9,1223 1510.4,1223C1516.6,1223 1522.6,1225.5 1527,1229.9C1531.4,1234.3 1533.9,1240.3 1533.9,1246.5C1533.9,1252.7 1531.4,1258.7 1527,1263.1C1522.6,1267.7 1516.7,1270.2 1510.4,1270.2Z" style="fill:rgb(2,19,59);fill-rule:nonzero;"/>
    <path d="M1513.2,1251L1511.6,1250.2C1511.3,1249.8 1511.2,1249.3 1511.2,1248.8C1511.3,1248.3 1511.6,1247.8 1512,1247.5L1522.6,1238.9C1523,1238.7 1523.5,1238.6 1524,1238.7C1524.5,1238.8 1524.9,1239 1525.3,1239.4C1525.5,1239.6 1525.7,1239.8 1525.8,1240.1C1525.9,1240.4 1526,1240.6 1525.9,1240.9C1525.9,1241.2 1525.7,1241.4 1525.6,1241.7C1525.4,1241.9 1525.2,1242.1 1524.9,1242.2L1514.3,1250.8L1513.2,1251Z" style="fill:rgb(2,19,59);fill-rule:nonzero;"/>
    <path d="M1519.4,1255.3C1518.9,1255.3 1518.4,1255.1 1518,1254.7C1517.6,1254.3 1517.4,1253.8 1517.4,1253.3L1517.4,1244.7C1517.4,1244.2 1517.6,1243.7 1518,1243.3C1518.4,1242.9 1518.9,1242.7 1519.4,1242.7C1519.9,1242.7 1520.4,1242.9 1520.8,1243.3C1521.2,1243.7 1521.4,1244.2 1521.4,1244.7L1521.4,1253.3C1521.4,1253.8 1521.2,1254.3 1520.8,1254.7C1520.4,1255.1 1519.9,1255.3 1519.4,1255.3Z" style="fill:rgb(2,19,59);fill-rule:nonzero;"/>
    <path d="M1418.7,1301.6C1418.7,1301.6 1443.8,1300.8 1452.4,1288.7L1425.3,1329.1L1418.7,1301.6Z" style="fill:rgb(2,19,59);fill-rule:nonzero;"/>
    <path d="M1234.8,1302C1230.1,1301.8 1225.6,1300.2 1221.9,1297.3C1217.9,1293.8 1215.4,1288.9 1214.8,1283.6C1214.4,1278.2 1216,1272.9 1219.5,1268.7C1222.9,1264.5 1227.9,1261.9 1233.2,1261.3C1238.5,1261 1243.8,1262.7 1247.9,1266.1C1252,1269.5 1254.6,1274.4 1255.2,1279.7C1255.2,1280.3 1255,1280.8 1254.7,1281.2C1254.3,1281.6 1253.8,1281.9 1253.3,1282C1252.8,1282 1252.3,1281.8 1251.9,1281.4C1251.5,1281 1251.3,1280.5 1251.3,1280C1250.9,1275.7 1248.8,1271.7 1245.5,1268.9C1242.2,1266.1 1237.9,1264.7 1233.6,1265.1C1231.4,1265.2 1229.3,1265.8 1227.3,1266.8C1225.3,1267.8 1223.6,1269.2 1222.2,1270.9C1220.8,1272.6 1219.8,1274.5 1219.2,1276.7C1218.6,1278.8 1218.4,1281 1218.7,1283.2C1218.9,1285.3 1219.5,1287.4 1220.5,1289.3C1221.5,1291.2 1222.9,1292.9 1224.6,1294.2C1226.2,1295.6 1228,1296.7 1230.1,1297.3C1232.1,1297.9 1234.3,1298.1 1236.4,1297.7C1237,1297.7 1237.5,1297.9 1237.9,1298.2C1238.3,1298.6 1238.6,1299.1 1238.7,1299.6C1238.7,1300.1 1238.5,1300.6 1238.1,1301C1237.7,1301.4 1237.2,1301.6 1236.7,1301.6L1234.8,1302Z" style="fill:rgb(2,19,59);fill-rule:nonzero;"/>
    <path d="M1259.6,1301.2C1254.5,1301.2 1249.7,1299.3 1246,1295.9C1242.3,1292.5 1240,1287.8 1239.6,1282.8C1239.6,1277.7 1241.5,1272.9 1244.9,1269.1C1248.3,1265.4 1253,1263 1258,1262.5C1263,1262 1268.1,1263.4 1272.1,1266.4C1276.2,1269.4 1278.9,1273.8 1279.9,1278.8C1279.9,1279.4 1279.7,1279.9 1279.3,1280.3C1278.9,1280.7 1278.4,1281 1277.9,1281.1C1277.4,1281.1 1276.9,1280.9 1276.5,1280.5C1276.1,1280.1 1275.9,1279.6 1275.9,1279.1C1275.8,1277 1275.2,1274.9 1274.2,1273C1273.2,1271.1 1271.9,1269.4 1270.2,1268.1C1268.6,1266.7 1266.6,1265.7 1264.6,1265.1C1262.6,1264.5 1260.4,1264.3 1258.3,1264.6C1254,1265 1250,1267.1 1247.2,1270.4C1244.4,1273.7 1243,1278 1243.4,1282.3C1243.6,1284.4 1244.2,1286.5 1245.2,1288.4C1246.2,1290.3 1247.6,1292 1249.3,1293.3C1250.9,1294.8 1252.7,1295.9 1254.7,1296.6C1256.7,1297.3 1258.9,1297.5 1261,1297.2C1261.5,1297.2 1262,1297.4 1262.4,1297.7C1262.8,1298 1263.1,1298.4 1263.4,1298.8C1263.4,1299.4 1263.2,1299.9 1262.9,1300.3C1262.5,1300.7 1262,1301 1261.5,1301.1L1259.6,1301.1L1259.6,1301.2Z" style="fill:rgb(2,19,59);fill-rule:nonzero;"/>
    <path d="M1287,1302C1282,1301.9 1277.1,1300 1273.3,1296.6C1269.5,1293.2 1267.2,1288.6 1266.6,1283.5C1266.2,1278.1 1267.8,1272.8 1271.3,1268.6C1274.7,1264.4 1279.7,1261.8 1285,1261.2C1290.3,1260.8 1295.7,1262.4 1299.8,1265.9C1303.9,1269.3 1306.5,1274.3 1307,1279.6C1307.4,1280.8 1306.6,1281.6 1305.4,1281.9C1304.9,1281.9 1304.4,1281.7 1304,1281.3C1303.6,1280.9 1303.4,1280.4 1303.4,1279.9C1303.1,1276.7 1301.8,1273.6 1299.8,1271.1C1297.8,1268.6 1295,1266.7 1291.9,1265.8C1288.8,1264.8 1285.5,1264.8 1282.4,1265.7C1279.3,1266.6 1276.5,1268.4 1274.4,1270.9C1271.6,1274.3 1270.2,1278.7 1270.5,1283.1C1271,1287.4 1273.1,1291.3 1276.4,1294.1C1278.1,1295.5 1280,1296.6 1282.1,1297.2C1284.2,1297.8 1286.4,1298 1288.6,1297.7C1289.1,1297.7 1289.6,1297.9 1290,1298.3C1290.4,1298.7 1290.6,1299.2 1290.6,1299.7C1290.6,1300.2 1290.5,1300.6 1290.2,1301C1289.9,1301.3 1289.5,1301.6 1289.1,1301.7L1287,1302Z" style="fill:rgb(2,19,59);fill-rule:nonzero;"/>
    <path d="M1305.8,1301.2C1301.1,1301.2 1296.5,1299.6 1292.9,1296.5C1288.9,1293 1286.3,1288.1 1285.8,1282.7C1285.3,1277.4 1286.9,1272 1290.2,1267.8C1293.7,1263.8 1298.6,1261.3 1303.9,1260.7C1309.2,1260.1 1314.6,1261.7 1318.8,1265.1C1323,1268.5 1325.7,1273.4 1326.3,1278.7C1326.3,1279.3 1326.1,1279.8 1325.8,1280.2C1325.4,1280.6 1324.9,1280.9 1324.4,1281C1323.9,1281 1323.4,1280.8 1323,1280.4C1322.6,1280 1322.4,1279.5 1322.4,1279C1322.2,1276.8 1321.6,1274.8 1320.6,1272.8C1319.6,1270.9 1318.2,1269.2 1316.5,1267.9C1314.8,1266.6 1312.9,1265.6 1310.8,1265C1308.7,1264.4 1306.5,1264.2 1304.4,1264.5C1302.3,1264.7 1300.2,1265.3 1298.3,1266.3C1296.4,1267.3 1294.7,1268.7 1293.4,1270.4C1292.1,1272 1291,1273.9 1290.4,1275.9C1289.8,1277.9 1289.6,1280.1 1289.8,1282.1C1290.1,1286.3 1292.1,1290.3 1295.3,1293.1C1296.9,1294.6 1298.9,1295.7 1301,1296.3C1303.1,1297 1305.3,1297.2 1307.5,1297C1308,1297 1308.4,1297.1 1308.8,1297.4C1309.2,1297.7 1309.4,1298.1 1309.5,1298.5C1309.7,1298.7 1309.7,1299 1309.7,1299.3C1309.7,1299.6 1309.6,1299.9 1309.4,1300.1C1309.2,1300.3 1309,1300.5 1308.7,1300.7C1308.4,1300.8 1308.1,1300.9 1307.8,1300.8L1305.8,1300.8L1305.8,1301.2Z" style="fill:rgb(2,19,59);fill-rule:nonzero;"/>
    <path d="M1328.5,1547.3C1328.2,1547.3 1327.9,1547.2 1327.6,1547.1C1327.3,1547 1327.1,1546.8 1326.9,1546.5C1326.6,1546.1 1326.5,1545.6 1326.5,1545C1326.6,1544.5 1326.8,1544 1327.3,1543.7L1446.9,1461.8C1447.3,1461.5 1447.8,1461.3 1448.3,1461.4C1448.8,1461.5 1449.3,1461.7 1449.6,1462.2C1449.8,1462.6 1449.9,1463.1 1449.8,1463.6C1449.7,1464.1 1449.5,1464.6 1449.2,1464.9L1329.6,1546.8L1328.5,1547.3Z" style="fill:rgb(2,19,59);fill-rule:nonzero;"/>
    <path d="M1423.8,1466.2C1428.1,1466.2 1431.6,1462.7 1431.6,1458.4C1431.6,1454.1 1428.1,1450.6 1423.8,1450.6C1419.5,1450.6 1416,1454.1 1416,1458.4C1416,1462.7 1419.4,1466.2 1423.8,1466.2Z" style="fill:rgb(202,202,202);fill-rule:nonzero;"/>
    <path d="M1289.3,1586.1C1293.6,1586.1 1297.1,1582.6 1297.1,1578.3C1297.1,1574 1293.6,1570.5 1289.3,1570.5C1285,1570.5 1281.5,1574 1281.5,1578.3C1281.5,1582.6 1285,1586.1 1289.3,1586.1Z" style="fill:rgb(202,202,202);fill-rule:nonzero;"/>
    <path d="M1271.7,1595.2C1270.9,1595.2 1270.1,1594.4 1269.7,1593.2C1269.7,1592.7 1269.9,1592.2 1270.3,1591.8C1270.7,1591.4 1271.2,1591.2 1271.7,1591.2L1342.6,1586.5C1343.1,1586.5 1343.5,1586.6 1343.9,1586.9C1344.3,1587.2 1344.5,1587.6 1344.6,1588C1344.6,1588.6 1344.4,1589.1 1344.1,1589.5C1343.7,1589.9 1343.2,1590.2 1342.7,1590.3L1272.1,1595L1271.7,1595L1271.7,1595.2Z" style="fill:rgb(2,19,59);fill-rule:nonzero;"/>
    <path d="M1288.2,1860.1L1287.8,1860.1C1287.5,1860.1 1287.3,1860 1287.1,1859.8C1286.9,1859.6 1286.7,1859.5 1286.6,1859.2C1286.5,1859 1286.4,1858.7 1286.4,1858.4C1286.4,1858.1 1286.5,1857.9 1286.6,1857.7L1354,1616.2C1354.4,1615.4 1355.6,1614.6 1356.3,1615C1357.1,1615.4 1358.3,1616.2 1357.9,1617.3L1290.1,1858.8C1290.1,1859.7 1289.3,1860.1 1288.2,1860.1Z" style="fill:rgb(2,19,59);fill-rule:nonzero;"/>
    <path d="M1818.9,1619.1L1817.7,1619.1C1817.3,1618.8 1817,1618.3 1816.8,1617.9C1816.7,1617.4 1816.7,1616.9 1816.9,1616.4L1830.6,1590.5C1831.4,1589.3 1832.6,1588.9 1833.4,1589.7C1833.8,1589.9 1834.1,1590.3 1834.2,1590.7C1834.3,1591.1 1834.3,1591.6 1834.2,1592L1820.5,1618.3C1820.1,1618.7 1819.7,1619.1 1818.9,1619.1Z" style="fill:rgb(2,19,59);fill-rule:nonzero;"/>
    <path d="M1328.5,1280.8L1328.5,1369.4L1345.7,1371.7L1328.5,1280.8Z" style="fill:rgb(2,19,59);fill-rule:nonzero;"/>
    <path d="M974.2,921L929.1,1127.6L1066.3,1127.6L974.2,921Z" style="fill:rgb(2,19,59);fill-rule:nonzero;"/>
    <path d="M1348.5,1133.8L1033.4,1133.8L976.1,921L1291.3,921L1348.5,1133.8Z" style="fill:white;fill-rule:nonzero;"/>
    <path d="M1348.5,1135.8L1033.3,1135.8C1032.9,1135.8 1032.5,1135.6 1032.2,1135.3C1031.9,1135 1031.7,1134.6 1031.7,1134.2L974.1,921.7C974,921 974.2,920.3 974.5,919.7L976.1,918.9L1291.3,918.9C1291.7,918.9 1292.1,919.1 1292.4,919.4C1292.7,919.7 1292.8,920.1 1292.8,920.5L1350.4,1133C1350.5,1133.7 1350.3,1134.4 1350,1135C1349.8,1135.2 1349.6,1135.4 1349.3,1135.6C1349.1,1135.7 1348.8,1135.8 1348.5,1135.8ZM1034.9,1131.8L1346.1,1131.8L1289.7,922.9L978.5,922.9L1034.9,1131.8Z" style="fill:rgb(2,19,59);fill-rule:nonzero;"/>
    <path d="M1301.5,960.9L985.2,960.9C984.7,960.9 984.2,960.7 983.8,960.3C983.4,959.9 983.2,959.4 983.2,958.9C983.2,958.4 983.4,957.9 983.8,957.5C984.2,957.1 984.7,956.9 985.2,956.9L1301.5,956.9C1302,956.9 1302.5,957.1 1302.9,957.5C1303.3,957.9 1303.5,958.4 1303.5,958.9C1303.5,959.4 1303.3,959.9 1302.9,960.3C1302.5,960.7 1302,960.9 1301.5,960.9Z" style="fill:rgb(2,19,59);fill-rule:nonzero;"/>
    <path d="M1036.1,933.1C1035.6,933.1 1035.1,932.9 1034.7,932.5C1034.3,932.1 1034.1,931.6 1034.1,931.1L1034.1,904.1C1034.1,903.6 1034.3,903.1 1034.7,902.7C1035.1,902.3 1035.6,902.1 1036.1,902.1C1036.6,902.1 1037.1,902.3 1037.5,902.7C1037.9,903.1 1038.1,903.6 1038.1,904.1L1038.1,931.1C1038.1,931.6 1037.9,932.1 1037.5,932.5C1037.1,932.9 1036.6,933.1 1036.1,933.1Z" style="fill:rgb(2,19,59);fill-rule:nonzero;"/>
    <path d="M1036.1,950C1034.1,950 1032.1,949.4 1030.4,948.3C1028.7,947.2 1027.4,945.6 1026.6,943.7C1025.8,941.8 1025.6,939.8 1026,937.8C1026.4,935.8 1027.4,934 1028.8,932.6C1030.2,931.2 1032,930.2 1034,929.8C1036,929.4 1038,929.6 1039.9,930.4C1041.8,931.2 1043.4,932.5 1044.5,934.2C1045.6,935.9 1046.2,937.8 1046.2,939.9C1046.2,942.6 1045.1,945.2 1043.2,947.1C1041.4,948.9 1038.8,950 1036.1,950ZM1036.1,933.5C1034.9,933.5 1033.7,933.9 1032.6,934.6C1031.6,935.3 1030.8,936.3 1030.3,937.4C1029.8,938.5 1029.7,939.8 1029.9,941C1030.1,942.2 1030.7,943.3 1031.6,944.2C1032.5,945.1 1033.6,945.7 1034.8,945.9C1036,946.1 1037.3,946 1038.4,945.5C1039.6,945 1040.5,944.2 1041.2,943.2C1041.9,942.2 1042.3,941 1042.3,939.7C1042.3,938 1041.6,936.4 1040.5,935.3C1039.4,934.2 1037.8,933.5 1036.1,933.5Z" style="fill:rgb(2,19,59);fill-rule:nonzero;"/>
    <path d="M1087.9,933.1C1087.4,933.1 1086.9,932.9 1086.5,932.5C1086.1,932.1 1085.9,931.6 1085.9,931.1L1085.9,904.1C1085.9,903.6 1086.1,903.1 1086.5,902.7C1086.9,902.3 1087.4,902.1 1087.9,902.1C1088.4,902.1 1088.9,902.3 1089.3,902.7C1089.7,903.1 1089.9,903.6 1089.9,904.1L1089.9,931.1C1089.9,931.6 1089.7,932.1 1089.3,932.5C1088.9,932.9 1088.4,933.1 1087.9,933.1Z" style="fill:rgb(2,19,59);fill-rule:nonzero;"/>
    <path d="M1087.9,950C1085.9,950 1083.9,949.4 1082.2,948.3C1080.5,947.2 1079.2,945.6 1078.4,943.7C1077.6,941.8 1077.4,939.8 1077.8,937.8C1078.2,935.8 1079.2,934 1080.6,932.6C1082,931.2 1083.8,930.2 1085.8,929.8C1087.8,929.4 1089.8,929.6 1091.7,930.4C1093.6,931.2 1095.2,932.5 1096.3,934.2C1097.4,935.9 1098,937.8 1098,939.9C1098,942.6 1096.9,945.2 1095,947.1C1093.2,948.9 1090.6,950 1087.9,950ZM1087.9,933.5C1086.7,933.5 1085.5,933.9 1084.4,934.6C1083.4,935.3 1082.6,936.3 1082.1,937.4C1081.6,938.5 1081.5,939.8 1081.7,941C1081.9,942.2 1082.5,943.3 1083.4,944.2C1084.3,945.1 1085.4,945.7 1086.6,945.9C1087.8,946.1 1089.1,946 1090.2,945.5C1091.4,945 1092.3,944.2 1093,943.2C1093.7,942.2 1094.1,941 1094.1,939.7C1094.1,938 1093.4,936.4 1092.3,935.3C1091.1,934.2 1089.5,933.5 1087.9,933.5Z" style="fill:rgb(2,19,59);fill-rule:nonzero;"/>
    <path d="M1142.3,933.1C1141.8,933.1 1141.3,932.9 1140.9,932.5C1140.5,932.1 1140.3,931.6 1140.3,931.1L1140.3,904.1C1140.3,903.6 1140.5,903.1 1140.9,902.7C1141.3,902.3 1141.8,902.1 1142.3,902.1C1142.8,902.1 1143.3,902.3 1143.7,902.7C1144.1,903.1 1144.3,903.6 1144.3,904.1L1144.3,931.1C1144.2,931.6 1144,932 1143.6,932.4C1143.3,932.8 1142.8,933 1142.3,933.1Z" style="fill:rgb(2,19,59);fill-rule:nonzero;"/>
    <path d="M1142.3,950C1141,950 1139.6,949.7 1138.4,949.2C1137.2,948.7 1136,947.9 1135.1,947C1134.1,946.1 1133.4,944.9 1132.9,943.7C1132.4,942.5 1132.1,941.1 1132.1,939.8C1132.1,938.5 1132.4,937.1 1132.9,935.9C1133.4,934.7 1134.2,933.5 1135.1,932.6C1136,931.7 1137.2,930.9 1138.4,930.4C1139.6,929.9 1141,929.6 1142.3,929.6C1143.6,929.6 1145,929.9 1146.2,930.4C1147.4,930.9 1148.6,931.7 1149.5,932.6C1150.4,933.5 1151.2,934.7 1151.7,935.9C1152.2,937.1 1152.5,938.5 1152.5,939.8C1152.5,941.1 1152.2,942.5 1151.7,943.7C1151.2,944.9 1150.4,946.1 1149.5,947C1148.6,947.9 1147.4,948.7 1146.2,949.2C1145,949.7 1143.7,950 1142.3,950ZM1142.3,933.5C1140.6,933.5 1139,934.2 1137.9,935.3C1136.7,936.5 1136.1,938.1 1136.1,939.7C1136.1,941.4 1136.8,943 1137.9,944.1C1139.1,945.3 1140.7,945.9 1142.3,945.9C1144,945.9 1145.5,945.2 1146.7,944.1C1147.9,942.9 1148.5,941.3 1148.5,939.7C1148.5,938 1147.8,936.4 1146.7,935.3C1145.6,934.2 1144,933.5 1142.3,933.5Z" style="fill:rgb(2,19,59);fill-rule:nonzero;"/>
    <path d="M1194.9,933.1C1194.4,933.1 1193.9,932.9 1193.5,932.5C1193.1,932.1 1192.9,931.6 1192.9,931.1L1192.9,904.1C1192.9,903.6 1193.1,903.1 1193.5,902.7C1193.9,902.3 1194.4,902.1 1194.9,902.1C1195.4,902.1 1195.9,902.3 1196.3,902.7C1196.7,903.1 1196.9,903.6 1196.9,904.1L1196.9,931.1C1196.8,931.6 1196.6,932 1196.2,932.4C1195.8,932.8 1195.4,933 1194.9,933.1Z" style="fill:rgb(2,19,59);fill-rule:nonzero;"/>
    <path d="M1194.9,950C1192.2,950 1189.6,948.9 1187.7,947C1185.8,945.1 1184.7,942.5 1184.7,939.8C1184.7,937.1 1185.8,934.5 1187.7,932.6C1189.6,930.7 1192.2,929.6 1194.9,929.6C1197.6,929.6 1200.2,930.7 1202.1,932.6C1204,934.5 1205.1,937.1 1205.1,939.8C1205.1,942.5 1204,945.1 1202.1,947C1200.2,948.9 1197.6,950 1194.9,950ZM1194.9,933.5C1193.2,933.5 1191.6,934.2 1190.5,935.3C1189.3,936.5 1188.7,938.1 1188.7,939.7C1188.7,941.4 1189.4,943 1190.5,944.1C1191.7,945.3 1193.3,945.9 1194.9,945.9C1196.5,945.9 1198.2,945.2 1199.3,944.1C1200.5,942.9 1201.1,941.3 1201.1,939.7C1201.1,938 1200.4,936.4 1199.3,935.3C1198.1,934.2 1196.5,933.5 1194.9,933.5Z" style="fill:rgb(2,19,59);fill-rule:nonzero;"/>
    <path d="M1244.3,933.1C1243.8,933.1 1243.3,932.9 1242.9,932.5C1242.5,932.1 1242.3,931.6 1242.3,931.1L1242.3,904.1C1242.3,903.6 1242.5,903.1 1242.9,902.7C1243.3,902.3 1243.8,902.1 1244.3,902.1C1244.8,902.1 1245.3,902.3 1245.7,902.7C1246.1,903.1 1246.3,903.6 1246.3,904.1L1246.3,931.1C1246.2,931.6 1246,932 1245.6,932.4C1245.2,932.8 1244.8,933 1244.3,933.1Z" style="fill:rgb(2,19,59);fill-rule:nonzero;"/>
    <path d="M1244.3,950C1243,950 1241.6,949.7 1240.4,949.2C1239.2,948.7 1238,947.9 1237.1,947C1236.2,946.1 1235.4,944.9 1234.9,943.7C1234.4,942.5 1234.1,941.1 1234.1,939.8C1234.1,938.5 1234.4,937.1 1234.9,935.9C1235.4,934.7 1236.2,933.5 1237.1,932.6C1238,931.7 1239.2,930.9 1240.4,930.4C1241.6,929.9 1243,929.6 1244.3,929.6C1245.6,929.6 1247,929.9 1248.2,930.4C1249.4,930.9 1250.6,931.7 1251.5,932.6C1252.4,933.5 1253.2,934.7 1253.7,935.9C1254.2,937.1 1254.5,938.5 1254.5,939.8C1254.5,941.1 1254.2,942.5 1253.7,943.7C1253.2,944.9 1252.4,946.1 1251.5,947C1250.6,947.9 1249.4,948.7 1248.2,949.2C1246.9,949.7 1245.6,950 1244.3,950ZM1244.3,933.5C1243.1,933.5 1241.9,933.9 1240.8,934.6C1239.8,935.3 1239,936.3 1238.5,937.4C1238,938.5 1237.9,939.8 1238.2,941C1238.4,942.2 1239,943.3 1239.9,944.2C1240.8,945.1 1241.9,945.7 1243.1,945.9C1244.3,946.1 1245.6,946 1246.7,945.5C1247.8,945 1248.8,944.2 1249.5,943.2C1250.2,942.2 1250.6,941 1250.6,939.7C1250.6,938 1249.9,936.4 1248.8,935.3C1247.5,934.2 1245.9,933.5 1244.3,933.5Z" style="fill:rgb(2,19,59);fill-rule:nonzero;"/>
    <path d="M1065.1,1038.6C1080.3,1038.6 1092.5,1026.3 1092.5,1011.2C1092.5,996 1080.2,983.8 1065.1,983.8C1049.9,983.8 1037.7,996.1 1037.7,1011.2C1037.7,1026.3 1050,1038.6 1065.1,1038.6Z" style="fill:white;fill-rule:nonzero;"/>
    <path d="M1065.1,1040.5C1059.3,1040.5 1053.6,1038.8 1048.8,1035.6C1044,1032.4 1040.2,1027.8 1038,1022.4C1035.8,1017 1035.2,1011.1 1036.3,1005.4C1037.4,999.7 1040.2,994.5 1044.3,990.3C1048.4,986.2 1053.6,983.4 1059.4,982.3C1065.1,981.2 1071,981.7 1076.4,984C1081.8,986.2 1086.4,990 1089.6,994.8C1092.8,999.6 1094.6,1005.3 1094.6,1011.1C1094.6,1018.9 1091.5,1026.4 1086,1031.9C1080.4,1037.4 1072.9,1040.5 1065.1,1040.5ZM1065.1,985.6C1060.1,985.6 1055.1,987.1 1050.9,989.9C1046.7,992.7 1043.5,996.7 1041.5,1001.3C1039.6,1006 1039.1,1011.1 1040.1,1016C1041.1,1020.9 1043.5,1025.5 1047.1,1029C1050.7,1032.6 1055.2,1035 1060.2,1036C1065.1,1037 1070.3,1036.5 1074.9,1034.6C1079.6,1032.7 1083.5,1029.4 1086.3,1025.2C1089.1,1021 1090.6,1016.1 1090.6,1011C1090.6,1004.2 1087.9,997.8 1083.1,993C1078.4,988.3 1071.9,985.6 1065.1,985.6Z" style="fill:rgb(2,19,59);fill-rule:nonzero;"/>
    <path d="M1164.3,1037C1179.4,1037 1191.7,1024.7 1191.7,1009.6C1191.7,994.4 1179.4,982.2 1164.3,982.2C1149.1,982.2 1136.9,994.5 1136.9,1009.6C1136.9,1024.7 1149.1,1037 1164.3,1037Z" style="fill:white;fill-rule:nonzero;"/>
    <path d="M1164.3,1038.9C1158.5,1038.9 1152.8,1037.2 1148,1033.9C1143.2,1030.7 1139.4,1026.1 1137.2,1020.7C1135,1015.3 1134.4,1009.4 1135.5,1003.7C1136.6,998 1139.4,992.8 1143.6,988.7C1147.7,984.6 1152.9,981.8 1158.7,980.7C1164.4,979.6 1170.3,980.1 1175.7,982.4C1181.1,984.6 1185.7,988.4 1188.9,993.2C1192.1,998 1193.8,1003.7 1193.8,1009.5C1193.7,1017.3 1190.6,1024.7 1185.1,1030.2C1179.5,1035.7 1172.1,1038.8 1164.3,1038.9ZM1164.3,984.1C1159.3,984.1 1154.3,985.6 1150.1,988.4C1145.9,991.2 1142.6,995.2 1140.7,999.8C1138.8,1004.5 1138.3,1009.6 1139.3,1014.5C1140.3,1019.4 1142.7,1024 1146.3,1027.5C1149.9,1031.1 1154.4,1033.5 1159.3,1034.5C1164.2,1035.5 1169.4,1035 1174,1033C1178.6,1031.1 1182.6,1027.8 1185.4,1023.6C1188.2,1019.4 1189.7,1014.5 1189.7,1009.4C1189.7,1002.6 1187,996.2 1182.2,991.4C1177.5,986.8 1171.1,984.1 1164.3,984.1Z" style="fill:rgb(2,19,59);fill-rule:nonzero;"/>
    <path d="M1266.6,1037C1281.8,1037 1294,1024.7 1294,1009.6C1294,994.4 1281.7,982.2 1266.6,982.2C1251.4,982.2 1239.2,994.5 1239.2,1009.6C1239.2,1024.7 1251.4,1037 1266.6,1037Z" style="fill:white;fill-rule:nonzero;"/>
    <path d="M1266.6,1038.9C1260.8,1038.9 1255.1,1037.2 1250.3,1033.9C1245.5,1030.7 1241.7,1026.1 1239.5,1020.7C1237.3,1015.3 1236.7,1009.4 1237.8,1003.7C1238.9,998 1241.7,992.8 1245.8,988.7C1249.9,984.6 1255.1,981.8 1260.9,980.7C1266.6,979.6 1272.5,980.1 1277.9,982.4C1283.3,984.6 1287.9,988.4 1291.1,993.2C1294.3,998 1296,1003.7 1296,1009.5C1295.9,1017.3 1292.8,1024.7 1287.3,1030.2C1281.8,1035.7 1274.4,1038.8 1266.6,1038.9ZM1266.6,984.1C1261.6,984.1 1256.6,985.6 1252.4,988.4C1248.2,991.2 1244.9,995.2 1243,999.8C1241.1,1004.5 1240.6,1009.6 1241.5,1014.5C1242.5,1019.4 1244.9,1024 1248.5,1027.5C1252.1,1031.1 1256.6,1033.5 1261.5,1034.5C1266.4,1035.5 1271.6,1035 1276.2,1033C1280.9,1031.1 1284.8,1027.8 1287.6,1023.6C1290.4,1019.4 1291.9,1014.5 1291.9,1009.4C1291.9,1002.6 1289.2,996.2 1284.4,991.4C1279.8,986.8 1273.4,984.1 1266.6,984.1Z" style="fill:rgb(2,19,59);fill-rule:nonzero;"/>
    <path d="M1114.9,1116.6C1130.1,1116.6 1142.3,1104.3 1142.3,1089.2C1142.3,1074.1 1130,1061.8 1114.9,1061.8C1099.7,1061.8 1087.5,1074.1 1087.5,1089.2C1087.5,1104.3 1099.8,1116.6 1114.9,1116.6Z" style="fill:white;fill-rule:nonzero;"/>
    <path d="M1114.9,1118.5C1109.1,1118.5 1103.4,1116.8 1098.6,1113.5C1093.8,1110.3 1090,1105.7 1087.8,1100.3C1085.6,1094.9 1085,1089 1086.1,1083.3C1087.2,1077.6 1090,1072.3 1094.2,1068.2C1098.4,1064.1 1103.5,1061.3 1109.3,1060.2C1115,1059.1 1120.9,1059.6 1126.3,1061.9C1131.7,1064.1 1136.3,1067.9 1139.5,1072.7C1142.7,1077.5 1144.5,1083.2 1144.5,1089C1144.5,1096.8 1141.4,1104.3 1135.9,1109.8C1130.2,1115.4 1122.7,1118.5 1114.9,1118.5ZM1114.9,1063.6C1108.1,1063.6 1101.7,1066.3 1096.9,1071.1C1092.1,1075.9 1089.4,1082.4 1089.4,1089.1C1089.4,1095.8 1092.1,1102.3 1096.9,1107.1C1101.7,1111.9 1108.2,1114.6 1114.9,1114.6C1121.6,1114.5 1128.1,1111.8 1132.8,1107C1137.6,1102.2 1140.3,1095.8 1140.4,1089.1C1140.3,1082.4 1137.6,1075.9 1132.8,1071.2C1128.1,1066.5 1121.6,1063.7 1114.9,1063.6Z" style="fill:rgb(2,19,59);fill-rule:nonzero;"/>
    <path d="M1230.5,1116.6C1245.6,1116.6 1257.9,1104.3 1257.9,1089.2C1257.9,1074.1 1245.6,1061.8 1230.5,1061.8C1215.3,1061.8 1203.1,1074.1 1203.1,1089.2C1203.1,1104.3 1215.4,1116.6 1230.5,1116.6Z" style="fill:white;fill-rule:nonzero;"/>
    <path d="M1230.5,1118.5C1224.7,1118.5 1219,1116.8 1214.2,1113.5C1209.4,1110.3 1205.6,1105.7 1203.4,1100.3C1201.2,1094.9 1200.6,1089 1201.7,1083.3C1202.8,1077.6 1205.6,1072.3 1209.7,1068.2C1213.8,1064.1 1219,1061.3 1224.8,1060.2C1230.5,1059.1 1236.4,1059.6 1241.8,1061.9C1247.2,1064.1 1251.8,1067.9 1255,1072.7C1258.2,1077.5 1260,1083.2 1260,1089C1260,1096.8 1256.9,1104.3 1251.4,1109.8C1245.8,1115.4 1238.3,1118.5 1230.5,1118.5ZM1230.5,1063.6C1223.7,1063.6 1217.3,1066.3 1212.5,1071.1C1207.7,1075.9 1205,1082.4 1205,1089.1C1205,1095.8 1207.7,1102.3 1212.5,1107.1C1217.3,1111.9 1223.8,1114.6 1230.5,1114.6C1237.2,1114.5 1243.6,1111.8 1248.4,1107C1253.2,1102.2 1255.9,1095.8 1256,1089.1C1255.9,1082.4 1253.2,1075.9 1248.4,1071.2C1243.7,1066.5 1237.3,1063.7 1230.5,1063.6Z" style="fill:rgb(2,19,59);fill-rule:nonzero;"/>
    <path d="M1065.9,985.6C1072.5,985.8 1078.8,988.6 1083.4,993.3C1088,998 1090.6,1004.4 1090.6,1011C1090.5,1017.6 1087.9,1023.9 1083.3,1028.6C1078.7,1033.3 1072.5,1036.1 1065.9,1036.4L1065.9,985.6Z" style="fill:rgb(247,174,56);fill-rule:nonzero;"/>
    <path d="M1253.7,1078.1C1255.1,1081.2 1255.9,1084.5 1256,1087.8C1256.1,1091.2 1255.6,1094.5 1254.4,1097.7C1253.2,1100.8 1251.4,1103.7 1249.1,1106.2C1246.8,1108.7 1244,1110.6 1241,1112C1237.9,1113.4 1234.6,1114.2 1231.3,1114.3C1227.9,1114.4 1224.6,1113.9 1221.4,1112.7C1218.2,1111.5 1215.4,1109.7 1212.9,1107.4C1210.4,1105.1 1208.5,1102.3 1207.1,1099.3L1253.7,1078.1Z" style="fill:rgb(58,129,225);fill-rule:nonzero;"/>
    <path d="M1535.9,838.6L995,838.6L994.2,837L994.2,829.2C994.2,828.7 994.4,828.2 994.8,827.8C995.2,827.4 995.7,827.2 996.2,827.2C996.7,827.2 997.2,827.4 997.6,827.8C998,828.2 998.2,828.7 998.2,829.2L998.2,835.1L1534,835.1L1534.8,336.5L982.4,336.5C981.9,336.5 981.4,336.3 981,335.9C980.6,335.5 980.4,335 980.4,334.5C980.4,334 980.6,333.5 981,333.1C981.4,332.7 981.9,332.5 982.4,332.5L1536.6,332.5L1538.2,333.3C1538.3,333.5 1538.4,333.6 1538.5,333.8C1538.6,334 1538.6,334.2 1538.6,334.4L1537.8,836.9C1537.7,837.3 1537.5,837.8 1537.1,838C1536.8,838.5 1536.3,838.7 1535.9,838.6Z" style="fill:rgb(2,19,59);fill-rule:nonzero;"/>
    <path d="M1238.4,388.7C1238.4,388.7 1217.2,493.7 1284.6,483.6L1282.3,522.4L1328.5,522.4L1329.3,418.1C1329.3,418.1 1326.6,350.6 1238.4,388.7Z" style="fill:white;fill-rule:nonzero;"/>
    <path d="M1328.5,524.3L1280.7,524.3C1280.4,523.8 1280.3,523.3 1280.3,522.7L1282.7,485.9C1268.2,487.9 1256.8,484.3 1248.2,475.7C1224.3,450.6 1236,391 1236.4,388.7C1236.8,386.3 1237.2,387.5 1237.6,387.1C1269.7,373.4 1294.4,371.8 1311.3,382.4C1328.1,393 1331.3,417.3 1331.3,418.1L1330.5,522.8C1330.4,523.3 1330.2,523.7 1329.8,523.9C1329.4,524.1 1329,524.3 1328.5,524.3ZM1284.2,520.4L1326.5,520.4L1327.3,418.1C1327.3,417.7 1326.1,396.1 1308.9,385.2C1291.7,374.2 1270.5,377.4 1239.9,389.9C1238.7,398.1 1230.1,450.7 1251.3,472.6C1259.1,480.8 1270.1,483.6 1284.2,481.6C1285,481.2 1285.4,481.6 1285.8,482C1286.2,482.4 1286.6,482.8 1286.6,483.6L1284.2,520.4Z" style="fill:rgb(2,19,59);fill-rule:nonzero;"/>
    <path d="M1314.4,405.5C1314.4,405.5 1213.7,425.9 1193.3,357.7C1172.9,289.5 1245.4,340.1 1245.4,340.1C1245.4,340.1 1229.3,287.6 1288.1,347.5C1288.1,347.5 1334.8,336.5 1357.9,376.9C1381,417.3 1329.3,463.5 1329.3,463.5C1329.3,463.5 1319.9,410.6 1314.4,405.5Z" style="fill:rgb(247,174,56);fill-rule:nonzero;"/>
    <path d="M1323.8,444.3C1332.5,444.3 1339.5,437.3 1339.5,428.6C1339.5,419.9 1332.5,412.9 1323.8,412.9C1315.1,412.9 1308.1,419.9 1308.1,428.6C1308.2,437.3 1315.2,444.3 1323.8,444.3Z" style="fill:white;fill-rule:nonzero;"/>
    <path d="M1263.5,447.1L1261.9,446.3C1259.9,443.6 1253.3,433.8 1256,429.1C1258.7,424.4 1259.9,426.4 1263.8,427.1C1267.7,427.8 1265.8,428.7 1265.4,429.5C1265,430.3 1264.2,431.5 1263,431.1L1259.5,431.1C1258.3,432.7 1261.5,439.3 1265,444C1265.3,444.4 1265.4,444.9 1265.4,445.5C1265.3,446 1265.1,446.5 1264.6,446.8L1263.5,447.1Z" style="fill:rgb(2,19,59);fill-rule:nonzero;"/>
    <path d="M1248.2,429C1250.8,429 1252.9,426.9 1252.9,424.3C1252.9,421.7 1250.8,419.6 1248.2,419.6C1245.6,419.6 1243.5,421.7 1243.5,424.3C1243.5,426.9 1245.6,429 1248.2,429Z" style="fill:rgb(2,19,59);fill-rule:nonzero;"/>
    <path d="M1276.8,429.8C1279.4,429.8 1281.5,427.7 1281.5,425.1C1281.5,422.5 1279.4,420.4 1276.8,420.4C1274.2,420.4 1272.1,422.5 1272.1,425.1C1272.1,427.7 1274.2,429.8 1276.8,429.8Z" style="fill:rgb(2,19,59);fill-rule:nonzero;"/>
    <path d="M1050.2,600.3C1050.2,600.3 1025.5,799.8 1096.1,785.3C1096.1,785.3 1128.6,714 1112.6,672.4C1096.5,630.9 1071,587.8 1050.2,600.3Z" style="fill:rgb(2,19,59);fill-rule:nonzero;"/>
    <path d="M882.5,316.1C882.5,316.1 916.2,772 980.5,819C1044.8,866 1143.9,725.3 1143.9,725.3L1063.9,598.7C1013.3,680.6 982.4,329.8 982.4,329.8L882.5,316.1Z" style="fill:white;fill-rule:nonzero;"/>
    <path d="M1009.5,830.8C998.6,830.8 988,827.2 979.3,820.6C915,774 882.1,335 880.5,316.1C880.5,315.6 880.7,315.1 881.1,314.7C881.5,314.3 882,314.1 882.5,314.1C883,314.1 883.5,314.3 883.9,314.7C884.3,315.1 884.5,315.6 884.5,316.1C884.9,320.4 919,771.6 981.7,817.4C987,821.3 993,824.1 999.4,825.6C1005.8,827.1 1012.5,827.2 1018.9,826C1073,817 1134.1,735.5 1141.6,724.9L1064,602.6C1058.1,610.8 1052.2,614.4 1046.4,612.8C1028.8,608.9 1012.3,559.5 997.8,467C986.8,398.8 980.6,330.6 980.6,329.8C980.6,329.3 980.8,328.8 981.2,328.4C981.6,328 982.1,327.8 982.6,327.8C983.1,327.8 983.6,328 984,328.4C984.4,328.8 984.6,329.3 984.6,329.8C991.3,404.7 1015.6,601.4 1047.3,608.9C1052,610.1 1057.1,606.5 1062.6,597.9C1062.7,597.6 1062.9,597.3 1063.2,597.1C1063.5,596.9 1063.8,596.8 1064.1,596.7C1064.5,596.7 1064.9,596.8 1065.3,597C1065.7,597.2 1065.9,597.5 1066.1,597.9L1146.1,724.1C1146.3,724.5 1146.4,724.9 1146.3,725.3C1146.2,725.7 1146,726.1 1145.7,726.4C1133.5,743.3 1120,759.3 1105.3,774.2C1073.5,807.1 1044.5,825.5 1019.5,829.9L1009.5,830.8Z" style="fill:rgb(2,19,59);fill-rule:nonzero;"/>
    <path d="M1383.4,685.8C1383.4,685.8 1466.1,852.4 1557.4,799.5C1648.7,746.6 1688.3,583.1 1779.3,576.1C1870.2,569 1873.4,561.6 1866.7,556.1C1860.6,551 1853.3,547.4 1845.5,545.9C1845.5,545.9 1866.7,540.8 1867.8,534.5C1869,528.2 1850.6,524.3 1850.6,524.3C1850.6,524.3 1863.5,520.4 1861.6,512.5C1859.6,504.7 1834.9,504.3 1834.9,504.3C1834.9,504.3 1842.7,496.1 1825.5,494.9C1766.3,491 1705.9,524.3 1705.9,524.3C1705.9,524.3 1734.1,483.5 1729.4,477.7C1709,453.4 1546,640.8 1546,640.8L1513.9,611L1383.4,685.8Z" style="fill:white;fill-rule:nonzero;"/>
    <path d="M1520.6,812C1513.2,812 1505.7,810.8 1498.7,808.5C1464.2,798.3 1434.4,765.4 1415.2,739.9C1402.6,723.1 1391.5,705.3 1381.9,686.6C1381.8,686.1 1381.8,685.6 1381.9,685.1C1382,684.6 1382.3,684.2 1382.7,683.8L1512.8,609.3C1513.2,609.1 1513.6,609 1514,609C1514.4,609 1514.8,609.1 1515.2,609.3L1545.8,637.9C1561.5,620.3 1690.8,473.7 1724.5,473.7C1725.7,473.6 1727,473.8 1728.1,474.3C1729.3,474.8 1730.3,475.5 1731.1,476.4C1735.4,481.9 1721.7,504.6 1712.3,518.7C1729.5,510.5 1778.1,489.7 1826,492.8C1833.1,493.2 1837.4,495.2 1838.5,498.3C1838.9,499.6 1838.9,500.9 1838.5,502.2C1845.9,502.6 1861.2,504.6 1863.2,512C1865.2,519.4 1860.9,521.4 1856.9,523.8C1862.8,525.8 1870.6,529.3 1869.8,534.8C1869,540.3 1859.6,543.8 1853,545.8C1858.4,547.8 1863.5,550.7 1867.9,554.4C1870.6,556.8 1871.4,558.7 1870.6,560.7C1869.8,562.7 1856.9,572.1 1779.7,577.9C1729.9,581.8 1695.8,633.2 1659.4,687.7C1630,732 1599.4,777.5 1558.3,801.4C1546.9,808.2 1533.9,811.9 1520.6,812ZM1386.2,686.6C1392.9,699.5 1440.3,786.9 1499.5,804.6C1508.9,807.7 1518.8,808.7 1528.7,807.6C1538.5,806.4 1548,803.2 1556.4,798C1596.8,774.9 1627,729.4 1656.3,685.5C1693.1,630.2 1728,578.1 1779.4,574.2C1853.5,568.3 1866,562.8 1867.2,559.7L1865.6,557.7C1859.8,552.6 1852.8,549.2 1845.2,547.9C1844.7,547.8 1844.3,547.6 1844.1,547.2C1843.8,546.8 1843.7,546.4 1843.7,545.9C1843.8,545.5 1844,545.1 1844.2,544.7C1844.5,544.4 1844.8,544.1 1845.2,543.9C1855,541.5 1865.6,537.2 1866,534.1C1866.4,531 1858.2,527.8 1850.3,525.9C1849.9,525.9 1849.5,525.7 1849.2,525.4C1848.9,525.1 1848.7,524.7 1848.7,524.3C1848.7,523.1 1849.1,522.3 1850.3,522.3C1851.5,522.3 1861.3,518.8 1859.7,513.3C1858.1,507.8 1844.4,506.2 1835,506.2C1834.2,506 1833.6,505.6 1833,505C1832.9,504.2 1833.1,503.4 1833.4,502.6C1833.9,502.2 1834.2,501.8 1834.4,501.2C1834.6,500.6 1834.6,500 1834.5,499.5C1834.5,499.1 1832.9,497.1 1825.5,496.8C1767.5,492.9 1707.5,525.4 1707.1,525.8C1706.7,526.2 1705.1,526.2 1704.7,525.4C1704.4,525.1 1704.2,524.7 1704.1,524.3C1704,523.9 1704.1,523.4 1704.3,523.1C1719.2,501.9 1729.8,481.9 1727.8,479.2C1727.4,478.7 1726.9,478.2 1726.2,478C1725.5,477.8 1724.9,477.6 1724.2,477.7C1697.5,477.7 1596.8,585.1 1547,642.3L1544.2,642.3L1513.2,613.3L1386.2,686.6Z" style="fill:rgb(2,19,59);fill-rule:nonzero;"/>
    <path d="M1282.3,494.5C1282.3,494.5 1281.9,541.9 1330.1,493.3L1527.3,607.4C1527.3,607.4 1521.8,722.6 1412.1,721.5L1427.8,835.2L1147.2,835.2L1164.4,732.9L1096.2,785.4C1096.2,785.4 1104.4,641.5 1050.3,600.4C1050.2,600.3 1210.9,511.4 1282.3,494.5Z" style="fill:rgb(202,202,202);fill-rule:nonzero;"/>
    <path d="M1769.5,512.5C1769.1,512.4 1768.7,512.2 1768.4,511.8C1768.1,511.4 1768,511 1768,510.5C1767.6,509.7 1768.4,508.5 1769.6,508.5L1834.7,502.2C1835.9,502.2 1837.1,502.6 1837.1,503.8C1837.1,504.4 1836.9,504.9 1836.6,505.3C1836.2,505.7 1835.7,506 1835.2,506.1L1770.1,512.4L1769.5,512.4L1769.5,512.5Z" style="fill:rgb(2,19,59);fill-rule:nonzero;"/>
    <path d="M1775,530.2C1774.6,530.1 1774.2,529.9 1773.8,529.7C1773.5,529.4 1773.2,529.1 1773,528.7C1773,528.1 1773.2,527.6 1773.5,527.2C1773.9,526.8 1774.4,526.5 1774.9,526.4L1850.6,522.5C1850.8,522.4 1851.1,522.4 1851.3,522.5C1851.5,522.6 1851.8,522.7 1852,522.8C1852.2,523 1852.3,523.1 1852.4,523.4C1852.5,523.6 1852.6,523.9 1852.5,524.1C1852.5,524.7 1852.3,525.2 1852,525.6C1851.6,526 1851.1,526.3 1850.6,526.4L1775.4,530.3L1775,530.3L1775,530.2Z" style="fill:rgb(2,19,59);fill-rule:nonzero;"/>
    <path d="M1782.1,554.1C1781.3,554.1 1780.5,553.3 1780.1,552.1C1780.1,551.6 1780.3,551.1 1780.7,550.7C1781.1,550.3 1781.6,550.1 1782.1,550.1L1845.6,543.8C1846.1,543.8 1846.6,544 1847,544.4C1847.4,544.8 1847.6,545.3 1847.6,545.8C1847.6,546.6 1846.8,547.8 1846,547.8L1782.5,554.1L1782.1,554.1Z" style="fill:rgb(2,19,59);fill-rule:nonzero;"/>
    <path d="M882.5,316.1C882.5,316.1 856.2,214.2 896.6,207.9C896.6,207.9 908.8,193.8 926,200.1C926,200.1 928.7,184.4 947.9,195.4C947.9,195.4 943.2,131.1 960.1,130.7C977,130.3 982.4,329.8 982.4,329.8L882.5,316.1Z" style="fill:white;fill-rule:nonzero;"/>
    <path d="M982.4,331.8C981.9,331.8 981.4,331.6 981,331.2C980.6,330.8 980.4,330.3 980.4,329.8C980.4,329.4 978.8,279.2 975.3,230.2C968.6,135.7 960.8,132.6 960,132.6C958.4,132.6 957.6,133.4 956.5,134.6C948.3,143.6 949.1,181.6 949.8,195.4C949.8,196.1 949.5,196.8 949,197.4L947,197.4C940.7,193.9 935.6,192.7 932.5,194.3C931.3,194.9 930.2,195.8 929.3,196.9C928.4,198 927.8,199.2 927.4,200.6C927.4,201 927,201.4 926.6,201.8L925,201.8C920.3,200.1 915.1,199.9 910.3,201.2C905.5,202.5 901.1,205.3 898,209.2L897,209.2C894.2,209.6 891.5,210.6 889.1,212.2C886.7,213.8 884.7,215.8 883.3,218.2C866.4,244.1 884.5,314.2 884.5,315C884.5,315.8 884.1,317 883.3,317.4C882.5,317.8 880.9,317 880.9,315.8C880.9,314.6 862.1,243.3 880.1,215.8C881.9,213.1 884.2,210.9 886.9,209.1C889.6,207.3 892.6,206.2 895.8,205.6C899.3,201.7 903.9,198.8 908.9,197.3C913.9,195.8 919.3,195.7 924.4,197C924.9,195.5 925.7,194 926.8,192.8C927.9,191.6 929.2,190.6 930.7,189.9C935,187.9 939.7,188.7 946,191.5C945.2,179.7 944,141.7 953.4,131.1C954.2,130.2 955.1,129.4 956.2,128.9C957.3,128.4 958.5,128 959.7,128C963.6,128 972.2,127.6 979.3,229.1C982.8,278.5 984.4,328.7 984.4,329.1C984.4,329.6 984.2,330.1 983.8,330.5C983.4,330.9 982.9,331.1 982.4,331.1L982.4,331.8Z" style="fill:rgb(2,19,59);fill-rule:nonzero;"/>
    <path d="M947.9,195.4C945.9,198.1 970.6,280.1 929.5,255.8L947.9,195.4Z" style="fill:white;fill-rule:nonzero;"/>
    <path d="M942.4,262.1C937.4,261.8 932.5,260.1 928.3,257.4C928.1,257.3 927.9,257.1 927.7,256.9C927.5,256.7 927.4,256.5 927.3,256.2C927.2,255.9 927.2,255.7 927.2,255.4C927.2,255.1 927.3,254.9 927.4,254.6C927.5,254.4 927.7,254.2 927.9,254C928.1,253.8 928.3,253.7 928.6,253.6C928.9,253.5 929.1,253.5 929.4,253.5C929.7,253.5 929.9,253.6 930.1,253.7C937.5,258 943,259.2 946.2,256.8C955.6,250.5 949.7,220 947,205.1C945.4,196.5 945.4,195.3 946.2,194.1C946.6,193.8 947,193.5 947.5,193.5C948,193.4 948.5,193.5 948.9,193.8C949.2,194.1 949.4,194.5 949.6,194.9C949.7,195.3 949.8,195.7 949.7,196.2C949.7,197 950.5,200.9 950.9,204.8C954,221.3 959.9,252.2 948.5,260.1C946.9,261.5 944.7,262.2 942.4,262.1Z" style="fill:rgb(2,19,59);fill-rule:nonzero;"/>
    <path d="M974.2,338.5C974.2,338.5 1015.7,293.4 1016.5,276.6C1017.3,259.7 973.4,186.8 960.1,196.2C946.8,205.6 975,256.6 975,256.6C975,256.6 939.7,267.2 939.3,294.6L974.2,338.5Z" style="fill:white;fill-rule:nonzero;"/>
    <path d="M974.2,340.5L973,340.5C972.6,340.1 972.4,339.6 972.4,339.1C972.4,338.6 972.6,338.1 973,337.7C984.4,325.2 1013.8,289.9 1014.5,276.9C1015.3,264 983.5,208.3 966.7,198.9C964,197.3 962.4,196.9 960.8,198.1C952.2,204 965.9,236.5 976.5,255.7C976.8,256.2 977,256.7 976.9,257.3L975.3,258.5C975.3,258.5 941.6,269.1 941.2,294.6C941.2,295.1 941,295.6 940.6,296C940.2,296.4 939.7,296.6 939.2,296.6C938.7,296.6 938.2,296.4 937.8,296C937.4,295.6 937.2,295.1 937.2,294.6C937.6,269.9 963.9,258.5 972.1,255.4C966.2,244.8 945.1,204.1 958.8,194.6C960.3,193.7 961.9,193.4 963.6,193.5C965.3,193.6 966.9,194.3 968.2,195.4C986.6,205.6 1019.5,261.6 1018.4,276.9C1017.2,292.2 977.2,338 975.7,339.6C975.5,339.8 975.3,340 975,340.2C974.8,340.4 974.5,340.5 974.2,340.5Z" style="fill:rgb(2,19,59);fill-rule:nonzero;"/>
    <path d="M893.4,281.7C889,281.1 884.9,278.9 882,275.4C881.7,275 881.6,274.6 881.6,274.1C881.6,273.6 881.8,273.2 882.2,272.9C882.5,272.6 883,272.4 883.4,272.3C883.9,272.3 884.3,272.4 884.7,272.7C887.8,275.8 892.1,279 894.9,277.4C903.5,273.1 899.2,232.7 894.5,208.4C894.6,207.9 894.7,207.4 895,207C895.3,206.6 895.6,206.3 896.1,206C897.3,206 898.5,206.8 898.5,207.6C899.7,214.3 910.7,273.5 896.9,280.9C895.9,281.5 894.7,281.8 893.4,281.7Z" style="fill:rgb(2,19,59);fill-rule:nonzero;"/>
    <path d="M889.9,271.5C889.4,271.5 889,271.4 888.6,271.1C888.2,270.8 888,270.4 887.9,270C886.3,260.3 887.5,254.1 891.4,251.2C896.1,248.1 902.4,251.6 902.8,251.6C903.2,251.8 903.5,252 903.7,252.4C903.9,252.8 904,253.2 904,253.6C904,254 903.6,265 919.3,266.5C920.6,266.5 921.8,266.1 922.8,265.3C930.6,256.7 926.3,215.5 924,200.6C923.8,200.3 923.8,200.1 923.8,199.8C923.8,199.5 923.9,199.2 924.1,199C924.3,198.8 924.5,198.6 924.8,198.4C925.1,198.3 925.4,198.2 925.7,198.3C926.5,197.9 927.7,198.7 927.7,199.9C927.7,201.1 936.7,256.3 925.7,268.1C924.9,269 923.8,269.7 922.6,270.1C921.4,270.5 920.2,270.6 919,270.5C903.3,268.9 900.6,258.3 900.2,254.8C899.3,254.3 898.2,253.9 897.1,253.9C896,253.8 894.9,254 893.9,254.4C892.3,255.6 890.4,258.7 891.9,269.7C892.3,270.5 891.5,271.7 890.3,271.7L889.9,271.7L889.9,271.5Z" style="fill:rgb(2,19,59);fill-rule:nonzero;"/>
    <path d="M977.7,219.7L973.4,218.9C970.6,217.8 968.1,216.2 966,214.1C963.9,212 962.3,209.5 961.2,206.7C961,206.3 961,205.8 961.2,205.4C961.3,205 961.6,204.6 962,204.4C962.5,204.2 963,204.2 963.5,204.3C964,204.4 964.4,204.7 964.7,205.2C964.7,205.2 968.2,213.4 974.5,215.4C976.2,215.8 978.1,215.9 979.8,215.5C981.5,215.1 983.2,214.5 984.7,213.4C985.2,213.3 985.7,213.3 986.2,213.4C986.7,213.5 987.1,213.8 987.5,214.2C987.7,214.7 987.7,215.2 987.6,215.7C987.5,216.2 987.2,216.6 986.7,216.9C984,218.7 980.9,219.7 977.7,219.7Z" style="fill:rgb(2,19,59);fill-rule:nonzero;"/>
    <path d="M917,260.1C916.6,260.1 916.2,260 915.8,259.8C915.4,259.6 915.2,259.3 915,258.9C915,258.5 911.9,248.3 916.6,242C918.2,240.3 920.3,238.9 922.5,238.1C924.7,237.3 927.2,237 929.5,237.3C930.1,237.4 930.6,237.7 930.9,238.1C931.3,238.5 931.5,239.1 931.4,239.6C931,240.8 930.2,241.6 929,241.2C927.3,241 925.6,241.1 923.9,241.7C922.3,242.2 920.8,243.1 919.6,244.3C916.1,249 918.8,257.6 918.8,257.6C918.8,257.6 918.4,259.6 917.2,260L917,260L917,260.1Z" style="fill:rgb(2,19,59);fill-rule:nonzero;"/>
    <path d="M941.3,250.7C940.5,250.7 940.1,250.3 939.7,249.5C938.5,247 937.9,244.4 937.9,241.7C937.9,239 938.5,236.3 939.7,233.9C941.2,231.8 943.3,230.2 945.6,229.1C947.9,228 950.5,227.5 953,227.6C953.5,227.6 954,227.8 954.4,228.2C954.8,228.6 955,229.1 955,229.6C955,230.1 954.8,230.6 954.4,231C954,231.4 953.5,231.6 953,231.6C951.1,231.5 949.3,231.8 947.6,232.6C945.9,233.3 944.4,234.5 943.2,235.9C940.1,240.6 943.2,248.1 943.2,248.1C943.3,248.4 943.4,248.6 943.4,248.9C943.4,249.2 943.4,249.5 943.2,249.7C943.1,250 942.9,250.2 942.7,250.4C942.5,250.6 942.2,250.7 942,250.8L941.3,250.8L941.3,250.7Z" style="fill:rgb(2,19,59);fill-rule:nonzero;"/>
    <path d="M1316.8,436.5L1315.6,436.5C1315.2,436.1 1315,435.5 1315,434.9C1315,434.3 1315.2,433.8 1315.6,433.3L1328.9,421.1C1329.3,420.8 1329.7,420.7 1330.2,420.7C1330.7,420.7 1331.1,420.9 1331.4,421.3C1331.7,421.6 1331.9,422.1 1332,422.5C1332,423 1331.9,423.4 1331.6,423.8L1318.3,436.3L1316.8,436.3L1316.8,436.5Z" style="fill:rgb(2,19,59);fill-rule:nonzero;"/>
    <path d="M1327,438.8C1326.2,438.8 1325.8,438.4 1325.4,437.6L1321.9,429.4C1321.8,429.2 1321.7,428.9 1321.7,428.7C1321.7,428.4 1321.7,428.2 1321.9,427.9C1322,427.7 1322.2,427.5 1322.4,427.3C1322.6,427.2 1322.9,427.1 1323.1,427C1323.5,426.8 1324,426.8 1324.4,427C1324.8,427.1 1325.2,427.4 1325.4,427.8L1328.9,436C1329,436.3 1329.1,436.5 1329.1,436.8C1329.1,437.1 1329,437.4 1328.9,437.6C1328.8,437.9 1328.6,438.1 1328.4,438.3C1328.2,438.5 1327.9,438.6 1327.7,438.7L1327,438.7L1327,438.8Z" style="fill:rgb(2,19,59);fill-rule:nonzero;"/>
    <path d="M1284.2,481.6C1284.2,481.6 1312,478.1 1315.2,469.8C1315.2,469.8 1302.3,496.1 1284.6,498L1284.2,481.6Z" style="fill:rgb(2,19,59);fill-rule:nonzero;"/>
    <path d="M1288.9,550.2L1280.7,549C1257.6,542.3 1251.7,508.6 1251.3,507.4C1251.3,506.8 1251.5,506.3 1251.8,505.9C1252.1,505.5 1252.7,505.2 1253.2,505.1C1254,504.7 1255.2,505.5 1255.2,506.7C1255.2,507.9 1261.1,539.2 1281.9,545.1C1302.7,551 1320.7,537.7 1347.4,507.9C1347.8,507.5 1348.3,507.3 1348.8,507.3C1349.3,507.3 1349.8,507.5 1350.2,507.9C1350.5,508.3 1350.8,508.7 1350.9,509.2C1351,509.7 1350.9,510.2 1350.7,510.6C1326.6,536.8 1305.8,550.2 1288.9,550.2Z" style="fill:rgb(2,19,59);fill-rule:nonzero;"/>
    <path d="M1268.2,467.8C1265.8,467.9 1263.5,467.4 1261.4,466.4C1259.3,465.4 1257.4,463.8 1256.1,461.9C1255.9,461.7 1255.7,461.5 1255.6,461.2C1255.5,460.9 1255.4,460.6 1255.5,460.4C1255.5,460.1 1255.7,459.9 1255.8,459.6C1256,459.4 1256.2,459.2 1256.5,459.1C1256.7,459 1257,458.9 1257.3,458.8C1257.6,458.8 1257.8,458.8 1258.1,458.9C1258.4,459 1258.6,459.1 1258.8,459.3C1259,459.5 1259.2,459.7 1259.3,459.9C1259.3,460.3 1266.3,469.3 1280.8,459.1C1281.3,458.8 1281.8,458.8 1282.3,458.9C1282.8,459 1283.2,459.4 1283.5,459.9C1283.8,460.4 1283.8,460.9 1283.7,461.4C1283.6,461.9 1283.2,462.3 1282.7,462.6C1278.5,465.9 1273.4,467.7 1268.2,467.8Z" style="fill:rgb(2,19,59);fill-rule:nonzero;"/>
    <path d="M456.4,1669.2C694.5,1669.2 887.6,1476.2 887.6,1238C887.6,999.9 694.6,806.8 456.4,806.8C218.3,806.8 25.2,999.8 25.2,1238C25.2,1476.2 218.3,1669.2 456.4,1669.2Z" style="fill:white;fill-rule:nonzero;"/>
    <path d="M455.6,1671.6C358,1671.4 263.4,1638.2 187,1577.6C110.6,1516.9 56.9,1432.3 34.6,1337.3C-20.3,1104.9 124.4,871.2 357.2,816.4C416.6,802.8 478.2,801.8 538,813.6C597.8,825.4 654.4,849.7 704.1,884.8C753.9,920 795.6,965.2 826.7,1017.7C857.8,1070.1 877.4,1128.5 884.4,1189C891.4,1249.5 885.5,1310.8 867.1,1369C848.7,1427.1 818.3,1480.7 777.9,1526.2C737.4,1571.7 687.8,1608.2 632.3,1633.3C576.7,1658.3 516.5,1671.4 455.6,1671.6ZM457.2,808.5C423.8,808.6 390.6,812.4 358,819.9C127.5,874.3 -15.9,1106 38.5,1336.5C92.9,1567 324.2,1710.1 554.7,1656C656.9,1631.6 746.6,1570.6 806.8,1484.6C867,1398.5 893.7,1293.4 881.7,1189C869.7,1084.6 819.8,988.3 741.6,918.2C663.4,848 562.2,809 457.2,808.5Z" style="fill:rgb(2,19,59);fill-rule:nonzero;"/>
    <path d="M667.3,1338.8C667.3,1338.8 842.5,1462.7 904.4,1422.3C966.3,1381.9 959.7,1294.1 762.1,1225.9C564.6,1157.7 667.3,1338.8 667.3,1338.8Z" style="fill:white;fill-rule:nonzero;"/>
    <path d="M872.3,1432.5C844.9,1432.5 808,1420.7 761.8,1397.6C728.7,1380.6 696.8,1361.5 666.2,1340.4C666.1,1340.4 666,1340.3 665.9,1340.3C665.8,1340.2 665.8,1340.1 665.8,1340C663.8,1336.5 619.9,1257.7 648.6,1223.6C665.5,1203.2 703.9,1203.6 763.1,1224C909.3,1274.6 937.1,1329.8 940.7,1358.5C944.2,1387.1 931.3,1407.1 905.8,1424C895.6,1430 884,1433 872.3,1432.5ZM668.8,1337.6C677.8,1343.9 844.4,1459.1 903.2,1420.7C927.5,1404.6 939.7,1382.7 936.5,1359.2C933.4,1335.7 905.9,1277.7 761.7,1227.5C704.1,1207.9 666.8,1207.1 651.2,1225.9C625.3,1256.9 665.3,1331.8 668.8,1337.6Z" style="fill:rgb(2,19,59);fill-rule:nonzero;"/>
    <path d="M899.7,1234.5C899.7,1234.5 926.4,1242.3 925.2,1276C924,1309.7 898.5,1314 886,1288.6L899.7,1234.5Z" style="fill:white;fill-rule:nonzero;"/>
    <path d="M906,1307.1C897.8,1307.1 889.9,1300.4 884.4,1289.5C884.3,1289 884.3,1288.5 884.4,1288C884.5,1287.5 884.8,1287.1 885.2,1286.7C885.5,1286.6 885.7,1286.5 886,1286.5C886.3,1286.5 886.6,1286.6 886.8,1286.7C887,1286.8 887.3,1287 887.5,1287.2C887.7,1287.4 887.8,1287.7 887.9,1287.9C893,1298.5 901.2,1304.4 908.7,1302.8C916.1,1301.2 922.4,1293.4 923.2,1275.7C924,1244.3 900.1,1236.9 898.9,1236.5C897.7,1236.1 897.3,1234.9 897.7,1234.2C897.7,1233.9 897.8,1233.7 898,1233.5C898.1,1233.3 898.3,1233.1 898.6,1232.9C898.8,1232.8 899.1,1232.7 899.3,1232.6L900.1,1232.6C900.5,1233 928.3,1241.2 927.1,1276.1C926.3,1296.1 917.7,1304.7 909.5,1306.7L906,1307.1Z" style="fill:rgb(2,19,59);fill-rule:nonzero;"/>
    <path d="M871.1,1210.2C871.1,1210.2 895.8,1210.2 901.3,1241.2C906.8,1272.2 890.3,1304.7 869.2,1279.6C848,1254.5 857.8,1263.9 857.8,1263.9L871.1,1210.2Z" style="fill:white;fill-rule:nonzero;"/>
    <path d="M883.6,1290.6C879.3,1290.6 873.8,1288.2 867.5,1280.8C851.8,1262.8 852.2,1262.4 854.2,1260.8C856.2,1259.2 857.3,1261.2 858.9,1262.4C859.2,1262.7 859.4,1263.1 859.5,1263.5C859.6,1263.9 859.5,1264.4 859.3,1264.7C861.3,1267.1 864.4,1271.4 870.7,1278.4C877,1285.5 881.3,1288.6 887.6,1285.9C893.9,1283.2 902.5,1261.2 899.4,1241.6C894.3,1212.6 872.4,1212.2 871.2,1212.2C870.7,1212.2 870.2,1212 869.8,1211.6C869.4,1211.2 869.2,1210.7 869.2,1210.2C869.3,1209.7 869.5,1209.3 869.9,1208.9C870.3,1208.6 870.7,1208.3 871.2,1208.2C871.6,1208.2 897.5,1208.6 903.3,1240.7C906.8,1262.3 900.6,1283.8 889.2,1289.3C887.4,1290.3 885.5,1290.7 883.6,1290.6Z" style="fill:rgb(2,19,59);fill-rule:nonzero;"/>
    <path d="M818.2,1186.7C818.2,1186.7 864.8,1186.3 871.1,1210.2C877.4,1234.1 871.1,1279.2 835.8,1260.8L818.2,1186.7Z" style="fill:white;fill-rule:nonzero;"/>
    <path d="M851.1,1267.1C845.5,1266.9 840,1265.4 835,1262.8C834.6,1262.5 834.4,1262 834.2,1261.5C834.1,1261 834.1,1260.5 834.2,1260C834.6,1258.8 835.8,1258.8 836.9,1259.2C846.7,1264.3 854.9,1264.7 860.8,1260C866.7,1255.3 873,1225.5 869,1211C863.1,1188.7 818.4,1188.7 818,1188.7C817.5,1188.7 817,1188.5 816.6,1188.1C816.2,1187.7 816,1187.2 816,1186.7C816,1186.2 816.2,1185.7 816.6,1185.3C817,1184.9 817.5,1184.7 818,1184.7C820,1184.7 866.2,1184.7 872.9,1209.8C876.8,1224.7 876.8,1252.1 863.1,1262.7C859.9,1265.7 855.6,1267.2 851.1,1267.1Z" style="fill:rgb(2,19,59);fill-rule:nonzero;"/>
    <path d="M764.1,1184.8C764.1,1184.8 816.6,1166 835.8,1206.7C855,1247.5 829.5,1276.9 809.1,1251.4C788.8,1225.9 791.1,1200.1 764.1,1184.8Z" style="fill:white;fill-rule:nonzero;"/>
    <path d="M825.2,1262.8C821.7,1262.5 818.4,1261.5 815.4,1259.7C812.4,1257.9 809.9,1255.5 808,1252.6C800.8,1243.3 795,1233 790.8,1222C784.5,1207.9 779,1195.3 763,1186.3C762.8,1186.1 762.6,1185.9 762.4,1185.6C762.2,1185.3 762.2,1185 762.2,1184.7C762.2,1184.3 762.3,1183.9 762.5,1183.5C762.7,1183.2 763,1182.9 763.4,1182.7C764.2,1182.7 818.3,1163.9 837.9,1205.4C849.7,1230.9 845,1253.2 833.6,1260.3C831,1261.9 828.1,1262.7 825.2,1262.8ZM768.8,1185.6C782.9,1194.6 788.4,1207.2 794.3,1220.5C798.5,1231.1 804,1241.1 810.8,1250.3C817.5,1258.5 825.3,1261.3 831.2,1257.4C837.1,1253.5 845.3,1230.7 834.3,1207.6C826.5,1191.5 812.7,1182.9 792.8,1182.5C784.6,1182.2 776.5,1183.2 768.8,1185.6Z" style="fill:rgb(2,19,59);fill-rule:nonzero;"/>
    <path d="M515.6,1008.8C550.5,1008.8 578.7,991.8 578.7,970.8C578.7,949.8 550.4,932.8 515.6,932.8C480.7,932.8 452.5,949.8 452.5,970.8C452.5,991.8 480.7,1008.8 515.6,1008.8Z" style="fill:rgb(2,19,59);fill-rule:nonzero;"/>
    <path d="M487,1044L476,1134.9L595.6,1127.5L579.9,1073C579.9,1073 640.7,993.8 549.7,970.3C458.7,946.8 487,1044 487,1044Z" style="fill:white;fill-rule:nonzero;"/>
    <path d="M476,1136.9L474.8,1136.1C474.6,1135.9 474.4,1135.7 474.2,1135.4C474.1,1135.1 474,1134.8 474,1134.5L484.6,1044.3C483.4,1039.6 472.8,997.3 493.2,976.1C504.6,964.3 523.8,961.6 550.4,968.7C577.1,975.8 593.1,987.5 599,1004.8C609.2,1034.2 586.1,1067.5 581.8,1073.4L597.5,1126.7C597.9,1127.5 597.5,1127.9 597.5,1128.7L595.9,1129.5L476.3,1136.9L476,1136.9ZM524.2,968.8C519.1,968.5 513.9,969.3 509.1,971C504.3,972.8 499.8,975.5 496,979C476.4,999 488.6,1043.3 488.6,1043.7C488.6,1044.1 489,1044.1 488.6,1044.5L478.4,1133.1L593.2,1125.6L577.9,1073.5C577.5,1073.1 577.9,1072.3 578.3,1071.9C578.7,1071.5 605.3,1035.8 595.5,1006.4C590,990.3 574.3,979 549.2,972.3C541.1,970.1 532.7,968.9 524.2,968.8Z" style="fill:rgb(2,19,59);fill-rule:nonzero;"/>
    <path d="M504.6,1061.3C539.5,1061.3 567.7,1033.1 567.7,998.2C567.7,963.3 539.4,935.1 504.6,935.1C469.7,935.1 441.5,963.4 441.5,998.2C441.5,1033 469.8,1061.3 504.6,1061.3Z" style="fill:rgb(2,19,59);fill-rule:nonzero;"/>
    <path d="M545.4,1049.1C557.1,1049.1 566.6,1039.6 566.6,1027.9C566.6,1016.2 557.1,1006.7 545.4,1006.7C533.7,1006.7 524.2,1016.2 524.2,1027.9C524.2,1039.7 533.7,1049.1 545.4,1049.1Z" style="fill:white;fill-rule:nonzero;"/>
    <path d="M199.3,1581.8C199.3,1581.8 316.9,962.9 675.9,1142.4L757.4,1181.6C773.4,1189.3 786.3,1202.2 793.9,1218.3C801.5,1234.4 803.3,1252.5 799,1269.8C785.7,1323.1 756.7,1389.4 693.6,1381.5L637.5,1354.8L676.7,1606.8C676.7,1606.9 443.1,1760.2 199.3,1581.8Z" style="fill:rgb(247,174,56);fill-rule:nonzero;"/>
    <path d="M583,1006.8C585.4,1006.8 587.3,1004.9 587.3,1002.5C587.3,1000.1 585.4,998.2 583,998.2C580.6,998.2 578.7,1000.1 578.7,1002.5C578.7,1004.9 580.6,1006.8 583,1006.8Z" style="fill:rgb(2,19,59);fill-rule:nonzero;"/>
    <path d="M593.6,1004.5C593.6,1004.5 601.4,991.6 604.2,1000.2C606.9,1008.8 596.4,1021 596.4,1021L593.6,1004.5Z" style="fill:white;fill-rule:nonzero;"/>
    <path d="M596.3,1022.9L595.1,1022.1C594.7,1021.8 594.4,1021.3 594.3,1020.8C594.2,1020.3 594.4,1019.8 594.7,1019.3C597.4,1016.5 604.5,1007.2 602.5,1000.9C602.3,1000.3 601.9,999.7 601.3,999.3C600.1,999.3 597.4,1002 595,1005.6C594.8,1006 594.4,1006.3 594,1006.4C593.6,1006.5 593.1,1006.5 592.7,1006.4C591.5,1005.6 591.1,1004.4 591.9,1003.7C592.7,1002.9 597.8,994.7 601.7,995.5C605.6,996.3 604.8,996.3 606,999.8C609.1,1009.6 598.2,1021.8 597.8,1022.1L596.3,1022.9Z" style="fill:rgb(2,19,59);fill-rule:nonzero;"/>
    <path d="M591.2,1044L588.5,1044C583.8,1042.8 581.4,1037.3 581.1,1037.3C581,1037.1 580.9,1036.8 580.9,1036.5C580.9,1036.2 580.9,1035.9 581.1,1035.7C581.3,1035.5 581.4,1035.2 581.6,1035C581.8,1034.8 582.1,1034.7 582.3,1034.6C582.8,1034.4 583.4,1034.5 583.9,1034.7C584.4,1034.9 584.8,1035.3 585.1,1035.8C586.1,1037.9 587.7,1039.5 589.8,1040.5C591.7,1040.8 593.7,1040.4 595.3,1039.3C595.5,1039.1 595.7,1039 596,1039C596.2,1038.9 596.5,1038.9 596.8,1039C597.1,1039 597.3,1039.1 597.5,1039.2C597.7,1039.3 597.9,1039.5 598.1,1039.7C598.3,1039.9 598.4,1040.1 598.4,1040.4C598.5,1040.6 598.5,1040.9 598.4,1041.2C598.4,1041.4 598.3,1041.7 598.1,1041.9C598,1042.1 597.8,1042.3 597.6,1042.5C595.6,1043.6 593.4,1044.2 591.2,1044Z" style="fill:rgb(2,19,59);fill-rule:nonzero;"/>
    <path d="M556.3,1031.5L555.5,1031.5L531.2,1020.9C530.8,1020.7 530.5,1020.3 530.4,1019.9C530.3,1019.5 530.3,1019 530.4,1018.6C530.4,1018.3 530.5,1018.1 530.7,1017.9C530.9,1017.7 531.1,1017.5 531.3,1017.4C531.5,1017.3 531.8,1017.2 532.1,1017.2C532.4,1017.2 532.6,1017.3 532.8,1017.4L557.1,1028C557.4,1028.1 557.6,1028.2 557.8,1028.4C558,1028.6 558.2,1028.8 558.3,1029.1C558.4,1029.4 558.5,1029.7 558.5,1029.9C558.5,1030.2 558.4,1030.5 558.3,1030.7C558.1,1031 557.8,1031.2 557.4,1031.4C557.1,1031.5 556.7,1031.6 556.3,1031.5Z" style="fill:rgb(2,19,59);fill-rule:nonzero;"/>
    <path d="M545.4,1040.9C544.9,1040.9 544.5,1040.7 544.1,1040.5C543.7,1040.2 543.5,1039.8 543.4,1039.4L540.7,1024.5C540.6,1024.3 540.6,1024 540.7,1023.7C540.7,1023.4 540.8,1023.2 541,1023C541.1,1022.8 541.3,1022.6 541.6,1022.5C541.8,1022.4 542.1,1022.3 542.3,1022.2C542.8,1022.2 543.3,1022.4 543.7,1022.7C544.1,1023 544.4,1023.4 544.7,1023.8L547.4,1039.1C547.8,1039.9 547,1041.1 545.8,1041.1L545.4,1041.1L545.4,1040.9Z" style="fill:rgb(2,19,59);fill-rule:nonzero;"/>
    <path d="M820.5,1245.1C820.5,1245.1 812.3,1215.3 841.3,1222.4L820.5,1245.1Z" style="fill:white;fill-rule:nonzero;"/>
    <path d="M820.5,1247.1C820.1,1247 819.7,1246.8 819.3,1246.6C819,1246.3 818.7,1246 818.5,1245.6C818.5,1245.2 814.6,1231.1 821.6,1223.6C828.7,1216.2 832.6,1218.1 841.6,1220.5C842.8,1220.9 843.6,1221.7 843.2,1222.8C842.8,1224 842,1224.4 840.8,1224.4C833,1222.4 827.5,1223.2 824.3,1226.4C821.2,1229.5 822.3,1244.4 822.3,1244.4C822.5,1244.7 822.5,1245 822.5,1245.2C822.5,1245.5 822.4,1245.8 822.2,1246C822,1246.2 821.8,1246.4 821.5,1246.6C821.2,1246.7 820.9,1246.8 820.6,1246.7C820.6,1246.8 820.6,1246.9 820.5,1247C820.7,1247 820.6,1247.1 820.5,1247.1Z" style="fill:rgb(2,19,59);fill-rule:nonzero;"/>
    <path d="M857.4,1249.4C857.4,1249.4 855,1222 871.5,1225.9L857.4,1249.4Z" style="fill:white;fill-rule:nonzero;"/>
    <path d="M857.4,1251.4C857,1251.3 856.6,1251.1 856.2,1250.8C855.8,1250.5 855.6,1250.2 855.4,1249.8C855.4,1249 854.2,1232.6 861.7,1226.3C863,1225.1 864.7,1224.2 866.5,1223.8C868.3,1223.4 870.2,1223.4 871.9,1224C872.4,1224.2 872.8,1224.5 873.1,1224.9C873.4,1225.3 873.5,1225.8 873.5,1226.3C873.1,1227.5 871.9,1228.3 871.1,1227.9C869.9,1227.5 868.7,1227.3 867.4,1227.5C866.2,1227.7 865,1228.2 864,1229.1C859.3,1233.4 858.9,1245.2 859.3,1249.5C859.7,1253.8 858.9,1251.5 857.7,1251.5L857.4,1251.5L857.4,1251.4Z" style="fill:rgb(2,19,59);fill-rule:nonzero;"/>
    <path d="M882.5,1276.5C882.5,1276.5 877.4,1248.7 902.1,1257.3L882.5,1276.5Z" style="fill:white;fill-rule:nonzero;"/>
    <path d="M882.5,1278.4C882,1278.4 881.6,1278.3 881.2,1278C880.8,1277.7 880.6,1277.3 880.5,1276.9C880.5,1276.5 878.1,1262.8 885.2,1256.5C892.3,1250.2 895,1252.6 902.8,1255.3C903.6,1255.7 904.4,1256.9 904,1257.7C903.9,1258 903.8,1258.2 903.6,1258.4C903.4,1258.6 903.2,1258.8 902.9,1258.9C902.6,1259 902.4,1259.1 902.1,1259.1C901.8,1259.1 901.5,1259 901.3,1258.9C895.4,1256.9 890.7,1256.9 888,1259.3C885.3,1261.6 884.5,1276.1 884.5,1276.5C884.5,1276.9 884.1,1278.5 882.9,1278.5L882.5,1278.5L882.5,1278.4Z" style="fill:rgb(2,19,59);fill-rule:nonzero;"/>
    <path d="M907.9,1295.7C907.9,1295.7 904,1267.5 925.1,1276.1L907.9,1295.7Z" style="fill:white;fill-rule:nonzero;"/>
    <path d="M907.9,1297.7C907.1,1297.7 906.3,1296.9 905.9,1295.7C905.5,1294.5 903.9,1280.4 911.4,1274.5C918.8,1268.6 919.6,1271.8 925.9,1274.1C932.2,1276.4 927.5,1275.7 927.1,1276.4C926.7,1277.2 925.5,1278 924.4,1277.6C923.2,1277.2 916.2,1275.6 913.8,1277.6C911.4,1279.6 909.5,1291.3 909.9,1295.2C910.3,1299.1 909.5,1297.2 908.3,1297.5L907.9,1297.5L907.9,1297.7Z" style="fill:rgb(2,19,59);fill-rule:nonzero;"/>
    <path d="M542.6,1060.1C542.6,1060.1 554,1078.5 579.8,1071.9L586.1,1094.2C586.1,1094.2 545.8,1076.2 542.6,1060.1Z" style="fill:rgb(2,19,59);fill-rule:nonzero;"/>
    <path d="M823.7,1458.4L654.4,1456.8L648.5,1423.1L841.4,1426.2L823.7,1458.4Z" style="fill:white;fill-rule:nonzero;"/>
    <path d="M823.7,1460.3L654.4,1458.7C653.6,1458.7 652.8,1457.9 652.4,1456.7L646.5,1423.4C646.1,1423 646.5,1422.2 646.9,1421.8C647.1,1421.6 647.3,1421.3 647.6,1421.2C647.9,1421.1 648.2,1421 648.5,1421L841.4,1424.1C841.8,1424.1 842.2,1424.2 842.6,1424.4C843,1424.6 843.2,1424.9 843.4,1425.3C843.6,1425.6 843.7,1425.9 843.7,1426.3C843.7,1426.7 843.6,1427 843.4,1427.3L825.8,1459.1C825.6,1459.5 825.4,1459.8 825,1460C824.5,1460.3 824.1,1460.3 823.7,1460.3ZM656.3,1454.8L822.5,1456.4L838.2,1428.2L650.8,1425.1L656.3,1454.8Z" style="fill:rgb(2,19,59);fill-rule:nonzero;"/>
    <path d="M294.5,1208.7L226.4,1057.1C222.5,1048.4 212.3,1044.5 203.6,1048.4L124.1,1084.1C115.4,1088 111.5,1098.2 115.4,1106.9L183.5,1258.5C187.4,1267.2 197.6,1271.1 206.3,1267.2L285.8,1231.5C294.5,1227.6 298.4,1217.4 294.5,1208.7Z" style="fill:rgb(2,19,59);fill-rule:nonzero;"/>
    <path d="M287.9,1206L223.9,1063.7C220.4,1055.8 211.1,1052.3 203.2,1055.8L129.4,1089C121.5,1092.6 118,1101.8 121.5,1109.7L185.5,1252C189,1259.9 198.3,1263.4 206.2,1259.9L280,1226.7C288,1223.2 291.5,1213.9 287.9,1206Z" style="fill:white;fill-rule:nonzero;"/>
    <path d="M139.7,1082L190.5,1059.2C192,1062.6 192.1,1066.5 190.8,1070C189.5,1073.5 186.8,1076.3 183.4,1077.9L158.7,1089C155.3,1090.5 151.4,1090.6 147.9,1089.3C144.4,1088 141.6,1085.3 140,1081.9L139.7,1082Z" style="fill:rgb(2,19,59);fill-rule:nonzero;"/>
    <path d="M145.6,1124.8C147.8,1124.8 149.5,1123 149.5,1120.9C149.5,1118.7 147.7,1117 145.6,1117C143.4,1117 141.7,1118.8 141.7,1120.9C141.6,1123 143.4,1124.8 145.6,1124.8Z" style="fill:rgb(241,65,70);fill-rule:nonzero;"/>
    <path d="M155,1146C157.2,1146 158.9,1144.2 158.9,1142.1C158.9,1139.9 157.1,1138.2 155,1138.2C152.8,1138.2 151.1,1140 151.1,1142.1C151,1144.2 152.8,1146 155,1146Z" style="fill:rgb(241,65,70);fill-rule:nonzero;"/>
    <path d="M164.4,1166.7C166.6,1166.7 168.3,1164.9 168.3,1162.8C168.3,1160.6 166.5,1158.9 164.4,1158.9C162.2,1158.9 160.5,1160.7 160.5,1162.8C160.5,1165 162.2,1166.7 164.4,1166.7Z" style="fill:rgb(241,65,70);fill-rule:nonzero;"/>
    <path d="M173.8,1187.9C176,1187.9 177.7,1186.1 177.7,1184C177.7,1181.8 175.9,1180.1 173.8,1180.1C171.7,1180.1 169.9,1181.9 169.9,1184C169.9,1186.1 171.6,1187.9 173.8,1187.9Z" style="fill:rgb(241,65,70);fill-rule:nonzero;"/>
    <path d="M183.2,1209.1C185.4,1209.1 187.1,1207.3 187.1,1205.2C187.1,1203 185.3,1201.3 183.2,1201.3C181,1201.3 179.3,1203.1 179.3,1205.2C179.3,1207.3 181,1209.1 183.2,1209.1Z" style="fill:rgb(241,65,70);fill-rule:nonzero;"/>
    <path d="M157.3,1117.7C156.9,1117.7 156.5,1117.6 156.1,1117.4C155.7,1117.2 155.5,1116.9 155.3,1116.5C155.2,1116.2 155.1,1116 155.1,1115.7C155.1,1115.4 155.1,1115.1 155.3,1114.9C155.4,1114.6 155.6,1114.4 155.8,1114.2C156,1114 156.3,1113.9 156.5,1113.8L220.4,1085.2C220.9,1085 221.4,1085 221.9,1085.1C222.4,1085.2 222.8,1085.5 223.1,1085.9C223.2,1086.2 223.3,1086.4 223.3,1086.7C223.3,1087 223.3,1087.3 223.1,1087.5C223,1087.8 222.8,1088 222.6,1088.2C222.4,1088.4 222.1,1088.5 221.9,1088.6L158,1117.2L157.3,1117.7Z" style="fill:rgb(2,19,59);fill-rule:nonzero;"/>
    <path d="M192.6,1111.1C192.2,1111.1 191.8,1111 191.4,1110.8C191,1110.6 190.8,1110.3 190.6,1109.9C190.5,1109.7 190.4,1109.4 190.4,1109.2C190.4,1108.9 190.4,1108.7 190.6,1108.4C190.7,1108.2 190.9,1108 191.1,1107.8C191.3,1107.7 191.6,1107.6 191.8,1107.5L224.7,1092.6C225.2,1092.4 225.7,1092.4 226.2,1092.5C226.7,1092.6 227.1,1092.9 227.4,1093.4C227.5,1093.7 227.6,1093.9 227.6,1094.2C227.6,1094.5 227.6,1094.8 227.4,1095C227.3,1095.3 227.1,1095.5 226.9,1095.7C226.7,1095.9 226.4,1096 226.2,1096.1L193.3,1111L192.6,1111L192.6,1111.1Z" style="fill:rgb(2,19,59);fill-rule:nonzero;"/>
    <path d="M168.3,1138.9C167.9,1138.9 167.5,1138.8 167.1,1138.6C166.7,1138.4 166.5,1138.1 166.3,1137.7C166.2,1137.5 166.1,1137.2 166.1,1137C166.1,1136.7 166.1,1136.5 166.3,1136.2C166.5,1135.9 166.6,1135.8 166.8,1135.6C167,1135.4 167.3,1135.4 167.5,1135.3L200.4,1120.4C200.9,1120.2 201.4,1120.2 201.9,1120.3C202.4,1120.4 202.8,1120.7 203.1,1121.1C203.2,1121.4 203.3,1121.6 203.3,1121.9C203.3,1122.2 203.3,1122.5 203.1,1122.7C203,1123 202.8,1123.2 202.6,1123.4C202.4,1123.6 202.1,1123.7 201.9,1123.8L169,1138.7L168.3,1138.7L168.3,1138.9Z" style="fill:rgb(2,19,59);fill-rule:nonzero;"/>
    <path d="M178.5,1158.5C178.1,1158.5 177.7,1158.4 177.3,1158.2C176.9,1158 176.7,1157.7 176.5,1157.3C176.4,1157.1 176.3,1156.8 176.3,1156.6C176.3,1156.3 176.3,1156.1 176.5,1155.8C176.6,1155.6 176.8,1155.4 177,1155.2C177.2,1155 177.5,1155 177.7,1154.9L233,1129.8C233.5,1129.6 234.1,1129.7 234.6,1129.9C235.1,1130.1 235.5,1130.5 235.8,1131C236.2,1132.2 235.8,1133 234.6,1133.8L179.3,1158.5L178.5,1158.5Z" style="fill:rgb(2,19,59);fill-rule:nonzero;"/>
    <path d="M184.8,1181.6C184.4,1181.6 184,1181.5 183.6,1181.3C183.2,1181.1 183,1180.8 182.8,1180.4C182.7,1180.2 182.6,1179.9 182.6,1179.7C182.6,1179.4 182.6,1179.2 182.8,1178.9C182.9,1178.7 183.1,1178.5 183.3,1178.3C183.5,1178.1 183.8,1178.1 184,1178L207.9,1167C208.2,1166.9 208.4,1166.8 208.7,1166.8C209,1166.8 209.3,1166.8 209.5,1167C209.7,1167.2 210,1167.3 210.2,1167.5C210.4,1167.7 210.5,1168 210.6,1168.2C210.7,1168.4 210.8,1168.7 210.8,1168.9C210.8,1169.1 210.8,1169.4 210.6,1169.7C210.5,1169.9 210.3,1170.1 210.1,1170.3C209.9,1170.5 209.6,1170.5 209.4,1170.6L185.5,1181.6L184.8,1181.6Z" style="fill:rgb(2,19,59);fill-rule:nonzero;"/>
    <path d="M223.6,1164.4C223.2,1164.4 222.8,1164.3 222.4,1164.1C222,1163.9 221.8,1163.6 221.6,1163.2C221.5,1163 221.4,1162.7 221.4,1162.4C221.4,1162.1 221.4,1161.8 221.6,1161.6C221.7,1161.3 221.9,1161.1 222.1,1160.9C222.3,1160.7 222.6,1160.6 222.8,1160.5L246.7,1149.9C247.2,1149.7 247.7,1149.7 248.2,1149.8C248.7,1149.9 249.1,1150.2 249.4,1150.7C249.5,1150.9 249.6,1151.2 249.6,1151.5C249.6,1151.8 249.6,1152.1 249.4,1152.3C249.2,1152.5 249.1,1152.8 248.9,1153C248.7,1153.2 248.4,1153.3 248.2,1153.4L224.3,1164L223.6,1164.4Z" style="fill:rgb(2,19,59);fill-rule:nonzero;"/>
    <path d="M194.9,1201.6C194.5,1201.6 194.1,1201.5 193.7,1201.3C193.3,1201.1 193.1,1200.8 192.9,1200.4C192.8,1200.2 192.7,1199.9 192.7,1199.7C192.7,1199.5 192.7,1199.2 192.9,1198.9C193,1198.7 193.2,1198.5 193.4,1198.3C193.6,1198.1 193.9,1198.1 194.1,1198L232.1,1180.8C232.4,1180.7 232.6,1180.6 232.9,1180.6C233.2,1180.6 233.5,1180.6 233.7,1180.8C234,1180.9 234.2,1181.1 234.4,1181.3C234.6,1181.5 234.7,1181.8 234.8,1182C234.9,1182.2 235,1182.5 235,1182.7C235,1182.9 235,1183.2 234.8,1183.5C234.7,1183.7 234.5,1183.9 234.3,1184.1C234.1,1184.3 233.8,1184.3 233.6,1184.4L195.6,1201.6L194.9,1201.6Z" style="fill:rgb(2,19,59);fill-rule:nonzero;"/>
    <path d="M198.9,1210.6C198.1,1210.6 197.3,1210.2 197.3,1209.4C197.3,1208.6 197.3,1207.4 198.1,1207.1L236.1,1189.9C236.4,1189.8 236.6,1189.7 236.9,1189.7C237.2,1189.7 237.5,1189.7 237.7,1189.9C238,1190 238.2,1190.2 238.4,1190.4C238.6,1190.6 238.7,1190.9 238.8,1191.1C239,1191.5 239,1192 238.8,1192.4C238.7,1192.8 238.4,1193.2 238,1193.4L199.6,1210.6L198.9,1210.6Z" style="fill:rgb(2,19,59);fill-rule:nonzero;"/>
    <path d="M202.8,1219.7C202.5,1219.7 202.1,1219.5 201.9,1219.3C201.6,1219.1 201.4,1218.8 201.3,1218.5C201.1,1218.1 201.1,1217.6 201.3,1217.2C201.4,1216.8 201.7,1216.4 202.1,1216.2L240.5,1199C240.9,1198.8 241.4,1198.8 241.8,1199C242.2,1199.1 242.6,1199.4 242.8,1199.8C243,1200.3 243,1200.8 242.9,1201.3C242.8,1201.8 242.5,1202.2 242,1202.5L203.6,1219.7L202.8,1219.7Z" style="fill:rgb(2,19,59);fill-rule:nonzero;"/>
    <path d="M637.5,1356.8L636.3,1356.8L544.6,1308.2C544.3,1308.2 544,1308 543.8,1307.8C543.6,1307.6 543.4,1307.3 543.3,1307C543.2,1306.7 543.2,1306.4 543.3,1306.1C543.4,1305.8 543.6,1305.6 543.8,1305.4C544,1305 544.4,1304.7 544.8,1304.6C545.2,1304.5 545.7,1304.5 546.1,1304.6L638.2,1352.8C638.6,1353.1 638.8,1353.6 639,1354.1C639.1,1354.6 639.1,1355.1 639,1355.6C638.9,1355.9 638.6,1356.2 638.4,1356.4C638.2,1356.7 637.8,1356.8 637.5,1356.8Z" style="fill:rgb(2,19,59);fill-rule:nonzero;"/>
</svg>
