<svg width="1321" height="190" viewBox="0 0 1321 190" fill="none" xmlns="http://www.w3.org/2000/svg">
<path d="M86.6177 9.92997C107.263 10.0292 112.72 28.2167 109.394 44.259C106.848 56.8641 99.148 67.915 89.2083 67.8673C73.9151 67.7938 96.0266 41.136 77.8666 41.0488C69.0727 41.0065 61.7709 48.6184 60.0139 56.4482C57.6653 67.7157 67.7688 73.691 83.8264 73.7681C99.6933 73.8443 122.852 68.0289 128.326 43.0119C134.776 13.6023 107.105 3.14642 82.8274 3.02977C43.2562 2.83965 11.3896 30.4064 2.39688 71.8475C-6.59582 113.288 13.1538 141.103 50.6211 141.283C66.8709 141.361 91.1735 136.316 104.791 127.014L110.067 103.334L105.67 103.313C98.888 122.207 78.9474 134.537 59.6401 134.444C31.5375 134.309 18.4754 107.674 26.2934 71.9623C34.1113 36.2509 58.5165 9.79496 86.6177 9.92997Z" fill="#3350A3"/>
<path d="M136.189 37.6962L134.823 43.4245C140.175 43.4502 144.751 46.3401 142.013 58.9442L133.217 99.43C127.742 125.021 122.154 134.17 115.654 134.139L114.287 139.868L157.491 140.075L158.666 134.345C152.167 134.314 150.682 125.131 156.157 99.5402L163.582 65.9298C172.262 49.9132 181.854 42.886 188.353 42.9172C194.088 42.9447 192.724 48.4822 192.331 50.3919C189.207 64.3322 195.109 69.3309 200.844 69.3585C207.343 69.3897 213.3 62.9186 215.056 55.6628C217.011 46.6872 212.282 36.341 196.606 36.2657C184.371 36.2069 174.784 42.2784 166.905 50.4611L169.643 37.8569L136.189 37.6962Z" fill="#3350A3"/>
<path d="M296.93 84.5398C303.578 53.6023 293.909 36.7326 267.146 36.604C240.383 36.4754 219.465 53.1982 212.626 84.1348C206.367 113.545 214.841 140.35 245.237 140.496C268.75 140.609 283.738 124.814 291.43 115.483L289.528 113.371C282.8 120.986 272.058 128.581 260.014 128.523C243.192 128.443 230.649 112.897 236.52 84.441L296.93 84.5398ZM238.078 78.7131C242.755 60.1921 252.015 42.4575 265.78 42.5236C279.543 42.5898 278.118 60.7442 274.207 78.8867L238.078 78.7131Z" fill="#3350A3"/>
<path d="M297.954 110.352C293.654 129.831 305.063 142.503 326.284 142.605C336.414 142.654 345.605 139.831 352.702 134.894C353.636 139.487 356.87 142.752 362.605 142.78C375.03 142.839 388.675 127.802 393.9 114.828L391.227 113.859C387.755 120.534 383.142 125.673 380.657 125.661C378.555 125.651 377.614 122.397 379.374 114.185L386.412 81.7196C390.319 64.3415 391.213 37.1995 355.273 37.0268C331.952 36.9148 313.726 50.2095 311.966 58.4211C309.819 67.5871 329.324 66.5336 332.383 66.5483C335.117 54.5177 342.628 42.7014 354.29 42.7575C368.627 42.8263 367.395 60.7903 365.233 73.015C340.76 73.6619 304.599 79.9879 297.954 110.352ZM353.109 129.734C348.702 131.816 344.108 132.941 339.329 132.918C325.183 132.85 317.96 124.022 320.699 111.226C324.805 92.1288 347.801 80.5782 364.057 78.9356C363.861 80.0818 363.666 80.8453 363.472 81.6093L353.109 129.734Z" fill="#3350A3"/>
<path d="M397.761 107.008C392.29 131.643 400.838 143.154 415.174 143.223C433.145 143.118 442.036 122.897 445.132 115.074L442.461 114.105C438.017 123.834 430.332 131.826 423.45 131.793C416.761 131.569 416.988 123.923 418.354 118.004L434.189 44.8612L453.115 44.9521L454.481 39.2239L435.364 39.132L441.031 13.5424L435.296 13.5148C432.755 25.1636 416.047 40.9508 402.475 40.8856L401.5 44.7042L411.249 44.751L397.761 107.008Z" fill="#3350A3"/>
<path d="M472.184 15.2204C470.421 23.8146 474.791 29.5709 483.394 29.6122C491.996 29.6535 498.906 23.9513 500.668 15.357C502.62 6.955 498.25 1.19921 489.647 1.15794C481.045 1.11667 474.136 6.81834 472.184 15.2204ZM492.906 39.4077L459.451 39.2472L458.085 44.9755C463.437 45.0012 468.013 47.8911 465.275 60.4952L453.739 114.159C449.827 132.684 448.246 143.19 460.29 143.248C474.819 143.318 485.788 128.268 491.011 115.293L488.34 114.325C484.867 120.999 480.253 126.138 477.577 126.126C475.475 126.115 474.726 122.862 476.485 114.65L492.906 39.4077Z" fill="#3350A3"/>
<path d="M515.737 141.794C556.074 141.988 582.623 66.985 582.917 45.5749C582.946 39.4575 580.85 38.1094 578.365 38.0975C574.159 38.0773 568.599 41.4916 568.575 46.4618C568.555 50.6677 572.563 52.025 572.526 59.6717C572.431 79.5533 546.959 128.944 529.564 128.86C521.917 128.824 521.961 119.648 523.921 109.525L532.728 66.7452C536.449 48.4105 538.22 37.9046 526.176 37.8468C511.647 37.777 500.679 52.8267 495.455 65.8012L498.128 66.579C501.599 60.0959 506.213 54.9563 508.889 54.9692C510.991 54.9793 511.74 58.2325 509.981 66.4446L500.981 109.415C498.635 120.109 494.327 141.691 515.737 141.794Z" fill="#3350A3"/>
<path d="M664.543 86.3039C671.191 55.3663 661.521 38.4966 634.758 38.3681C607.995 38.2395 587.078 54.9622 580.238 85.8988C573.981 115.309 582.454 142.114 612.85 142.26C636.363 142.373 651.35 126.578 659.041 117.247L657.14 115.135C650.413 122.75 639.671 130.345 627.627 130.287C610.804 130.207 598.262 114.661 604.134 86.205L664.543 86.3039ZM605.69 80.4772C610.366 61.9561 619.628 44.2216 633.392 44.2877C647.156 44.3538 645.731 62.5083 641.821 80.6508L605.69 80.4772Z" fill="#3350A3"/>
<path d="M814.44 114.783L789.688 54.0629L795.067 48.5445C824.27 18.2887 836.547 9.55359 848.399 9.61046L849.574 3.88111L814.973 3.7151L813.606 9.44353C824.886 9.49765 802.592 34.2432 794.907 42.044L766.86 70.3942L772.531 44.0394C778.007 18.4491 783.595 9.29953 790.094 9.33071L791.459 3.60228L748.256 3.39499C733.345 3.32345 716.496 8.78676 712.978 24.8277C711.024 33.6123 714.431 40.5108 723.226 40.553C731.636 40.5933 736.827 34.5009 738.194 28.7724C739.756 21.7063 733.453 20.7204 734.626 15.1819C735.409 11.3626 739.053 9.08582 744.023 9.10967C753.773 9.15645 755.066 18.339 749.591 43.9294L737.472 99.502C731.996 125.093 726.408 134.242 719.909 134.211L718.543 139.94L761.746 140.147L762.921 134.417C756.421 134.386 754.936 125.203 760.412 99.6121L764.712 79.7512L770.668 73.6624L791.452 124.614C807.7 164.837 824.596 189.579 855.181 189.726C884.431 189.866 898.249 178.463 900.597 167.195C901.965 161.084 899.326 153.424 889.957 153.379C869.695 153.282 870.887 183.684 850.432 183.586C827.874 183.477 827.099 146.004 814.44 114.783Z" fill="#3350A3"/>
<path d="M858.317 14.2459C856.556 22.8406 860.925 28.5966 869.528 28.638C878.13 28.6793 885.04 22.9775 886.802 14.3828C888.753 5.98123 884.384 0.224579 875.781 0.183245C867.179 0.141918 860.27 5.84438 858.317 14.2459ZM879.039 38.4333L845.586 38.2725L844.22 44.0009C849.573 44.0267 854.147 46.9162 851.41 59.5208L839.874 113.184C835.961 131.709 834.382 142.216 846.425 142.274C860.954 142.344 871.923 127.293 877.147 114.319L874.475 113.351C871.002 120.024 866.389 125.164 863.713 125.151C861.61 125.141 860.86 121.888 862.621 113.676L879.039 38.4333Z" fill="#3350A3"/>
<path d="M883.138 140.538C886.404 137.304 888.894 136.169 891.571 136.182C897.879 136.212 904.349 142.552 919.641 142.625C947.36 142.759 971.167 121.653 978.596 87.2778C984.851 58.4407 975.969 37.1785 947.484 37.0416C936.398 36.9883 929.884 40.0154 921.062 45.7086L930.641 1.40295L897.379 1.24314L896.013 6.97156C901.174 6.99636 905.749 9.88582 903.012 22.4898L877.402 140.702L883.138 140.538ZM918.913 55.2564C924.875 48.0206 932.726 44.9999 940.756 45.0385C963.505 45.1478 958.413 70.3576 955.874 81.6245C949.814 109.506 941.463 136.995 919.479 136.89C910.876 136.848 902.103 132.6 909.137 100.708L918.913 55.2564Z" fill="#3350A3"/>
<path d="M979.485 141C982.751 137.766 985.242 136.631 987.918 136.644C994.226 136.674 1000.7 143.014 1015.99 143.088C1043.71 143.221 1067.51 122.115 1074.94 87.74C1081.2 58.9029 1072.32 37.6407 1043.83 37.5038C1032.74 37.4506 1026.23 40.4776 1017.41 46.1709L1026.99 1.86516L993.727 1.70535L992.36 7.43377C997.522 7.45857 1002.1 10.348 999.36 22.952L973.75 141.164L979.485 141ZM1015.26 55.7186C1021.22 48.4828 1029.07 45.4622 1037.1 45.5007C1059.85 45.61 1054.76 70.8198 1052.22 82.0867C1046.16 109.968 1037.81 137.457 1015.83 137.352C1007.22 137.311 998.45 133.062 1005.48 101.171L1015.26 55.7186Z" fill="#3350A3"/>
<path d="M1177.26 39.8646L1144.38 39.7066L1143.01 45.4351C1149.7 45.4672 1151.19 54.6507 1145.52 80.2408L1137.31 118.817C1131.54 125.481 1123.29 132.132 1114.88 132.091C1106.66 132.052 1097.7 125.892 1101.8 107.75L1116.47 39.5726L1083.59 39.4146L1082.22 45.143C1088.91 45.1751 1090.4 54.3587 1084.73 79.9487L1078.86 107.64C1073.39 132.466 1089.4 143.44 1104.12 143.51C1118.07 143.577 1129.01 133.88 1135.55 126.456C1133.79 135.432 1134.89 143.658 1144.26 143.703C1156.69 143.763 1170.33 128.726 1175.56 115.751L1172.88 114.783C1169.41 121.457 1164.8 126.596 1162.12 126.583C1160.02 126.573 1159.27 123.32 1161.03 115.108L1177.26 39.8646Z" fill="#3350A3"/>
<path d="M1180.75 107.938C1175.28 132.573 1183.83 144.084 1198.17 144.152C1216.14 144.048 1225.03 123.827 1228.13 116.003L1225.45 115.035C1221.01 124.763 1213.33 132.755 1206.44 132.722C1199.75 132.499 1199.98 124.853 1201.35 118.934L1217.18 45.7907L1236.11 45.8817L1237.47 40.1533L1218.36 40.0614L1224.03 14.472L1218.29 14.4445C1215.75 26.0931 1199.04 41.8805 1185.47 41.8153L1184.49 45.6337L1194.24 45.6805L1180.75 107.938Z" fill="#3350A3"/>
<path d="M1223.22 142.361C1232.78 142.79 1244.07 139.403 1254.2 139.451C1265.48 139.505 1275.79 142.614 1287.07 142.668C1292.61 142.695 1299.51 139.287 1300.88 133.176C1301.86 128.783 1298.82 124.563 1294.23 124.541C1284.29 124.494 1289.01 136.369 1279.64 136.324C1273.72 136.295 1267.99 135.312 1262.25 135.284C1258.43 135.266 1254.8 135.439 1250.97 135.803L1320.06 40.5498C1310.5 40.1215 1299.21 43.3171 1289.08 43.2685C1277.8 43.2143 1267.3 40.2963 1256.21 40.2431C1250.66 40.2164 1243.77 43.4331 1242.4 49.7355C1241.42 54.1278 1244.46 58.3479 1249.05 58.3699C1258.99 58.4177 1254.27 46.3511 1263.64 46.3961C1269.56 46.4246 1275.1 47.5983 1281.03 47.6268C1284.85 47.6451 1288.48 47.4718 1292.31 47.1078L1223.22 142.361Z" fill="#3350A3"/>
</svg>
